<svg width="25" height="25" viewBox="0 0 25 25" fill="none" xmlns="http://www.w3.org/2000/svg">
<path d="M21.535 8.38499L15.5446 7.51439L12.8668 2.0855C12.7936 1.93686 12.6733 1.81653 12.5246 1.74339C12.1519 1.55936 11.6989 1.71272 11.5125 2.0855L8.83461 7.51439L2.8442 8.38499C2.67904 8.40858 2.52804 8.48644 2.41244 8.60441C2.27267 8.74806 2.19565 8.94133 2.19831 9.14173C2.20096 9.34214 2.28307 9.5333 2.42659 9.6732L6.76073 13.8988L5.73677 19.8656C5.71276 20.0044 5.72812 20.1472 5.78111 20.2777C5.8341 20.4082 5.9226 20.5213 6.03657 20.604C6.15055 20.6868 6.28543 20.736 6.42594 20.746C6.56644 20.7561 6.70695 20.7265 6.83151 20.6607L12.1896 17.8437L17.5477 20.6607C17.694 20.7386 17.8639 20.7645 18.0267 20.7362C18.4372 20.6654 18.7132 20.2762 18.6425 19.8656L17.6185 13.8988L21.9526 9.6732C22.0706 9.55759 22.1485 9.40659 22.1721 9.24144C22.2358 8.82855 21.9479 8.44633 21.535 8.38499Z" fill="#3F72AF"/>
</svg>
