<svg width="100" height="26" viewBox="0 0 100 26" fill="none" xmlns="http://www.w3.org/2000/svg">
<g clip-path="url(#clip0)">
<path d="M0.878136 1.6076H21.7025C22.1875 1.6076 22.5806 2.00075 22.5806 2.48574V6.58083C22.5806 7.12631 22.3439 7.64278 21.9319 8.00019L10.2867 17.7421H21.7025C22.1875 17.7421 22.5806 18.1281 22.5806 18.6131V23.3144C22.5806 23.7994 22.1875 24.1925 21.7025 24.1925H0.878136C0.393155 24.1925 0 23.7994 0 23.3144V19.226C0 18.6805 0.236701 18.164 0.648772 17.8066L12.2939 8.06471H0.878136C0.393155 8.06471 0 7.66259 0 7.17761V2.48574C0 2.00075 0.393155 1.6076 0.878136 1.6076ZM37.0968 0.806641C39.5046 0.806641 41.6513 1.34811 43.4434 2.33761C45.2356 3.3271 46.6731 4.76463 47.6626 6.55674C48.6521 8.34886 49.1935 10.4956 49.1935 12.9034C49.1935 15.3113 48.6521 17.458 47.6626 19.2501C46.6731 21.0422 45.2356 22.4797 43.4434 23.4692C41.6513 24.4587 39.5046 25.0002 37.0968 25.0002C34.6889 25.0002 32.5422 24.4587 30.7501 23.4692C28.958 22.4797 27.5205 21.0422 26.531 19.2501C25.5415 17.458 25 15.3113 25 12.9034C25 10.4956 25.5415 8.34886 26.531 6.55674C27.5205 4.76463 28.958 3.3271 30.7501 2.33761C32.5422 1.34811 34.6889 0.806641 37.0968 0.806641ZM37.0968 7.25825C35.945 7.25825 34.9338 7.50156 34.0975 7.95394C33.2612 8.40633 32.5997 9.06779 32.1473 9.90411C31.6949 10.7404 31.4516 11.7516 31.4516 12.9034C31.4516 14.0552 31.6949 15.0664 32.1473 15.9027C32.5997 16.739 33.2612 17.4005 34.0975 17.8529C34.9338 18.3053 35.945 18.5486 37.0968 18.5486C38.2486 18.5486 39.2598 18.3053 40.0961 17.8529C40.9324 17.4005 41.5939 16.739 42.0462 15.9027C42.4986 15.0664 42.7419 14.0552 42.7419 12.9034C42.7419 11.7516 42.4986 10.7404 42.0462 9.90411C41.5939 9.06779 40.9324 8.40633 40.0961 7.95394C39.2598 7.50156 38.2486 7.25825 37.0968 7.25825ZM62.9032 0.806641C65.3111 0.806641 67.4578 1.34811 69.2499 2.33761C71.042 3.3271 72.4795 4.76463 73.469 6.55674C74.4585 8.34886 75 10.4956 75 12.9034C75 15.3113 74.4585 17.458 73.469 19.2501C72.4795 21.0422 71.042 22.4797 69.2499 23.4692C67.4578 24.4587 65.3111 25.0002 62.9032 25.0002C60.4954 25.0002 58.3487 24.4587 56.5565 23.4692C54.7644 22.4797 53.3269 21.0422 52.3374 19.2501C51.3479 17.458 50.8064 15.3113 50.8064 12.9034C50.8064 10.4956 51.3479 8.34886 52.3374 6.55674C53.3269 4.76463 54.7644 3.3271 56.5565 2.33761C58.3487 1.34811 60.4954 0.806641 62.9032 0.806641ZM62.9032 7.25825C61.7514 7.25825 60.7402 7.50156 59.9039 7.95394C59.0676 8.40633 58.4061 9.06779 57.9538 9.90411C57.5014 10.7404 57.2581 11.7516 57.2581 12.9034C57.2581 14.0552 57.5014 15.0664 57.9538 15.9027C58.4061 16.739 59.0676 17.4005 59.9039 17.8529C60.7402 18.3053 61.7514 18.5486 62.9032 18.5486C64.055 18.5486 65.0662 18.3053 65.9025 17.8529C66.7388 17.4005 67.4003 16.739 67.8527 15.9027C68.3051 15.0664 68.5484 14.0552 68.5484 12.9034C68.5484 11.7516 68.3051 10.7404 67.8527 9.90411C67.4003 9.06779 66.7388 8.40633 65.9025 7.95394C65.0662 7.50156 64.055 7.25825 62.9032 7.25825ZM100.003 2.48853V23.314C100.003 23.799 99.6096 24.1922 99.1246 24.1922H95.0322C94.4868 24.1922 93.9703 23.9555 93.6129 23.5435L83.871 11.8998V23.314C83.871 23.799 83.4689 24.1922 82.9839 24.1922H78.2948C77.8098 24.1922 77.4166 23.799 77.4166 23.314V2.48853C77.4166 2.00352 77.8098 1.61035 78.2948 1.61035H82.3871C82.9327 1.61035 83.449 1.84711 83.8064 2.25928L93.5484 13.9071V2.48853C93.5484 2.00352 93.9343 1.61035 94.4193 1.61035H99.1246C99.6096 1.61035 100.003 2.00352 100.003 2.48853Z" fill="url(#paint0_linear)"/>
</g>
<defs>
<linearGradient id="paint0_linear" x1="77.3453" y1="12.9034" x2="21.8119" y2="12.9034" gradientUnits="userSpaceOnUse">
<stop stop-color="#6339F5"/>
<stop offset="1" stop-color="#3D3F55"/>
</linearGradient>
<clipPath id="clip0">
<rect width="100" height="25.8065" fill="white"/>
</clipPath>
</defs>
</svg>
