<svg width="16" height="19" fill="none" xmlns="http://www.w3.org/2000/svg"><path d="M0 0v19h16V4.823l-.24-.22L10.96.22 10.72 0H0zm1.6 1.462h8v4.384h4.8v11.692H1.6V1.462zm9.6 1.023l2.08 1.9H11.2v-1.9zm-8 1.9v1.461H8V4.385H3.2zm0 2.923v1.461h9.6V7.308H3.2zM6 9.5c-.72 0-1.28.438-1.6.95-.32.511-.4 1.17-.4 1.9 0 .439.16.877.24 1.315-.32.074-.64.293-1.04.293v1.461c.56 0 1.12-.073 1.6-.219.08.146.08.22.24.365.32.293.8.512 1.36.512 1.28 0 2.08-.804 2.64-1.389.08-.146.16-.219.24-.292 0 .073 0 .146.08.22.08.146.16.292.32.438.16.146.48.292.72.292.48 0 .8-.292.96-.438.16-.146.32-.366.48-.512.32-.292.56-.511.88-.511v-1.462c-.96 0-1.68.512-2.08.95 0-.073 0-.146-.08-.22-.08-.145-.16-.292-.32-.51-.16-.22-.4-.22-.64-.22-.64 0-.88.366-1.12.585a3.26 3.26 0 00-.64.804c-.48.511-.8.803-1.44.803-.08 0-.08-.073-.16-.073.08 0 .08-.073.16-.073.88-.657 1.6-1.534 1.6-2.704 0-.584-.16-1.096-.48-1.534C7.2 9.792 6.64 9.5 6 9.5zm-.08 1.461c.24 0 .24 0 .32.147.08.146.16.365.16.73 0 .439-.24.877-.64 1.243 0-.22-.16-.512-.16-.658 0-.585.08-1.023.24-1.242.08-.146.08-.22.08-.22z" fill="#FFB401"/></svg>