<svg width="16" height="19" fill="none" xmlns="http://www.w3.org/2000/svg"><path d="M12.2 7.125H8.4v2.078c0 1.474-.807 2.672-1.8 2.672-.992 0-1.8-1.198-1.8-2.672V4.69L3.179 6.138c-.482.426-.777 1.202-.777 2.033v1.756l-2 1.714c-.383.327-.515 1.054-.293 1.622l2 5.144c.22.568.71.76 1.093.434l2.585-2.215H9.2c.882 0 1.6-1.066 1.6-2.376h.4c.442 0 .8-.53.8-1.187v-2.375h.2c.332 0 .6-.398.6-.891V8.015c0-.493-.268-.89-.6-.89zm3.693-1.388l-2-5.144c-.22-.568-.71-.76-1.093-.434l-2.584 2.215H7.66c-.3 0-.593.127-.848.36l-.837.776c-.235.215-.375.598-.375 1.006v4.687c0 .82.447 1.485 1 1.485.552 0 1-.665 1-1.485V5.937h4.6c.772 0 1.4.932 1.4 2.078v1.058l2-1.714c.382-.33.512-1.054.292-1.622z" fill="#FFB401"/></svg>