<svg width="16" height="17" fill="none" xmlns="http://www.w3.org/2000/svg"><path d="M4.433 16.88c.795 0 1.44-.802 1.44-1.792s-.645-1.792-1.44-1.792c-.796 0-1.44.803-1.44 1.792 0 .99.644 1.792 1.44 1.792zm6.028.12c.804 0 1.456-.83 1.456-1.852 0-1.023-.652-1.852-1.456-1.852-.804 0-1.455.83-1.455 1.852 0 1.023.651 1.852 1.455 1.852z" fill="#FFB401"/><path fill-rule="evenodd" clip-rule="evenodd" d="M14.702 0c-.719 0-1.3.747-1.3 1.668l-.172 1.675H.542c-.318 0-.542.358-.542.816 0 .173.01.336.072.467l1.214 6.801c.04.215.168.373.332.46.079.065.17.1.265.104h10.49l-.175 1.363H2.554c-.32 0-.502.07-.502.527 0 .458.182.591.502.591l10.815.002 1.163-11.158c.057.008.11.022.17.022.717 0 1.298-.748 1.298-1.668C16 .747 15.418 0 14.702 0zm-1.943 7.198h-1.75v-2.67h2.083l-.333 2.67zm-10.6 3.597l-.31-2.538h2.187v2.538H2.16zM7.971 4.53h2.052v2.553H7.971V4.529zm-.94 2.591H4.948V4.51h2.083v2.61zm-3.007-.012H1.822l-.315-2.576h2.518v2.576zm.94 1.162h2.067v2.591H4.964V8.27zm3.007-.02h2.067v2.611H7.971V8.25zm3.007 2.591V8.29h1.91l-.288 2.55h-1.62z" fill="#FFB401"/></svg>