<svg width="16" height="19" fill="none" xmlns="http://www.w3.org/2000/svg"><path d="M13.777 5.278V2.11c0-.28-.093-.548-.26-.746a.824.824 0 00-.628-.31H2.665a.824.824 0 00-.628.31 1.16 1.16 0 00-.26.746v3.167c0 .28.093.548.26.746.166.198.392.31.628.31H12.89a.824.824 0 00.628-.31 1.16 1.16 0 00.26-.746zM2.667 2.11h10.222v3.167H2.665V2.11z" fill="#FFB401"/><path d="M14.667 3.167h-.445v3.32l-5.91 2.242a.458.458 0 00-.232.201.601.601 0 00-.08.327v.77h-.889v7.39c0 .28.094.548.26.746.167.198.393.31.63.31h.888a.824.824 0 00.629-.31c.166-.198.26-.466.26-.746v-7.39h-.889v-.385L14.8 7.39a.458.458 0 00.231-.201.602.602 0 00.08-.327V3.694a.582.582 0 00-.13-.373.412.412 0 00-.314-.154zm-5.778 14.25H8v-6.334h.89v6.334z" fill="#FFB401"/><path fill-rule="evenodd" clip-rule="evenodd" d="M2.206 7.389c-.526 0-.936.276-1.156.779a2.02 2.02 0 00-.161.75v4.452s.527-.71 1.454 0c1.19.844 1.59-.407 2.105 0 .82.755 1.296 0 1.296 0s-.006-3.616 0-3.71c.03-.604.1-1.143.294-1.545.215-.448.51-.726.836-.726H2.206z" fill="#FFB401"/><path fill-rule="evenodd" clip-rule="evenodd" d="M7.568 8.293c-.132-.216-.286-.343-.452-.343-.236 0-.45.254-.606.665-.14.367-.234.86-.258 1.412v.53c.05 1.17.417 2.077.864 2.077.48 0 .87-1.048.87-2.342 0-.847-.167-1.588-.418-1.999zm-.452 3.343c-.235 0-.429-.523-.455-1.195v-.306a2.91 2.91 0 01.136-.81c.083-.24.195-.385.32-.385.087 0 .167.072.237.199.132.235.22.662.22 1.15 0 .744-.206 1.347-.458 1.347z" fill="#FFB401"/></svg>