<svg width="113" height="116" fill="none" xmlns="http://www.w3.org/2000/svg"><path d="M112.5 62c0 29.526-25.05 53.5-56 53.5S.5 91.526.5 62s25.05-53.5 56-53.5 56 23.974 56 53.5z" fill="#F5C200" stroke="#fff"/><path d="M64.36 23.778a9.48 9.48 0 01.39 2.478c0 1.14-.216 2.205-.643 3.197a8.483 8.483 0 01-1.76 2.633 8.086 8.086 0 01-2.625 1.77 8.138 8.138 0 01-3.222.644 8.016 8.016 0 01-3.203-.643 8.483 8.483 0 01-2.633-1.76 8.086 8.086 0 01-1.77-2.625 8.138 8.138 0 01-.644-3.222 7.996 7.996 0 011.448-4.636 8.79 8.79 0 011.666-1.795 7.9 7.9 0 012.155-1.237l1.053-.408-1.01-.506-5.312-2.664V.5h16.5v14.507c-.84.428-1.676.848-2.507 1.259-.924.456-1.86.924-2.807 1.403l-.99.501 1.031.41a8.337 8.337 0 012.145 1.242 8.762 8.762 0 011.682 1.778 7.358 7.358 0 011.057 2.178zM73.5.5v10.129l-5.563 2.78V.5H73.5zm-34 0h5.563v12.91L39.5 10.629V.5z" fill="#333" stroke="#fff"/><path d="M56.352 23.696l1.536-.036c.056 0 .084.06.084.18s-.02.18-.06.18h-.84c-.096 0-.144.068-.144.204v3.36c0 .704.084 1.056.252 1.056h.732c.064 0 .096.06.096.18s-.024.18-.072.18l-1.452-.012-1.536.036c-.056 0-.084-.06-.084-.18s.02-.18.06-.18h.84c.096 0 .144-.068.144-.204V25.1c0-.704-.084-1.056-.252-1.056h-.732c-.064 0-.096-.06-.096-.18s.024-.18.072-.18l1.452.012z" fill="#fff"/></svg>