<svg xmlns="http://www.w3.org/2000/svg" width="113" height="119" fill="none"><path fill="#F5C200" stroke="#fff" d="M112.5 65c0 29.526-25.05 53.5-56 53.5S.5 94.526.5 65s25.05-53.5 56-53.5 56 23.974 56 53.5z"/><path fill="#000" stroke="#fff" d="M62.5 24.872v-5.12h1.625v4.327l.266.14 3.794 2.01-.779 1.238-4.906-2.594zm7-13.641v-.5H44v18.648h9.492l-.375-.729A9.978 9.978 0 0152 24.066c0-2.831 1.226-5.556 3.426-7.573 2.2-2.018 5.194-3.158 8.324-3.158 1.804 0 3.521.371 5.051 1.034l.699.303V11.23zM46.25 3.709h.5V.5h2.5v3.209h15V.5h2.5v3.209H69a3.17 3.17 0 012.137.808c.558.512.863 1.197.863 1.9v10.005l.16.148c2.076 1.935 3.34 4.581 3.34 7.496 0 2.831-1.226 5.556-3.426 7.573-2.2 2.017-5.194 3.158-8.324 3.158-3.22 0-6.128-1.175-8.24-3.08l-.143-.13H44.5a3.168 3.168 0 01-2.137-.808c-.559-.512-.863-1.196-.863-1.9V6.418c0-1.465 1.292-2.71 3-2.71h1.75zm17.5 12.076c-2.37 0-4.651.862-6.34 2.41-1.69 1.55-2.647 3.66-2.647 5.87 0 4.617 4.063 8.282 8.987 8.282a9.661 9.661 0 003.425-.625 9.077 9.077 0 002.915-1.785 8.274 8.274 0 001.957-2.688c.455-1.007.69-2.09.69-3.183 0-4.616-4.063-8.281-8.987-8.281z"/></svg>