<svg width="40" height="40" viewBox="0 0 40 40" fill="none" xmlns="http://www.w3.org/2000/svg">
<path fill-rule="evenodd" clip-rule="evenodd" d="M35 2.5H5C4.33696 2.5 3.70107 2.76339 3.23223 3.23223C2.76339 3.70107 2.5 4.33696 2.5 5V33.965L7.5 28.965C8.43746 28.0273 9.70903 27.5003 11.035 27.5H35C35.663 27.5 36.2989 27.2366 36.7678 26.7678C37.2366 26.2989 37.5 25.663 37.5 25V5C37.5 4.33696 37.2366 3.70107 36.7678 3.23223C36.2989 2.76339 35.663 2.5 35 2.5ZM5 0C3.67392 0 2.40215 0.526784 1.46447 1.46447C0.526784 2.40215 0 3.67392 0 5L0 36.9825C5.25372e-05 37.2298 0.0734815 37.4716 0.210993 37.6772C0.348505 37.8828 0.543917 38.043 0.772498 38.1374C1.00108 38.2319 1.25255 38.2565 1.49509 38.208C1.73763 38.1595 1.96033 38.0401 2.135 37.865L9.2675 30.7325C9.73623 30.2636 10.372 30.0001 11.035 30H35C36.3261 30 37.5979 29.4732 38.5355 28.5355C39.4732 27.5979 40 26.3261 40 25V5C40 3.67392 39.4732 2.40215 38.5355 1.46447C37.5979 0.526784 36.3261 0 35 0L5 0Z" fill="#999999" fill-opacity="0.2"/>
<path fill-rule="evenodd" clip-rule="evenodd" d="M17.6651 11.9007C17.1781 11.1423 16.4581 10.5625 15.6133 10.2483C14.7686 9.9342 13.8447 9.90272 12.9805 10.1586C12.1163 10.4146 11.3586 10.9441 10.8211 11.6676C10.2837 12.391 9.99553 13.2694 10.0001 14.1707C10.0005 14.917 10.2014 15.6495 10.5817 16.2917C10.962 16.9339 11.5077 17.4622 12.1619 17.8213C12.8162 18.1805 13.5549 18.3574 14.3008 18.3336C15.0468 18.3097 15.7726 18.0859 16.4026 17.6857C16.0751 18.6582 15.4651 19.6957 14.4601 20.7357C14.2678 20.9346 14.1624 21.2017 14.1671 21.4784C14.1718 21.755 14.2861 22.0184 14.4851 22.2107C14.684 22.403 14.9511 22.5084 15.2277 22.5037C15.5043 22.499 15.7678 22.3846 15.9601 22.1857C19.6751 18.3357 19.1926 14.1507 17.6651 11.9057V11.9007ZM27.6651 11.9007C27.1781 11.1423 26.4581 10.5625 25.6133 10.2483C24.7686 9.9342 23.8447 9.90272 22.9805 10.1586C22.1163 10.4146 21.3586 10.9441 20.8211 11.6676C20.2837 12.391 19.9955 13.2694 20.0001 14.1707C20.0005 14.917 20.2014 15.6495 20.5817 16.2917C20.962 16.9339 21.5077 17.4622 22.1619 17.8213C22.8162 18.1805 23.5549 18.3574 24.3008 18.3336C25.0468 18.3097 25.7726 18.0859 26.4026 17.6857C26.0751 18.6582 25.4651 19.6957 24.4601 20.7357C24.2678 20.9346 24.1624 21.2017 24.1671 21.4784C24.1718 21.755 24.2861 22.0184 24.4851 22.2107C24.684 22.403 24.9511 22.5084 25.2277 22.5037C25.5043 22.499 25.7678 22.3846 25.9601 22.1857C29.6751 18.3357 29.1926 14.1507 27.6651 11.9057V11.9007Z" fill="#999999" fill-opacity="0.2"/>
</svg>
