<svg width="16" height="16" viewBox="0 0 16 16" fill="none" xmlns="http://www.w3.org/2000/svg">
<path d="M9.91645 5.51457L9.91657 5.51439C10.006 5.38277 10.1499 5.30684 10.3002 5.30684H11.0699C11.1317 5.30684 11.1773 5.38534 11.134 5.44728L11.1337 5.44765L7.6776 10.4851L7.67752 10.4852C7.6336 10.5496 7.57588 10.6019 7.50931 10.6379C7.44272 10.6738 7.36913 10.6925 7.2946 10.6925C7.22008 10.6925 7.14648 10.6738 7.0799 10.6379C7.01334 10.6019 6.95561 10.5496 6.9117 10.4852L6.91162 10.4851L4.86691 7.50415C4.86691 7.50415 4.8669 7.50414 4.86689 7.50413C4.82456 7.44203 4.87039 7.36324 4.93227 7.36324H5.70194C5.85358 7.36324 5.99611 7.44061 6.08578 7.57101L7.25419 9.27541L7.29541 9.33555L7.33666 9.27542L9.91645 5.51457Z" fill="#FFC301" stroke="black" stroke-width="0.1"/>
<path d="M1.19258 8.0007C1.19258 4.24158 4.2406 1.19355 7.99972 1.19355C11.7588 1.19355 14.8069 4.24158 14.8069 8.0007C14.8069 11.7598 11.7588 14.8078 7.99972 14.8078C4.2406 14.8078 1.19258 11.7598 1.19258 8.0007ZM2.25585 8.0007C2.25585 11.1722 4.82823 13.7446 7.99972 13.7446C11.1712 13.7446 13.7436 11.1722 13.7436 8.0007C13.7436 4.82921 11.1712 2.25682 7.99972 2.25682C4.82823 2.25682 2.25585 4.82921 2.25585 8.0007Z" fill="#FFC301" stroke="black" stroke-width="0.1"/>
</svg>
