<svg width="62" height="62" viewBox="0 0 62 62" fill="none" xmlns="http://www.w3.org/2000/svg">
<g clip-path="url(#clip0)">
<path d="M60.8298 9.4228L61.646 8.60651C62.1189 8.13365 62.1189 7.36689 61.646 6.89391C61.1732 6.42116 60.4064 6.42116 59.9334 6.89391L59.1172 7.71019L58.3014 6.89439C58.0743 6.66734 57.7663 6.53971 57.4451 6.53971H56.1132L49.9282 0.354679C49.701 0.127631 49.3931 0 49.0719 0H4.362C1.95734 0 0.000976562 1.95625 0.000976562 4.36102V27.0538C0.000976562 29.4585 1.95734 31.4149 4.362 31.4149H14.9116L7.81737 38.5092C6.9937 39.3328 6.54008 40.428 6.54008 41.5929C6.54008 42.7577 6.9937 43.8529 7.81737 44.6766L23.8635 60.7228C24.6872 61.5465 25.7824 62.0001 26.9473 62.0001C28.1122 62.0001 29.2074 61.5465 30.031 60.7228L42.0491 48.7049C42.5221 48.232 42.5221 47.4653 42.0491 46.9923C41.5762 46.5197 40.8095 46.5196 40.3366 46.9923L28.3184 59.0102C27.9522 59.3765 27.4652 59.5781 26.9473 59.5781C26.4294 59.5781 25.9423 59.3765 25.5762 59.0102L9.52985 42.964C9.16367 42.5979 8.96193 42.1108 8.96193 41.5929C8.96193 41.0749 9.16367 40.588 9.52985 40.2218L40.7898 8.9618H56.9437L57.4048 9.42292L54.6047 12.2231C54.1303 11.9956 53.5996 11.8681 53.0394 11.8681C51.0363 11.8681 49.4066 13.4978 49.4066 15.5009C49.4066 17.504 51.0363 19.1337 53.0394 19.1337C55.0425 19.1337 56.6722 17.504 56.6722 15.5009C56.6722 14.9407 56.5446 14.4099 56.3171 13.9357L59.1173 11.1355L59.5784 11.5966V27.7504L48.0427 39.2862C47.5698 39.7591 47.5698 40.5258 48.0427 40.9988C48.5155 41.4716 49.2823 41.4716 49.7553 40.9988L61.6457 29.1084C61.8727 28.8812 62.0004 28.5733 62.0004 28.2522V11.0948C62.0004 10.7737 61.8727 10.4658 61.6457 10.2386L60.8298 9.4228ZM21.7466 21.7282C21.0787 21.7282 20.5353 21.1849 20.5353 20.5169C20.5353 19.8488 21.0787 19.3055 21.7466 19.3055C22.4146 19.3055 22.9579 19.8488 22.9579 20.5169C22.9579 21.1847 22.4146 21.7282 21.7466 21.7282ZM40.2883 6.53983C39.9671 6.53983 39.6591 6.66746 39.432 6.89451L25.3497 20.9767C25.3688 20.8259 25.3799 20.6726 25.3799 20.5168C25.3799 18.5134 23.7501 16.8835 21.7467 16.8835C19.7435 16.8835 18.1136 18.5134 18.1136 20.5168C18.1136 22.5201 19.7434 24.1499 21.7467 24.1499C21.9026 24.1499 22.0559 24.1389 22.2066 24.1198L17.3335 28.9929H4.362C3.29275 28.9929 2.42282 28.123 2.42282 27.0537V4.36102C2.42282 3.29177 3.29275 2.42185 4.362 2.42185H48.5703L52.6882 6.53983H40.2883ZM53.0394 16.7116C52.3717 16.7116 51.8285 16.1684 51.8285 15.5007C51.8285 14.833 52.3717 14.2897 53.0394 14.2897C53.3157 14.2897 53.57 14.3838 53.7741 14.5403C53.8062 14.5822 53.8403 14.6231 53.8786 14.6614C53.9168 14.6996 53.9578 14.7338 53.9997 14.7659C54.1561 14.9699 54.2502 15.2242 54.2502 15.5005C54.2503 16.1684 53.7071 16.7116 53.0394 16.7116Z" fill="#3F72AF"/>
<path d="M40.2753 35.8232C40.5965 35.8232 40.9045 35.6956 41.1316 35.4685L43.8715 32.7284C44.3444 32.2556 44.3444 31.4888 43.8715 31.0158C43.3987 30.5431 42.6319 30.5431 42.159 31.0158L40.2753 32.8997L34.2815 26.906C33.8087 26.4332 33.0419 26.4332 32.569 26.906C32.0961 27.3788 32.0961 28.1456 32.569 28.6186L39.4191 35.4685C39.6463 35.6956 39.9543 35.8232 40.2753 35.8232Z" fill="#3F72AF"/>
<path d="M49.694 25.1936C49.2212 24.7209 48.4544 24.7209 47.9814 25.1936L46.4401 26.7349L44.7277 25.0225L46.2689 23.4812C46.7418 23.0084 46.7418 22.2416 46.2689 21.7686C45.7961 21.2959 45.0293 21.2959 44.5563 21.7686L43.0151 23.3099L41.3026 21.5974L42.8438 20.0561C43.3167 19.5833 43.3168 18.8165 42.8438 18.3435C42.371 17.8709 41.6042 17.8708 41.1313 18.3435L38.7338 20.741C38.5068 20.9681 38.3792 21.2761 38.3792 21.5973C38.3792 21.9184 38.5068 22.2264 38.7338 22.4535L45.5839 29.3035C45.8203 29.5398 46.1303 29.6582 46.4401 29.6582C46.75 29.6582 47.06 29.5398 47.2964 29.3035L49.6939 26.906C50.1669 26.4332 50.1669 25.6665 49.694 25.1936Z" fill="#3F72AF"/>
<path d="M36.3008 39.1164C36.8964 39.4201 37.6258 39.183 37.9295 38.5871C38.233 37.9912 37.9961 37.2621 37.4001 36.9586L28.3238 32.3348C27.8564 32.0966 27.2888 32.1866 26.9179 32.5575C26.547 32.9284 26.4571 33.496 26.6952 33.9633L31.319 43.0396C31.5329 43.4595 31.9579 43.7012 32.3989 43.7011C32.5838 43.7011 32.7717 43.6586 32.9476 43.5689C33.5435 43.2653 33.7805 42.5362 33.477 41.9403L33.1058 41.2113L35.572 38.745L36.3008 39.1164ZM31.9497 38.9424L30.5445 36.1841L33.303 37.5893L31.9497 38.9424Z" fill="#3F72AF"/>
<path d="M24.6914 48.4838C24.2185 48.9567 24.2184 49.7234 24.6914 50.1964C24.9278 50.4328 25.2377 50.5511 25.5476 50.5511C25.8575 50.5511 26.1675 50.4328 26.4038 50.1964L28.1164 48.4839C29.5329 47.0675 29.5329 44.7629 28.1164 43.3463C26.7701 42 24.6221 41.9344 23.1962 43.1473C23.1519 43.1808 23.1088 43.2164 23.0685 43.2569L22.9789 43.3463C22.7501 43.5751 22.4461 43.701 22.1226 43.701C21.7992 43.701 21.4951 43.5751 21.2664 43.3463C20.7942 42.8742 20.7942 42.106 21.2664 41.6337L22.9789 39.9212C23.4517 39.4484 23.4519 38.6816 22.9789 38.2086C22.506 37.736 21.7392 37.7359 21.2664 38.2086L19.5538 39.9211C18.1374 41.3375 18.1374 43.6423 19.5538 45.0588C20.24 45.7449 21.1522 46.1228 22.1225 46.1228C23.0915 46.1228 24.0026 45.7459 24.6887 45.0613C24.6895 45.0604 24.6905 45.0597 24.6914 45.0588C25.1634 44.5866 25.9317 44.5866 26.4038 45.0588C26.6326 45.2876 26.7585 45.5915 26.7585 45.915C26.7585 46.2385 26.6326 46.5426 26.4038 46.7712L24.6914 48.4838Z" fill="#3F72AF"/>
<path d="M20.748 7.81713C20.1656 7.48848 19.427 7.69386 19.0982 8.27631L11.2878 22.1116C10.959 22.694 11.1645 23.4326 11.7469 23.7614C11.9351 23.8676 12.1394 23.918 12.3411 23.918C12.7638 23.918 13.1741 23.6964 13.3967 23.3022L21.2072 9.46689C21.5359 8.88444 21.3304 8.14577 20.748 7.81713Z" fill="#3F72AF"/>
<path d="M15.1581 10.8978C15.1581 8.89445 13.5283 7.26465 11.5249 7.26465C9.52152 7.26465 7.8916 8.89445 7.8916 10.8978C7.8916 12.9012 9.5214 14.5311 11.5248 14.5311C13.5282 14.5311 15.1581 12.9012 15.1581 10.8978ZM10.3135 10.8978C10.3135 10.2299 10.8568 9.68652 11.5248 9.68652C12.1927 9.68652 12.7361 10.2299 12.7361 10.8978C12.7361 11.5659 12.1927 12.1092 11.5248 12.1092C10.8568 12.1092 10.3135 11.5659 10.3135 10.8978Z" fill="#3F72AF"/>
<path d="M45.0452 42.7842C44.7255 42.7842 44.4143 42.9137 44.189 43.1391C43.9638 43.3642 43.8342 43.6766 43.8342 43.9951C43.8342 44.3137 43.9638 44.6261 44.189 44.8513C44.4143 45.0765 44.7255 45.2061 45.0452 45.2061C45.3636 45.2061 45.6761 45.0766 45.9013 44.8513C46.1265 44.6261 46.2561 44.3137 46.2561 43.9951C46.2561 43.6766 46.1265 43.3642 45.9013 43.1391C45.6761 42.9139 45.3636 42.7842 45.0452 42.7842Z" fill="#3F72AF"/>
</g>
<defs>
<clipPath id="clip0">
<rect width="62" height="62" fill="white"/>
</clipPath>
</defs>
</svg>
