<svg width="66" height="66" viewBox="0 0 66 66" fill="none" xmlns="http://www.w3.org/2000/svg">
<g clip-path="url(#clip0)">
<path d="M65.2787 47.5095L59.135 45.2732C58.5688 45.0684 57.9442 45.361 57.7394 45.9271L57.3664 46.9503L50.249 44.3549C50.0702 44.2878 49.8765 44.2713 49.6887 44.3059L34.8803 46.921C33.5379 47.1599 32.3849 48.0123 31.7614 49.2243L24.9685 46.7465C23.8836 46.3474 22.6833 46.4006 21.6378 46.8939C20.3092 47.5137 19.3808 48.7577 19.1642 50.2076C18.8929 52.306 20.1358 54.306 22.1379 54.9919L44.5139 63.1362C44.633 63.1803 44.7597 63.2032 44.8868 63.2027C45.0055 63.2027 45.1231 63.183 45.2353 63.1452L51.4844 61.0356L52.1495 61.2771L51.7765 62.3014C51.5717 62.8675 51.8643 63.4927 52.4304 63.6975L58.5752 65.9332C58.6939 65.9774 58.82 66.0003 58.9466 65.9997C59.4047 66.0003 59.8144 65.7135 59.9708 65.283L65.9337 48.8987C66.1343 48.3342 65.8416 47.7138 65.2787 47.5095ZM51.1487 58.8515L44.8996 60.9611L22.8828 52.9466C21.8645 52.6077 21.2148 51.6095 21.318 50.5406C21.4101 49.8894 21.791 49.3148 22.355 48.9758C22.919 48.6374 23.6054 48.572 24.2231 48.7976L31.2931 51.3701C31.2969 51.5712 31.3128 51.7718 31.3421 51.9703C31.7693 54.3337 34.021 55.9118 36.3882 55.5064L48.656 53.3435L48.2766 51.1967L36.0147 53.36C34.834 53.5606 33.7103 52.7774 33.49 51.6C33.4448 51.3515 33.4464 51.0961 33.4954 50.8482C33.5033 50.812 33.5097 50.7758 33.514 50.7391C33.5283 50.646 33.5534 50.555 33.589 50.4677C33.8566 49.7362 34.493 49.2025 35.2597 49.0652L49.7781 46.5049L56.6215 48.9945L52.8944 59.2372L51.8702 58.8658C51.6382 58.7796 51.3839 58.7743 51.1487 58.8515ZM58.2906 63.5166L54.1948 62.0258L59.4116 47.6904L63.508 49.1807L58.2906 63.5166Z" fill="#3F72AF"/>
<path d="M25.593 17.577C25.9447 18.8646 26.5933 20.0522 27.4866 21.0434C27.4701 21.1307 27.4584 21.2185 27.4531 21.3073V27.2414C27.4531 29.0467 28.9162 30.5104 30.7221 30.5104V41.4071C30.7194 41.8221 30.9535 42.2025 31.3244 42.3877L33.5037 43.4773C33.8107 43.6306 34.1714 43.6306 34.4779 43.4773L36.6572 42.3877C37.0286 42.2025 37.2622 41.8221 37.2601 41.4071V30.5104C39.0654 30.5104 40.5291 29.0467 40.5291 27.2414V21.3073C40.5232 21.2121 40.511 21.1174 40.4929 21.0237C41.2207 20.223 41.7879 19.2897 42.1636 18.2746C43.7725 18.5449 45.3831 17.8058 46.228 16.4102C47.2639 14.6964 46.9803 12.4942 45.5438 11.0992L36.6759 2.23338C35.2489 0.798941 33.3068 -0.00553855 31.2829 -0.000217916H19.8254C19.6775 -0.000749979 19.5317 0.0295776 19.396 0.0881047L11.9796 3.26878H11.1081V1.08945C11.1081 0.487684 10.6202 -0.000217916 10.0184 -0.000217916H1.30109C0.699328 -0.000217916 0.211426 0.487684 0.211426 1.08945V18.5241C0.211426 19.1259 0.699328 19.6138 1.30109 19.6138H10.0184C10.6202 19.6138 11.1081 19.1259 11.1081 18.5241V16.3448H11.2672C12.0472 18.9599 15.5513 20.7034 18.7357 20.7034C21.3774 20.7577 23.901 19.6074 25.593 17.577ZM8.92875 17.4344H2.39076V2.17911H8.92875V17.4344ZM35.0807 40.7335L33.9911 41.2783L32.9014 40.7335V30.5104H35.0807V40.7335ZM38.3497 27.2414C38.3497 27.8432 37.8618 28.3311 37.2601 28.3311H30.7221C30.1203 28.3311 29.6324 27.8432 29.6324 27.2414V22.7934C30.3651 23.2201 31.1573 23.5361 31.9825 23.7303C32.3592 24.6471 33.3036 25.1972 34.2864 25.0727C35.2696 24.9488 36.0475 24.181 36.1842 23.1993C36.321 22.2182 35.7825 21.2669 34.8711 20.8785C33.9591 20.4906 32.9003 20.7614 32.2879 21.5404C31.6734 21.3792 31.0855 21.1286 30.5444 20.796C31.5947 20.1591 32.7705 19.7558 33.9911 19.6138C35.5553 19.8335 37.0472 20.4135 38.3497 21.3073V27.2414ZM39.1611 19.2573C37.6032 18.2554 35.8331 17.6313 33.9911 17.4344C32.1523 17.6302 30.3847 18.2533 28.829 19.253C28.1644 18.407 27.7244 17.4068 27.5499 16.3448H32.9014C34.4976 16.3607 35.9682 15.4807 36.7083 14.0665L39.7597 17.1173C39.8815 17.2312 40.0103 17.3371 40.1454 17.4344C39.9209 18.0926 39.5884 18.7087 39.1611 19.2573ZM37.2085 11.4838C37.1068 10.5921 36.7291 9.7541 36.1289 9.08636C38.5934 9.94245 40.3136 12.1814 40.5051 14.7832L37.2085 11.4838ZM24.1841 15.2551C24.1841 16.905 21.4849 18.5241 18.7357 18.5241C15.9866 18.5241 13.2874 16.905 13.2874 15.2551C13.2874 14.6533 12.7995 14.1654 12.1977 14.1654H11.1081V5.44811H12.1977C12.3451 5.44864 12.4914 5.41832 12.6271 5.35979L20.043 2.17911H31.2775C32.7248 2.17379 34.1145 2.74842 35.135 3.77424L44.0008 12.64C44.7175 13.3093 44.8787 14.3841 44.3897 15.2344C44.0258 15.8106 43.3894 16.1564 42.7084 16.1484C42.6908 16.1484 42.6743 16.1484 42.6568 16.1484C42.6898 15.8521 42.7068 15.5536 42.7084 15.2551C42.7031 10.4431 38.803 6.5431 33.9911 6.53778C32.5268 6.53991 31.0871 6.91501 29.8075 7.62744H20.9151V9.80678H32.9014C34.1049 9.80678 35.0807 10.7826 35.0807 11.9861C35.0807 13.1896 34.1049 14.1654 32.9014 14.1654H25.2737C24.672 14.1654 24.1841 14.6533 24.1841 15.2551Z" fill="#3F72AF"/>
</g>
<defs>
<clipPath id="clip0">
<rect width="66" height="66" fill="white"/>
</clipPath>
</defs>
</svg>
