<svg width="65" height="65" viewBox="0 0 65 65" fill="none" xmlns="http://www.w3.org/2000/svg">
<path d="M21.3281 19.2969H19.2969V21.3281H21.3281V19.2969Z" fill="#3F72AF"/>
<path d="M31.4844 19.2969H29.4531V21.3281H31.4844V19.2969Z" fill="#3F72AF"/>
<path d="M29.4531 25.3906H27.4219C27.4219 25.9293 27.2079 26.446 26.8269 26.8269C26.446 27.2079 25.9293 27.4219 25.3906 27.4219C24.8519 27.4219 24.3352 27.2079 23.9543 26.8269C23.5734 26.446 23.3594 25.9293 23.3594 25.3906H21.3281C21.3281 26.4681 21.7561 27.5014 22.518 28.2632C23.2799 29.0251 24.3132 29.4531 25.3906 29.4531C26.4681 29.4531 27.5014 29.0251 28.2632 28.2632C29.0251 27.5014 29.4531 26.4681 29.4531 25.3906Z" fill="#3F72AF"/>
<path d="M58.1954 12.1876C58.0691 12.0621 57.9121 11.972 57.7401 11.9262C57.5681 11.8805 57.387 11.8808 57.2151 11.9271C57.0432 11.9734 56.8865 12.064 56.7607 12.19C56.6349 12.3159 56.5444 12.4727 56.4983 12.6447L55.1048 17.8457L51.7665 18.5282L49.2183 16.2684L50.6087 11.0704C50.6546 10.8985 50.6546 10.7175 50.6086 10.5456C50.5626 10.3737 50.4722 10.2168 50.3465 10.0908C50.2208 9.96482 50.0642 9.87406 49.8924 9.82764C49.7206 9.78121 49.5396 9.78075 49.3676 9.8263C47.8672 10.2267 46.4938 11.0032 45.3772 12.0824C44.2607 13.1617 43.438 14.5079 42.9869 15.9939C42.5359 17.4798 42.4713 19.0562 42.7995 20.574C43.1277 22.0918 43.8376 23.5008 44.8623 24.6676L40.6962 40.2189C40.1129 39.9143 39.5042 39.6608 38.8772 39.4612L30.4688 36.8318V33.3065C32.3029 32.3716 33.8428 30.9477 34.9182 29.1923C35.9937 27.4368 36.5627 25.4182 36.5626 23.3595V22.3439C37.2417 22.3461 37.902 22.1206 38.438 21.7034C38.9739 21.2862 39.3545 20.7014 39.5189 20.0425C39.6834 19.3835 39.6222 18.6884 39.3451 18.0684C39.068 17.4483 38.5911 16.939 37.9905 16.6219C38.0493 16.5375 38.1028 16.4496 38.151 16.3588L38.2526 16.1496C38.446 15.7659 38.5555 15.3454 38.5739 14.9161C38.5924 14.4868 38.5192 14.0585 38.3594 13.6597C38.1995 13.2608 37.9566 12.9006 37.6468 12.6028C37.337 12.3051 36.9674 12.0766 36.5626 11.9327V6.74388C36.5594 6.04034 36.314 5.35936 35.8677 4.81554C35.4213 4.27171 34.8013 3.89823 34.1119 3.75794L27.1772 2.36349C25.994 2.136 24.7783 2.136 23.5951 2.36349L16.6685 3.75794C15.9793 3.89843 15.3595 4.272 14.9133 4.81581C14.4672 5.35962 14.2219 6.04049 14.2188 6.74388V11.9327C13.8138 12.0763 13.444 12.3045 13.134 12.6021C12.824 12.8996 12.5808 13.2597 12.4207 13.6585C12.2605 14.0572 12.1871 14.4855 12.2052 14.9148C12.2233 15.3442 12.3326 15.7647 12.5258 16.1486L12.6273 16.3517C12.675 16.4435 12.7275 16.5327 12.7848 16.6188C12.1821 16.9354 11.7032 17.4452 11.4251 18.0666C11.147 18.688 11.0857 19.3847 11.2511 20.0451C11.4165 20.7055 11.799 21.2911 12.3372 21.708C12.8754 22.1249 13.5381 22.3488 14.2188 22.3439V23.3595C14.2211 25.4166 14.7912 27.4331 15.8665 29.1869C16.9417 30.9406 18.4803 32.3634 20.3126 33.2984V36.8318L11.9062 39.4612C9.62876 40.1624 7.63696 41.577 6.22467 43.4964C4.81239 45.4158 4.05441 47.7383 4.06257 50.1212V61.9533C4.06257 62.2226 4.16957 62.4809 4.36004 62.6714C4.5505 62.8619 4.80883 62.9689 5.07819 62.9689H45.7032C45.9726 62.9689 46.2309 62.8619 46.4213 62.6714C46.6118 62.4809 46.7188 62.2226 46.7188 61.9533V59.922H44.6876V60.9376H39.6094V57.8908H37.5782V60.9376H13.2032V49.7658H11.1719V60.9376H6.09382V50.1212C6.0869 48.1718 6.7069 46.2718 7.8623 44.7016C9.0177 43.1315 10.6473 41.9743 12.5105 41.4011L15.2344 40.549V46.7189C15.2361 48.0652 15.7716 49.3559 16.7236 50.3079C17.6756 51.2599 18.9663 51.7954 20.3126 51.797H30.4688C31.1691 51.7956 31.8615 51.6483 32.5018 51.3647C33.1421 51.0811 33.7164 50.6673 34.188 50.1497C34.216 52.5349 35.1779 54.8142 36.8673 56.4983C36.9935 56.6239 37.1505 56.714 37.3225 56.7597C37.4946 56.8055 37.6756 56.8052 37.8475 56.7589C38.0194 56.7126 38.1761 56.6219 38.3019 56.496C38.4277 56.37 38.5182 56.2132 38.5644 56.0413L39.9578 50.8403L43.2951 50.1568L45.8444 52.4165L44.4509 57.6176C44.4106 57.768 44.4054 57.9258 44.4358 58.0786C44.4661 58.2314 44.5313 58.3752 44.6261 58.4988C44.721 58.6225 44.843 58.7226 44.9827 58.7915C45.1225 58.8604 45.2762 58.8962 45.432 58.8962C45.5194 58.896 45.6064 58.8848 45.691 58.8627C47.1917 58.4628 48.5655 57.6866 49.6824 56.6074C50.7993 55.5282 51.6223 54.1818 52.0734 52.6957C52.5245 51.2096 52.5889 49.6329 52.2604 48.115C51.9319 46.597 51.2215 45.188 50.1963 44.0214L54.6773 27.2971C56.1489 26.7993 57.4691 25.9341 58.5128 24.7834C59.5566 23.6327 60.2893 22.2346 60.6416 20.7215C60.9939 19.2085 60.9541 17.6305 60.526 16.1371C60.098 14.6437 59.2958 13.2843 58.1954 12.1876ZM39.3342 41.8246C37.7709 42.5909 36.4575 43.7856 35.5469 45.2696V40.549L38.2698 41.4011C38.6332 41.5198 38.9887 41.6612 39.3342 41.8246ZM30.5287 38.9808L29.7447 43.0708L27.0289 41.4458L29.7365 38.7381L30.5287 38.9808ZM15.5391 15.9942C15.3225 16.0335 15.0991 16.0013 14.9023 15.9026C14.7056 15.8039 14.5463 15.6439 14.4483 15.4468L14.3468 15.2436C14.2751 15.1005 14.2384 14.9424 14.2394 14.7823C14.2405 14.6222 14.2794 14.4646 14.353 14.3224C14.4266 14.1802 14.5327 14.0574 14.6628 13.9641C14.7928 13.8707 14.9431 13.8094 15.1014 13.7852L24.0064 12.4161C24.9272 12.274 25.8643 12.274 26.7851 12.4161L35.6901 13.7852C35.8482 13.8094 35.9983 13.8706 36.1283 13.9638C36.2582 14.0569 36.3644 14.1795 36.438 14.3214C36.5117 14.4634 36.5507 14.6207 36.5521 14.7806C36.5534 14.9405 36.517 15.0985 36.4458 15.2416L36.3442 15.4508C36.246 15.6474 36.0867 15.8068 35.8902 15.9051C35.6937 16.0035 35.4706 16.0354 35.2544 15.9962L27.034 14.5002C25.9535 14.3032 24.8462 14.3032 23.7657 14.5002L15.5391 15.9942ZM36.5626 20.3126V18.2814C36.8319 18.2814 37.0903 18.3884 37.2807 18.5789C37.4712 18.7693 37.5782 19.0276 37.5782 19.297C37.5782 19.5664 37.4712 19.8247 37.2807 20.0152C37.0903 20.2056 36.8319 20.3126 36.5626 20.3126ZM34.5313 6.74388V11.5508L31.9161 11.1446L33.0231 5.60638L33.7097 5.74451C33.9408 5.79086 34.1489 5.91565 34.2986 6.09777C34.4483 6.27988 34.5305 6.50812 34.5313 6.74388ZM23.9871 4.35919C24.9113 4.18096 25.861 4.18096 26.7851 4.35919L31.0325 5.21232L29.9062 10.8419L27.0898 10.4083C25.9638 10.2336 24.8176 10.2336 23.6915 10.4083L20.8752 10.8419L19.7489 5.21029L23.9871 4.35919ZM17.0707 5.74857L17.7583 5.61044L18.8653 11.1486L16.2501 11.5549V6.74388C16.2517 6.50897 16.3342 6.28179 16.4837 6.10053C16.6331 5.91927 16.8404 5.79499 17.0707 5.74857ZM13.2032 19.297C13.2032 19.0276 13.3102 18.7693 13.5007 18.5789C13.6911 18.3884 13.9495 18.2814 14.2188 18.2814V20.3126C13.9495 20.3126 13.6911 20.2056 13.5007 20.0152C13.3102 19.8247 13.2032 19.5664 13.2032 19.297ZM16.2501 23.3595V17.9279L24.1191 16.4979C24.9586 16.3451 25.8187 16.3451 26.6582 16.4979L34.5313 17.9279V23.3595C34.5313 25.7838 33.5683 28.1087 31.8541 29.8229C30.1399 31.5371 27.8149 32.5001 25.3907 32.5001C22.9664 32.5001 20.6415 31.5371 18.9273 29.8229C17.2131 28.1087 16.2501 25.7838 16.2501 23.3595ZM25.3907 34.5314C26.4211 34.5295 27.4464 34.3857 28.4376 34.1038V37.1578L25.3907 40.2047L22.3438 37.1578V34.0987C23.3345 34.3832 24.3599 34.5289 25.3907 34.5314ZM21.0448 38.731L23.7525 41.4376L21.0367 43.0626L20.2526 38.9727L21.0448 38.731ZM30.4688 49.7658H20.3126C19.5045 49.7658 18.7295 49.4447 18.1581 48.8733C17.5867 48.3019 17.2657 47.527 17.2657 46.7189V39.9142L18.3006 39.5902L19.3162 44.8796C19.3468 45.0406 19.4159 45.1918 19.5176 45.3203C19.6193 45.4488 19.7506 45.5508 19.9003 45.6176C20.05 45.6843 20.2136 45.7139 20.3772 45.7037C20.5408 45.6935 20.6994 45.6439 20.8397 45.559L25.3907 42.825L29.9458 45.558C30.086 45.6428 30.2447 45.6925 30.4083 45.7027C30.5718 45.7129 30.7354 45.6833 30.8851 45.6166C31.0348 45.5498 31.1661 45.4478 31.2678 45.3193C31.3695 45.1908 31.4386 45.0396 31.4692 44.8786L32.4848 39.5892L33.5157 39.9142V46.7189C33.5157 47.527 33.1947 48.3019 32.6233 48.8733C32.0519 49.4447 31.2769 49.7658 30.4688 49.7658ZM58.6016 20.4883C58.276 21.6917 57.6405 22.7887 56.7586 23.6698C55.8766 24.5508 54.779 25.1852 53.5753 25.5096C53.4033 25.5559 53.2465 25.6466 53.1207 25.7726C52.9948 25.8987 52.9043 26.0556 52.8583 26.2276L48.0848 44.0386C48.0388 44.2106 48.0387 44.3917 48.0847 44.5637C48.1307 44.7358 48.2211 44.8927 48.3469 45.0187C49.114 45.7843 49.6956 46.7152 50.0472 47.7403C50.3988 48.7654 50.5111 49.8574 50.3754 50.9326C50.2397 52.0078 49.8597 53.0377 49.2644 53.9432C48.6692 54.8488 47.8745 55.6061 46.9412 56.1571L47.965 52.3363C48.0141 52.1543 48.0116 51.9623 47.9578 51.7817C47.904 51.6011 47.801 51.439 47.6603 51.3136L44.261 48.3002C44.0754 48.1355 43.8358 48.0444 43.5876 48.0443C43.5194 48.0446 43.4514 48.0514 43.3845 48.0646L38.9351 48.9786C38.7505 49.0165 38.58 49.1049 38.4428 49.234C38.3056 49.3632 38.207 49.5279 38.1581 49.7099L37.1354 53.5307C36.6026 52.5871 36.2929 51.534 36.2301 50.4521C36.1673 49.3703 36.353 48.2885 36.773 47.2895C37.193 46.2906 37.8362 45.4011 38.6532 44.6892C39.4702 43.9773 40.4393 43.4619 41.4863 43.1825C41.6583 43.1362 41.8151 43.0455 41.9409 42.9194C42.0668 42.7934 42.1573 42.6365 42.2033 42.4644L46.9768 24.6524C47.0229 24.4804 47.0229 24.2993 46.9769 24.1273C46.9309 23.9553 46.8405 23.7984 46.7148 23.6723C45.9479 22.9066 45.3665 21.9756 45.0151 20.9505C44.6636 19.9254 44.5515 18.8334 44.6873 17.7583C44.8231 16.6831 45.2031 15.6534 45.7984 14.7478C46.3936 13.8422 47.1883 13.085 48.1214 12.534L47.0905 16.3517C47.0416 16.5335 47.0442 16.7253 47.098 16.9058C47.1518 17.0862 47.2547 17.2481 47.3952 17.3734L50.7935 20.3868C50.9113 20.4913 51.0518 20.567 51.204 20.6079C51.3561 20.6488 51.5156 20.6538 51.67 20.6224L56.1205 19.7083C56.3052 19.6704 56.4757 19.5819 56.6129 19.4525C56.7501 19.3232 56.8486 19.1582 56.8974 18.9761L57.9212 15.1563C58.8379 16.7758 59.0822 18.6905 58.6016 20.4883Z" fill="#3F72AF"/>
</svg>
