<svg width="57" height="57" viewBox="0 0 57 57" fill="none" xmlns="http://www.w3.org/2000/svg">
<path d="M53.4556 27.5136C49.6221 27.5136 46.0636 25.6097 43.9368 22.419L43.1738 21.2745L42.4107 22.419C40.2839 25.6097 36.7255 27.5136 32.8919 27.5136H29.417V42.2206C29.417 45.7754 31.0173 49.1164 33.6917 51.3588H14.743V47.6903H26.6656V31.1821H7.40606V38.5191H1.90333V1.83424H42.2567V18.3424H44.0909V0H0.0690918V39.8159L13.4462 53.193H36.5109L43.1738 57L50.9235 52.5721C54.6286 50.4554 56.9306 46.488 56.9306 42.2206V27.5136H53.4556ZM12.9088 50.062L3.20014 40.3533H12.9088V50.062ZM9.2403 38.5191V33.0164H24.8314V45.8561H14.743V38.5191H9.2403ZM55.0964 42.2206C55.0964 45.8322 53.1484 49.188 50.0137 50.98L43.1738 54.8888L36.3339 50.98C33.1992 49.188 31.2512 45.8322 31.2512 42.2206V29.3479H32.8919C36.9089 29.3479 40.6655 27.5457 43.1738 24.4706C45.6821 27.5457 49.4386 29.3479 53.4556 29.3479H55.0964V42.2206Z" fill="#3F72AF"/>
<path d="M51.4281 36.6848V42.2206C51.4281 44.5189 50.1881 46.6548 48.1934 47.7948L49.1031 49.387C51.6683 47.9214 53.2623 45.1755 53.2623 42.2206V36.6848H51.4281Z" fill="#3F72AF"/>
<path d="M5.57202 3.66858V9.17131H38.5884V3.66858H5.57202ZM36.7541 7.33706H7.40626V5.50282H36.7541V7.33706Z" fill="#3F72AF"/>
<path d="M50.7797 31.4508L38.5884 43.6421L35.5683 40.622L34.2715 41.9188L38.5884 46.2357L52.0765 32.7476L50.7797 31.4508Z" fill="#3F72AF"/>
<path d="M22.9973 34.8506H11.0747V36.6848H22.9973V34.8506Z" fill="#3F72AF"/>
<path d="M22.9972 38.5192H16.5774V40.3534H22.9972V38.5192Z" fill="#3F72AF"/>
<path d="M22.9972 42.1875H16.5774V44.0217H22.9972V42.1875Z" fill="#3F72AF"/>
<path d="M34.9199 12.8396H5.57202V14.6738H34.9199V12.8396Z" fill="#3F72AF"/>
<path d="M34.9199 16.5083H5.57202V18.3425H34.9199V16.5083Z" fill="#3F72AF"/>
<path d="M34.9199 20.1765H5.57202V22.0108H34.9199V20.1765Z" fill="#3F72AF"/>
<path d="M22.9973 23.8452H5.57202V25.6795H22.9973V23.8452Z" fill="#3F72AF"/>
<path d="M22.9973 27.5137H5.57202V29.3479H22.9973V27.5137Z" fill="#3F72AF"/>
<path d="M38.5884 12.8396H36.7542V14.6738H38.5884V12.8396Z" fill="#3F72AF"/>
<path d="M38.5884 16.5083H36.7542V18.3425H38.5884V16.5083Z" fill="#3F72AF"/>
<path d="M38.5884 20.1765H36.7542V22.0108H38.5884V20.1765Z" fill="#3F72AF"/>
<path d="M26.6658 23.8452H24.8315V25.6795H26.6658V23.8452Z" fill="#3F72AF"/>
<path d="M26.6658 27.5137H24.8315V29.3479H26.6658V27.5137Z" fill="#3F72AF"/>
</svg>
