<svg xmlns="http://www.w3.org/2000/svg" width="47" height="70" fill="none"><path fill="#fff" d="M42.166 53.122l-11.37-5.508v-1.658c3.138-2.369 6.573-6.692 9.475-14.39 1.54-.06 2.842-.77 3.73-2.014 1.126-1.54 1.304-3.672.534-5.33a4.3 4.3 0 00-2.665-2.31C41.574 8.172 34.585 0 23.096 0S4.68 8.113 4.323 21.853v.059a4.3 4.3 0 00-2.665 2.31c-.77 1.658-.592 3.79.533 5.33.889 1.243 2.191 1.895 3.731 2.013 2.902 7.699 6.337 12.022 9.476 14.391v1.658l-11.37 5.449C1.598 54.247 0 56.734 0 59.458V70h46.193V59.518c0-2.724-1.6-5.212-4.027-6.396zm.237-27.953c.414.889.296 2.132-.296 2.961-.178.296-.533.593-.948.77.355-1.421.592-3.08.71-4.5.178.236.356.473.534.77zM23.096 2.37c10.187 0 16.168 7.166 16.405 19.662-6.87 1.54-12.733-1.481-17.885-4.146-4.323-2.25-8.054-4.205-11.548-2.902-1.066.415-2.014 1.066-2.902 2.073C8.706 7.641 14.332 2.37 23.096 2.37zM4.086 28.13c-.592-.829-.71-2.072-.296-2.96.119-.297.356-.534.592-.712.119 1.659.415 3.14.77 4.501a2.178 2.178 0 01-1.066-.829zm3.79 1.836c-.592-2.132-1.184-4.323-1.184-7.106v-.533c1.244-2.843 2.606-4.56 4.205-5.153 2.487-.947 5.804.77 9.653 2.784 4.264 2.19 9.298 4.856 15.16 4.856 1.185 0 2.429-.119 3.732-.355-.178 1.776-.533 4.027-1.066 5.507-5.33 14.865-12.437 16.464-15.28 16.464-2.783 0-9.89-1.6-15.22-16.464zM23.096 48.8c1.244 0 3.14-.237 5.33-1.362v1.302l-3.908 3.731-.06.06c-.71.77-2.013.77-2.724 0l-3.968-3.79v-1.303c2.192 1.125 4.087 1.362 5.33 1.362zM10.068 67.63v-1.776h-2.37v1.776h-5.33v-8.113a4.747 4.747 0 012.666-4.264l10.66-5.152 4.264 4.086c.177.237.414.414.651.533l-1.54 12.91h-9.001zm11.43 0l1.48-12.14h.237l1.48 12.14h-3.198zm22.326 0h-5.33v-1.776h-2.369v1.776h-9.002l-1.599-12.91c.237-.178.474-.355.652-.533L30.44 50.1l10.66 5.153c1.658.77 2.665 2.487 2.665 4.264v8.113h.059z"/></svg>