<svg width="89" height="88" fill="none" xmlns="http://www.w3.org/2000/svg"><path fill-rule="evenodd" clip-rule="evenodd" d="M86.249 55.727c-4.351-4.47-24.982-17.109-31.553-21.549L15.24 61.913l10.655.385 28.8-19.329L77.104 57.68l-.178.592c-5.624 18.944-40.966 33.862-61.715 6.72C1.091 46.55 9.26 9.787 43.922 8.071L44.336.02C8.876-1.075-13.65 42.318 9.29 70.882c8.436 10.478 23.65 20.305 44.46 16.131 14.237-2.841 31.08-17.02 32.5-31.286z" fill="#53669D"/><path fill-rule="evenodd" clip-rule="evenodd" d="M47.533 54.839h5.18v5.18h-5.18v-5.18zm7.429 0h5.18v5.18h-5.18v-5.18zm-7.429 7.252h5.18v5.15h-5.18v-5.15zm7.429 0h5.18v5.15h-5.18v-5.15zM15.358 47.705l9.915.385 29.748-18.766 33.3 21.016.088-7.578-34.454-22.584L35.812 32.55v-4.943h-9.294v11.9l-11.16 8.198z" fill="#2FA3E0"/></svg>