<svg version="1.0" xmlns="http://www.w3.org/2000/svg" width="949.333" height="949.333" viewBox="0 0 712 712"><path d="M321.7 4.6c-.1.1-3.1.5-6.7.8-16.9 1.4-26 2.9-45.5 7.1-1.1.3-6.9 1.9-13 3.5-6 1.7-11.7 3.3-12.5 3.5-9.4 2.6-32.5 12.1-46.5 19.2-6 3.1-12 6.1-13.2 6.7-1.3.6-2.3 1.5-2.3 1.9 0 .5-.4.5-1 .2-.5-.3-1-.1-1 .5s-.4.8-1 .5c-.5-.3-1-.1-1 .4 0 .6-.5 1.1-1 1.1-2 0-39.1 25.5-42 28.9-.3.3-3.4 3-7 6-7.8 6.6-31.5 30.3-38.5 38.5-2.8 3.2-5.5 6.4-6 7-2.6 2.8-19.9 26.3-20.8 28.3-.6 1.3-1.4 2.3-1.9 2.3-.4 0-.8.5-.8 1.1 0 .6-1.3 2.9-2.9 5.2-8.4 12.4-23.9 42.7-30.5 59.7-2.1 5.2-4.1 10.4-4.6 11.5-2.7 6-10 30.6-12.6 42.4-.2 1.2-1.1 5.1-1.9 8.5-.8 3.4-1.7 7.9-2 10.1-.3 2.2-.8 4.9-1 6.1-.6 2.9-1.8 11.9-3.2 24.9-1.5 14.6-.8 57.6 1.2 72 .9 6.1 1.5 10.4 2.1 14.2.3 2.1 1.4 8.1 2.5 13.3 1.1 5.2 2.2 10.2 2.4 11 .1.8.9 3.5 1.6 6 .7 2.5 1.3 4.7 1.4 5 0 .3 1.1 3.8 2.3 7.7 1.2 4 2.3 7.5 2.3 7.8 0 .3.8 2.5 1.9 5 1.1 2.5 1.9 4.6 1.9 4.8-.2 1.6 10.4 25.5 16.6 37.4 5.6 10.5 16.2 28.7 18.7 31.8.4.5 4 5.5 7.9 11 4 5.5 7.4 10.2 7.8 10.5.3.3 1.9 2.3 3.5 4.4 8.5 11.4 31.2 34.8 47.7 49.1 11.4 9.9 34.9 27.5 36.8 27.5.5 0 1.1.4 1.3.8.5 1.3 22.7 14.5 34.3 20.4 6.1 3.1 15.7 7.6 21.5 10 12.6 5.4 14.2 6 15.5 6.4.6.2 6.6 2.1 13.5 4.4 15.3 5 17.8 5.8 21 6.4 1.4.3 4.5 1 7 1.6 9 2.1 22.8 4.7 29.5 5.5 2.2.2 5.6.7 7.5 1 17.8 2.7 65.3 2.7 85.2 0 2.4-.4 5.9-.8 7.8-1 6-.7 15.5-2.2 15.5-2.5 0-.1.9-.3 2-.5 8-1.2 10.5-1.6 14-2.5 5-1.3 7.5-1.9 10-2.4 1.1-.3 4.9-1.4 8.5-2.6 3.6-1.2 7.2-2.3 8-2.5 2.1-.5 12.9-4.4 16.7-6.1 1.7-.8 3.3-1.4 3.6-1.4.2 0 3.1-1.2 6.3-2.6 3.3-1.4 6.1-2.7 6.4-2.7.9-.3 20.7-10.5 26.6-13.8 9.3-5.1 9.7-5.4 10.8-6.2.6-.4 5.2-3.3 10.1-6.4 8.1-5.1 35.9-25.3 41.1-29.9 1.2-1.1 5.2-4.6 8.9-7.9 31.2-27.4 58.2-61 75.3-93.7 2.8-5.4 4.8-9.8 4.4-9.8-.4 0-.2-.4.3-.8 1-.7 6.5-13.9 6.5-15.5 0-.4.7-2.1 1.6-3.8.8-1.7 1.7-3.8 2-4.7.2-1 1.5-6.2 2.9-11.6 1.3-5.5 2.7-11.8 3-14 .4-2.3.8-5.5 1.1-7.3.4-2.8-.1-3.8-4.6-8.2-2.8-2.8-5.5-5.1-6-5.1s-1.3-.6-1.7-1.3c-.7-1.2-30.9-24-38.3-29-1.4-.9-7.4-5.1-13.5-9.2-26.6-18.4-92.2-61.5-93.5-61.5-.4 0-1-.3-1.2-.8-.1-.4-8.4-5.9-18.3-12.2-9.9-6.3-18.1-11.8-18.3-12.2-.2-.4-.8-.8-1.3-.8s-5-2.7-9.9-6-9.4-6-10-6c-.5 0-1-.5-1-1 0-.6-.7-1-1.5-1s-1.5-.4-1.5-.9-.8-1.1-1.7-1.5c-1.9-.6-5.4-2.7-6.3-3.7-2.1-2.3-23.3-15-24.4-14.6-.8.3-6.9 4.5-13.7 9.4-6.8 4.9-17.6 12.5-23.9 16.8-6.3 4.4-11.9 8.3-12.5 8.8-1 .8-9 6.4-23 16.2-3.8 2.6-7.2 5.1-7.5 5.5-.3.4-1.5 1.2-2.7 1.9-1.2.6-5.7 3.6-10 6.7-4.3 3-8.7 6.2-9.8 7-1.1.8-8.5 6-16.5 11.6s-14.6 10.5-14.8 11c-.2.4-.8.8-1.4.8-.6 0-2.7 1.2-4.7 2.7-2 1.6-4.9 3.7-6.6 4.9-1.6 1.1-6.4 4.4-10.5 7.2-4.1 2.9-8.3 5.8-9.3 6.4-1.1.7-3.1 2.3-4.5 3.5-1.5 1.3-3 2.3-3.4 2.3-.4 0-1.3.6-2 1.2a34 34 0 01-3 2.3c-4.8 3-28.4 20-28.6 20.7-.2.4-.8.8-1.2.8-.9 0-21.1 13.9-26 17.9-1.4 1.2-3 2.1-3.7 2.1-.6 0-1.3.4-1.5.8-.1.5-2.5 2.4-5.3 4.4-25.6 17.7-39.1 27.4-39.3 28-.2.4-.8.8-1.3.8-.6 0-1.5.4-2.2 1-1.7 1.4-10.5 7.7-18.2 13-3.5 2.5-6.5 4.7-6.5 5 0 .3 3.5.6 7.8.7 12.6.3 62.7 2.1 71.2 2.6 4.3.3 5.7-.5 32.5-18.3 15.4-10.2 28.2-18.7 28.5-19 .3-.3 6.1-4.2 13-8.7 6.9-4.5 13.2-8.9 14.1-9.8.9-.8 1.8-1.5 2.2-1.5.5 0 25.5-16.6 28.2-18.7 1.2-1 12.4-8.4 14.7-9.8 2.7-1.6 43.3-28.9 43.8-29.5.9-.9 6.9-5 7.3-5 .3 0 5.1-3.1 10.8-7 5.7-3.8 11.1-7.4 11.9-8 .8-.5 4.7-3.2 8.7-6 4-2.7 7.7-5 8.2-5 .5 0 1.1-.4 1.3-.9.2-.4 2.5-2.2 5.3-3.9l5-3.1 4.7 2.6c2.7 1.4 4.8 3 4.8 3.5 0 .4.5.8 1 .8 1.2 0 7.3 4.1 7.8 5.2.2.5.8.8 1.3.8s10.4 6.3 22 14 21.5 14 22 14 .9.4.9.8c0 .5 1 1.4 2.3 2.1 3.3 1.8 4.9 2.8 21.2 13.5 33.4 22 41.1 27.1 42.6 28.1 3.3 2.1 8.5 5.5 9.9 6.5.8.5 9.9 6.5 20.2 13.3l18.8 12.2-3.9 11c-8.6 24.5-19.4 42.8-39 66-6.5 7.6-23.6 24.1-32.6 31.4-8.8 7.1-33.8 24.4-37.9 26.2-2.3 1-5.8 3.1-6.6 3.9-2.4 2.5-47.4 22-50.8 22-.7 0-2 .4-3 1-1.7.9-20.2 6.4-25.2 7.4-1.4.3-3.6.7-5 1-11.5 2.5-15 3.1-22 4-2.5.3-5.5.8-6.8 1.1-11.9 2.3-49.1 2.3-68.2 0-8.8-1.1-25.2-4.1-29.8-5.4-1.8-.5-3.5-1-3.7-1-11.5-1.1-52.7-17.8-70-28.4-1.1-.7-3.9-2.4-6.2-4-2.3-1.5-4.6-2.7-5.2-2.7-.6 0-1.1-.5-1.1-1 0-.6-.7-1-1.5-1s-1.5-.5-1.5-1c0-.6-.7-1-1.5-1s-1.5-.4-1.5-.8c0-.5-1-1.4-2.2-2-2.9-1.3-20.1-15-27-21.3-8.2-7.6-20.7-20.2-24.8-24.9-7.6-8.9-9-10.4-10.8-12.5-2.2-2.5-10.2-12.8-12.2-15.9-.8-1.2-3.2-4.8-5.3-7.9-7.5-11.2-19-33.1-18-34.1.4-.3.1-.6-.5-.6-.7 0-1.2-.6-1.2-1.4 0-.7-1.1-3.9-2.5-6.9-3.1-7.1-7.7-20.9-10.5-31.2-1.1-4.4-2.3-8.9-2.6-10-.3-1.1-.7-3.1-.9-4.5-.2-1.4-.8-4.8-1.3-7.5-1.6-7.8-2.7-15.7-3.9-27.5-1.5-15-.7-56.9 1.3-67.4.2-1.1.6-3.8.9-6.1.9-6.3 4.3-23.4 6-30 .9-3.3 1.8-7 2-8.1.9-3.9 8.6-25.8 12.1-34.2 3-7.3 12.8-27.2 15.4-31.2.5-.8 3.2-5.3 6.1-10 15.1-24.9 35.4-47.7 60-67.6 8.9-7.2 31.9-22.7 31.9-21.6 0 .4.4.2.8-.4.9-1.4 25-13.7 26.8-13.7.8 0 1.4-.3 1.4-.6 0-.6 5.1-3.1 7.3-3.5.6-.2 2.4-.8 3.8-1.4 10.2-4.2 33.7-11.3 44.9-13.6 12-2.5 17.6-3.6 21.3-4 2.3-.3 6-.8 8.2-1.1 2.2-.3 5.4-.7 7.1-1 1.7-.2 7.1-.7 12-1 12.8-.8 12-.2 12-9.5-.1-4.4.1-8 .4-8 .3 0 .5-2.4.6-5.3.1-2.8.5-12 .9-20.2.5-8.3.9-16.6.9-18.5l.1-3.5h-16.3c-8.9-.1-16.4 0-16.5.1z"/><path d="M427.9 167.8c-1.3 1-6.7 4.8-11.9 8.3-5.2 3.5-9.7 6.6-10 6.9-.3.3-1.3.9-2.2 1.5-4.6 2.8-28 18.8-29.3 20.1-.8.9-1.5 1.2-1.5.7 0-.4-.4-.3-.8.2-.4.6-5 3.9-10.2 7.5-5.2 3.5-13.5 9.2-18.5 12.5-13.5 9.3-23.8 16.4-25.5 17.5-.8.5-4.8 3.2-8.8 6-4.1 2.7-7.7 5-8.2 5-.5 0-1 .4-1.2.8-.3.8-12.3 9.2-13 9.2-.2 0-.3-8.8-.3-19.5l.1-19.5-17.6-.1c-9.6 0-26.3-.1-37-.1h-19.5l-.1 13.1c-.1 7.2-.4 13.7-.7 14.5-.3.8-.3 1.7 0 2 .9.9 1 5.5.2 9.8-.3 2.1-.4 3.8 0 3.8.5 0 .6 26.7.1 35.5-.1 1.1 0 4.5.1 7.5.3 6.7-.7 11-2.5 11-.8 0-1.6.4-1.8.8-.1.4-5.2 4.4-11.3 8.7-11.1 8.1-26.7 19.6-29.5 21.8-.8.7-3.7 2.8-6.5 4.7-5.9 4.2-6.3 4.5-9.5 7.1-1.4 1.1-3.7 2.8-5.2 3.7-1.6.9-2.8 2-2.8 2.4 0 .4-.5.8-1.1.8-.6 0-1.6.6-2.4 1.2-.7.7-4.5 3.5-8.4 6.3-3.8 2.7-7 5.3-7 5.7-.1.4.9.7 2.1.7 1.3-.1 9.2.2 17.6.5 18.6.8 42.2 1.7 51.7 2 6.8.2 7.2.1 15-4.8 4.4-2.8 8.2-5.4 8.3-5.8.2-.5.8-.8 1.3-.8.6 0 3.6-1.7 6.7-3.8 3.2-2.1 6.4-4.1 7.2-4.5.8-.4 6.7-4.1 13-8.2s13.6-8.7 16.3-10.1c2.6-1.5 4.7-3.1 4.7-3.6 0-.4.3-.7.8-.6.4.1 4.5-2.3 9.1-5.2 8.4-5.4 17.3-11.1 36.1-22.8 28.8-18 48.7-30.6 50.1-31.8.9-.8 1.9-1.1 2.2-.7.4.3.7.1.7-.5 0-.7.5-1.2 1-1.2.6 0 1.6-.5 2.3-1.1.7-.5 3.9-2.7 7.2-4.8 3.3-2 11.1-7 17.3-10.9 6.2-4 11.7-7.2 12.2-7.2.4 0 1-.3 1.2-.8.4-.8 31.1-20.2 32.1-20.2.6 0 23.5 14.3 39.2 24.5 2.8 1.8 6 3.8 7.3 4.4 1.3.7 3.2 2 4.3 2.9 1.1.9 2.2 1.5 2.6 1.4.3-.2.9 0 1.2.5 1 1.3 12 8.3 13.1 8.3.5 0 1 .4 1 1 0 .5.7 1 1.5 1s1.5.4 1.5 1c0 .5.5 1 1 1 .6 0 4.2 2 8 4.5 12.3 7.9 20.1 12.9 40.3 25.6 10.8 6.8 28.4 17.9 39 24.7 10.5 6.7 20.3 12.8 21.7 13.4 1.4.7 2.7 1.5 3 1.8.3.4 6.8 4.6 14.5 9.4 7.7 4.8 18.9 11.9 24.8 15.7 6 3.8 11.1 6.9 11.3 6.9.3 0 1 .5 1.7 1 1.6 1.3 16.7 11 17.1 11 .3 0 2.8 1.6 5.7 3.5 3 1.9 5.6 3.5 6 3.5.4 0 .7-5.3.7-11.8 0-6.4.1-20 .2-30 .1-10.1 0-18.5-.2-18.6-.2-.1-2.1-1.3-4.3-2.6-2.2-1.3-4.2-2.7-4.5-3-.3-.3-3.6-2.6-7.5-4.9-3.8-2.4-7.1-4.8-7.3-5.3-.2-.4-.8-.8-1.2-.8-.5 0-12-7.3-25.7-16.3-13.6-9-28.2-18.5-32.3-21.2-23.7-15.4-34.6-22.6-35.5-23.2-1.5-1.2-54.2-35.6-56.2-36.8-1-.6-2-1.2-2.3-1.5-.3-.3-7-4.8-15-10s-14.6-9.8-14.8-10.2c-.2-.4-.8-.8-1.3-.8s-5-2.7-9.9-6-9.4-6-9.9-6-1.1-.4-1.3-.9c-.1-.4-4.8-3.7-10.3-7.2-5.5-3.5-10.1-6.7-10.3-7.1-.2-.5-1-.8-1.8-.8s-1.4-.3-1.4-.8c0-.4-2-1.8-4.5-3.2-2.5-1.4-4.5-2.8-4.5-3.2 0-.5-.5-.8-1-.8-.6 0-3.4-1.6-6.3-3.5-6-4-6.6-4.1-9.8-1.7zm-44 275l-3.6.3v20.5c0 17.9.2 20.4 1.6 20.5 1.9.1 35.9.1 38.2 0 1.3-.1 1.5-2.7 1.6-20.6 0-11.3-.3-20.5-.6-20.6-2-.2-34.2-.3-37.2-.1zm56 .7c-.5 4.9-.3 38.9.2 39.7.5.8 26.7 1.4 39.7.9.9-.1 1.2-4.9 1.2-20.6 0-18.8-.1-20.5-1.7-20.6-11.1-.6-39.3-.2-39.4.6zm-56.5 57.3l-3.2.3.2 20.2.1 20.2h41l.1-20.3.2-20.2-3.2-.1c-12.2-.3-32.6-.3-35.2-.1zm57.3.2c-.9.4-1.2 5.8-1.2 20.7 0 11 .3 19.9.7 19.7.4-.2.9 0 1.3.5.3.6 1.5.7 2.9.1 1.2-.4 2.9-.4 3.6 0 .9.5 1.9.5 2.7-.1.8-.7 1.8-.7 3 0 1.1.5 2.5.6 3.3.1.8-.5 1.7-.7 2-.5.7.4 3.6.5 15.3.5l6.7.1v-20.6c0-18.8-.1-20.5-1.7-20.6-10.4-.3-37.7-.3-38.6.1z"/></svg>