<svg width="40" height="40" fill="none" xmlns="http://www.w3.org/2000/svg"><path fill-rule="evenodd" clip-rule="evenodd" d="M35 2.5H5A2.5 2.5 0 002.5 5v28.965l5-5a5 5 0 013.535-1.465H35a2.5 2.5 0 002.5-2.5V5A2.5 2.5 0 0035 2.5zM5 0a5 5 0 00-5 5v31.983a1.25 1.25 0 002.135.882l7.133-7.133A2.5 2.5 0 0111.034 30H35a5 5 0 005-5V5a5 5 0 00-5-5H5z" fill="#999" fill-opacity=".2"/><path fill-rule="evenodd" clip-rule="evenodd" d="M17.665 11.9A4.163 4.163 0 0010 14.17a4.167 4.167 0 006.403 3.516c-.328.972-.938 2.01-1.943 3.05a1.043 1.043 0 101.5 1.45c3.715-3.85 3.233-8.035 1.705-10.28V11.9zm10 0A4.163 4.163 0 0020 14.17a4.167 4.167 0 006.403 3.516c-.328.972-.938 2.01-1.943 3.05a1.043 1.043 0 101.5 1.45c3.715-3.85 3.233-8.035 1.705-10.28V11.9z" fill="#999" fill-opacity=".2"/></svg>