<svg width="150" height="38" fill="none" xmlns="http://www.w3.org/2000/svg"><path d="M0 18.293c0 10.122 8.17 18.292 18.293 18.292 10.122 0 18.292-8.17 18.292-18.292C36.585 8.17 28.415 0 18.293 0 8.17 0 0 8.17 0 18.293zm6.341 0c0-6.342 4.878-11.464 11.098-11.952v6.342c-2.683.366-4.756 2.683-4.756 5.488a5.595 5.595 0 005.61 5.61c3.17 0 5.61-2.44 5.61-5.61 0-2.805-2.074-5.122-4.757-5.488V6.34c6.22.366 11.098 5.61 11.098 11.952 0 6.585-5.366 11.95-11.951 11.95-6.586 0-11.952-5.365-11.952-11.95zM15.854 3.17A2.446 2.446 0 0118.293.73a2.446 2.446 0 012.439 2.44 2.446 2.446 0 01-2.44 2.439 2.446 2.446 0 01-2.438-2.44zM48.78 22.317h-5.244c-.854 0-1.342-.488-1.342-1.341v-5.244c0-.976.488-1.342 1.342-1.342h5.243c.854 0 1.342.488 1.342 1.342v5.244c0 .853-.488 1.341-1.342 1.341zm4.512-6.83c0-2.926-1.464-4.39-4.269-4.39h-5.731c-2.927 0-4.269 1.464-4.269 4.39v5.489c0 2.927 1.464 4.39 4.269 4.39h5.731c2.805 0 4.269-1.463 4.269-4.39v-5.488zm15.855-4.389H54.88v3.17h5.61v11.22h3.17v-11.22h5.488v-3.17zm15.973 4.39c0-2.805-1.34-4.268-4.024-4.268H70.731v3.17h9.756c.975 0 1.463.366 1.463 1.22s-.488 1.22-1.463 1.22H76.34V20h4.147c.975 0 1.463.366 1.463 1.22 0 .853-.488 1.22-1.463 1.22H70.73v3.17h9.756c3.048 0 4.634-1.22 4.634-3.78 0-1.22-.244-2.44-.854-3.293.61-1.22.854-2.195.854-3.049zm11.343 6.829H91.22c-.853 0-1.341-.488-1.341-1.341v-5.244c0-.976.488-1.342 1.341-1.342h5.244c.854 0 1.342.488 1.342 1.342v5.244c0 .853-.488 1.341-1.342 1.341zm4.512-6.83c0-2.926-1.463-4.39-4.268-4.39h-5.732c-2.926 0-4.268 1.464-4.268 4.39v5.489c0 2.927 1.463 4.39 4.268 4.39h5.732c2.805 0 4.268-1.463 4.268-4.39v-5.488zm12.806 5.611c0-.854-.488-1.22-1.341-1.22h-6.586v2.44h6.586c.853 0 1.341-.489 1.341-1.22zm0-5.61c0-.854-.488-1.22-1.341-1.22h-6.586v2.44h6.586c.853 0 1.341-.366 1.341-1.22zm3.171 5.61c0 2.927-1.464 4.268-4.268 4.268h-10V11.098h10c2.804 0 4.268 1.463 4.268 4.268 0 1.341-.366 2.317-.854 2.805.488.732.854 1.707.854 2.927zm15.851 4.39h-3.17v-10l-7.927 10h-3.171v-14.39h3.171v10l7.927-10h3.17v14.39zm10.49-7.195l5.732-7.195h-3.659l-4.512 5.61h-3.293v-5.61h-3.17v14.39h3.17v-5.61h3.293l4.512 5.61h3.659l-5.732-7.195z" fill="#B74746"/></svg>