<svg width="100" height="29" fill="none" xmlns="http://www.w3.org/2000/svg"><g clip-path="url(#clip0)" fill="#FF4E00"><path d="M34.206 0h31.087v27.59H56.67V6.866H42.82v20.726h-8.616V0h.001zM91.26 11.86V8.74s.016-.377-.123-.688a2.93 2.93 0 00-.06-.123 1.881 1.881 0 00-.702-.781 1.397 1.397 0 00-.411-.192c-.186-.06-.38-.09-.575-.09H77.4V27.59h-8.612V0h25.219l-1.625 5.18 7.49 1.01v8.999l-7.678-1.395 1.81 6.805H77.402v-6.866H89.39a1.872 1.872 0 001.87-1.873z"/><path d="M91.26 13.733v6.866h3.01a5.618 5.618 0 005.616-5.617v-1.25H91.26zm0-6.867V0h3.01a5.618 5.618 0 015.616 5.618v1.248H91.26zM10.49 20.599h10.117a1.872 1.872 0 001.86-1.747h.004v-.874h8.615v2.747l-4.994 2.87-1.123 3.995H5.694l-.888-3.308L0 22.097V6.103L5.696 0h20.129v4.556l5.26.874v4.182H22.47V8.74a1.874 1.874 0 00-1.87-1.874H10.544v.001h-.058a1.873 1.873 0 00-1.865 2.03l-.007.008v9.825a1.873 1.873 0 001.872 1.869h.004z"/><path d="M8.626 6.866V0H5.618A5.618 5.618 0 000 5.618v1.248h8.626zm0 13.859v6.865H5.618A5.618 5.618 0 010 21.973v-1.248h8.626zm13.845 0v6.865h3.01a5.617 5.617 0 005.616-5.617v-1.248h-8.626zm0-13.86V0h3.01a5.618 5.618 0 015.616 5.618v1.248h-8.626z"/></g><defs><clipPath id="clip0"><path fill="#fff" d="M0 0h100v28.767H0z"/></clipPath></defs></svg>