<svg width="100" height="94" fill="none" xmlns="http://www.w3.org/2000/svg"><g clip-path="url(#clip0)"><path fill-rule="evenodd" clip-rule="evenodd" d="M95.947 93.235c5.993 1.72-1.717-19.65-1.717-19.65 3.434-10.267 6.834-45.317 4.7-56C96.797 6.898 88.797 7.268 74.097 4.345 59.134 1.345 21.5-.372 13.334.068 5.217.492-.75 6.035.084 17.168c.856 11.1 13.876 52.467 20.333 62.734 6.433 10.266 15.943 8.473 21.617 7.786 7.78-.96 37.066-7.786 37.066-7.786-2.62-3.367 10.854 11.613 16.844 13.333h.003zm-39.28-64.6l5.213-11.08h15.6L60.427 50.028v19.134h-17.9V50.028l-9.533-18.153-7.544-14.32h15.6l10.414 22.083 5.203-11.003z" fill="#ED484A"/></g><defs><clipPath id="clip0"><path fill="#fff" d="M0 0h100v93.333H0z"/></clipPath></defs></svg>