<svg width="100" height="26" fill="none" xmlns="http://www.w3.org/2000/svg"><g clip-path="url(#clip0)"><path d="M.878 1.608h20.825c.485 0 .878.393.878.878V6.58c0 .545-.237 1.062-.65 1.42l-11.644 9.741h11.415c.485 0 .879.386.879.871v4.701a.878.878 0 01-.878.878H.878A.878.878 0 010 23.314v-4.088c0-.546.237-1.062.649-1.42l11.645-9.741H.878A.886.886 0 010 7.178V2.486c0-.485.393-.878.878-.878zM37.097.807c2.408 0 4.554.541 6.346 1.53 1.793.99 3.23 2.428 4.22 4.22.99 1.792 1.53 3.939 1.53 6.346 0 2.408-.54 4.555-1.53 6.347a10.668 10.668 0 01-4.22 4.22c-1.792.989-3.938 1.53-6.346 1.53s-4.555-.541-6.347-1.53a10.668 10.668 0 01-4.219-4.22C25.541 17.458 25 15.311 25 12.903c0-2.407.541-4.554 1.531-6.346a10.668 10.668 0 014.22-4.22c1.791-.989 3.938-1.53 6.346-1.53zm0 6.451c-1.152 0-2.163.244-3 .696a4.772 4.772 0 00-1.95 1.95c-.452.836-.695 1.848-.695 3 0 1.151.243 2.162.695 2.999a4.772 4.772 0 001.95 1.95c.837.452 1.848.696 3 .696s2.163-.244 3-.696a4.771 4.771 0 001.95-1.95c.452-.837.695-1.848.695-3 0-1.151-.243-2.163-.696-2.999a4.77 4.77 0 00-1.95-1.95c-.836-.452-1.847-.696-3-.696zM62.903.807c2.408 0 4.555.541 6.347 1.53 1.792.99 3.23 2.428 4.219 4.22.99 1.792 1.531 3.939 1.531 6.346 0 2.408-.541 4.555-1.531 6.347a10.668 10.668 0 01-4.22 4.22c-1.791.989-3.938 1.53-6.346 1.53s-4.554-.541-6.346-1.53a10.668 10.668 0 01-4.22-4.22c-.99-1.792-1.53-3.939-1.53-6.347 0-2.407.54-4.554 1.53-6.346a10.668 10.668 0 014.22-4.22c1.792-.989 3.938-1.53 6.346-1.53zm0 6.451c-1.152 0-2.163.244-3 .696a4.77 4.77 0 00-1.95 1.95c-.452.836-.695 1.848-.695 3 0 1.151.243 2.162.696 2.999a4.771 4.771 0 001.95 1.95c.836.452 1.847.696 3 .696 1.151 0 2.162-.244 2.998-.696a4.772 4.772 0 001.95-1.95c.453-.837.696-1.848.696-3 0-1.151-.243-2.163-.695-2.999a4.772 4.772 0 00-1.95-1.95c-.837-.452-1.848-.696-3-.696zm37.1-4.77v20.826a.878.878 0 01-.878.878h-4.093a1.877 1.877 0 01-1.42-.648L83.872 11.9v11.414a.886.886 0 01-.887.878h-4.69a.878.878 0 01-.877-.878V2.489c0-.485.393-.879.878-.879h4.092c.546 0 1.062.237 1.42.65l9.741 11.647V2.49c0-.485.386-.879.871-.879h4.706c.485 0 .878.394.878.879z" fill="url(#paint0_linear)"/></g><defs><linearGradient id="paint0_linear" x1="77.345" y1="12.903" x2="21.812" y2="12.903" gradientUnits="userSpaceOnUse"><stop stop-color="#6339F5"/><stop offset="1" stop-color="#3D3F55"/></linearGradient><clipPath id="clip0"><path fill="#fff" d="M0 0h100v25.806H0z"/></clipPath></defs></svg>