<svg width="150" height="59" viewBox="0 0 150 59" fill="none" xmlns="http://www.w3.org/2000/svg">
<path fill-rule="evenodd" clip-rule="evenodd" d="M125.291 58.7916V30.5624H108.813V58.7916H125.291ZM125.291 28.2292H108.813V0H125.291V28.2292ZM146.478 30.5832C148.645 33.6668 150 37.3749 150 41.1456C150 50.8533 142.063 58.7916 132.353 58.7916H127.646V30.5624L146.478 30.5832ZM127.646 28.2292L144.375 28.2709C142.875 26.8751 140.833 25.5209 138.853 24.7921C142.937 22.4173 145.582 18.0004 145.582 13.2291C145.582 6.00038 139.584 0 132.353 0H127.646V28.2292ZM79.3961 58.7916H62.9583V30.5624H79.3961V58.7916ZM79.3961 28.2292H62.9583V0H79.3961V28.2292ZM81.75 58.7916V30.5624L100.583 30.5832C102.749 33.6668 104.104 37.3749 104.104 41.1456C104.104 50.8533 96.1665 58.7916 86.4588 58.7916H81.75ZM81.75 28.2292V0H86.4588C93.6875 0 99.7079 5.99958 99.7079 13.2291C99.7079 18.0004 97.0412 22.4165 92.9571 24.7921C94.9366 25.5209 96.9787 26.8751 98.4788 28.2709L81.75 28.2292ZM28.2501 28.2292H10.7083L20.5836 0.000801321H28.2501V28.2292ZM48.125 28.2292L38.2296 0H30.6049V28.2284H48.125V28.2292ZM58.8333 58.7916H44.125L40.0207 47.0418H30.604V30.5624H48.9588L58.8333 58.7916ZM0 58.7916H14.7091L18.8342 47.0418H28.2509V30.5624H9.89615L0 58.7916Z" fill="#CC2229"/>
</svg>
