<svg width="150" height="28" viewBox="0 0 150 28" fill="none" xmlns="http://www.w3.org/2000/svg">
<path fill-rule="evenodd" clip-rule="evenodd" d="M22.8002 11.8478V2.79964C20.5728 1.98546 18.2195 1.56931 15.8479 1.57021C6.66167 1.57021 0 6.9991 0 14.408C0 18.6765 2.15151 22.2612 6.12379 24.6856C8.81318 26.3248 12.124 27.218 15.7243 27.218C18.0417 27.218 20.318 26.8427 22.6755 26.0509L23.0074 16.8669C20.6487 18.3001 18.6208 19.1197 16.4281 19.1197C12.9525 19.1197 10.8422 17.2076 10.8422 14.408C10.8422 11.438 13.2008 9.5593 16.6352 9.5593C18.8692 9.56042 20.8547 10.3121 22.8002 11.8478ZM36.0824 15.5695C36.2895 14.2387 37.1169 13.5906 38.3998 13.5906C39.8475 13.5906 40.5524 14.2053 40.6749 15.5695H36.0824ZM50.399 19.3257C50.4403 19.0195 50.4402 18.711 50.4402 18.4037C50.4402 12.7365 45.3098 8.77532 38.1515 8.77532C30.992 8.77532 25.9451 12.9403 25.9451 17.9939C25.9451 23.0463 31.0343 27.218 38.1515 27.218C44.0681 27.218 48.2464 24.9929 49.7788 21.3737L40.3854 20.8614C39.9299 21.749 39.2261 22.1933 38.3163 22.1933C36.7439 22.1933 35.9988 21.338 35.9988 19.5975V19.3246H50.399V19.3257ZM53.5873 26.5643H63.7658V19.7355C63.7658 17.6186 65.2558 16.4236 67.8216 16.4236C68.649 16.4236 69.6012 16.6954 70.6769 17.1742V8.80873C70.4275 8.77532 70.1803 8.77532 69.9319 8.77532C67.2425 8.77532 65.0899 9.79874 63.4351 11.7453V9.32099H53.5873V26.5643ZM82.9657 15.5695C83.1728 14.2387 84.0003 13.5906 85.2832 13.5906C86.7309 13.5906 87.4358 14.2053 87.5594 15.5695H82.9657ZM97.2824 19.3257C97.3236 19.0195 97.3236 18.711 97.3236 18.4037C97.3236 12.7365 92.1932 8.77532 85.0348 8.77532C77.8754 8.77532 72.8273 12.9403 72.8273 17.9939C72.8273 23.0463 77.9166 27.218 85.0348 27.218C90.9515 27.218 95.1298 24.9929 96.661 21.3737L87.2687 20.8614C86.8133 21.749 86.1095 22.1933 85.1996 22.1933C83.6272 22.1933 82.8822 21.338 82.8822 19.5975V19.3246H97.2824V19.3257ZM98.2769 25.3348C101.336 26.5877 104.612 27.2275 107.917 27.218C114.373 27.218 118.221 24.3103 118.221 20.6554C118.221 18.0952 116.276 16.6609 112.305 15.8758C110.194 15.4659 109.034 15.398 109.034 14.6463C109.034 14.134 109.615 13.7576 110.566 13.7576C111.683 13.7576 113.214 14.3044 115.076 15.329L117.559 10.1384C115.199 9.25083 112.428 8.77309 109.572 8.77309C103.49 8.77309 99.6822 11.4703 99.6822 14.9192C99.6822 17.5139 101.503 19.0841 105.31 19.8024C107.007 20.1086 108.082 20.1086 108.082 20.9293C108.082 21.5441 107.503 21.9194 106.429 21.9194C105.146 21.9194 103.283 21.3046 100.966 20.0073L98.2769 25.3348ZM120.869 26.5643H131.007V9.32099H120.869V26.5643ZM131.42 3.96003C131.42 1.5702 129.435 0 125.959 0C122.482 0 120.457 1.5702 120.457 3.96003C120.457 6.34985 122.524 7.99022 125.959 7.99022C129.394 7.99022 131.42 6.35097 131.42 3.96003ZM136.966 26.5643H147.103V15.672H150V9.32099H147.103V3.61926H136.966V9.32099H134.111V15.672H136.966V26.5643Z" fill="black"/>
</svg>
