<svg width="102" height="40" viewBox="0 0 102 40" fill="none" xmlns="http://www.w3.org/2000/svg">
<path fill-rule="evenodd" clip-rule="evenodd" d="M85.1979 39.8587V20.7203H73.9928V39.8587H85.1979ZM85.1979 19.1384H73.9928V0H85.1979V19.1384ZM99.605 20.7344C101.079 22.8249 102 25.3389 102 27.8953C102 34.4768 96.6028 39.8587 90 39.8587H86.7993V20.7203L99.605 20.7344ZM86.7993 19.1384L98.175 19.1667C97.155 18.2204 95.7664 17.3023 94.42 16.8082C97.1972 15.1982 98.9958 12.2037 98.9958 8.96888C98.9958 4.06805 94.9171 0 90 0H86.7993V19.1384ZM53.9893 39.8587H42.8116V20.7203H53.9893V39.8587ZM53.9893 19.1384H42.8116V0H53.9893V19.1384ZM55.59 39.8587V20.7203L68.3964 20.7344C69.8693 22.8249 70.7907 25.3389 70.7907 27.8953C70.7907 34.4768 65.3932 39.8587 58.792 39.8587H55.59ZM55.59 19.1384V0H58.792C63.7075 0 67.8014 4.06751 67.8014 8.96888C67.8014 12.2037 65.988 15.1976 63.2108 16.8082C64.5569 17.3023 65.9455 18.2204 66.9656 19.1667L55.59 19.1384ZM19.2101 19.1384H7.28164L13.9968 0.000543269H19.2101V19.1384ZM32.725 19.1384L25.9961 0H20.8113V19.1379H32.725V19.1384ZM40.0066 39.8587H30.005L27.2141 31.8927H20.8107V20.7203H33.292L40.0066 39.8587ZM0 39.8587H10.0022L12.8073 31.8927H19.2106V20.7203H6.72938L0 39.8587Z" fill="#B0B0B0"/>
</svg>
