<svg width="134" height="22" viewBox="0 0 134 22" fill="none" xmlns="http://www.w3.org/2000/svg">
<path fill-rule="evenodd" clip-rule="evenodd" d="M20.3682 9.50733V2.24659C18.3784 1.59324 16.2761 1.2593 14.1575 1.26002C5.95109 1.26002 0 5.61646 0 11.5618C0 14.9871 1.92202 17.8636 5.47059 19.8091C7.87311 21.1245 10.8308 21.8412 14.047 21.8412C16.1173 21.8412 18.1507 21.5401 20.2568 20.9047L20.5533 13.5349C18.4462 14.685 16.6346 15.3427 14.6758 15.3427C11.5709 15.3427 9.6857 13.8083 9.6857 11.5618C9.6857 9.17848 11.7927 7.67091 14.8608 7.67091C16.8565 7.67181 18.6302 8.275 20.3682 9.50733ZM32.2336 12.4938C32.4186 11.4259 33.1578 10.9058 34.3038 10.9058C35.5971 10.9058 36.2268 11.3991 36.3362 12.4938H32.2336ZM45.0231 15.508C45.06 15.2623 45.0599 15.0147 45.0599 14.7681C45.0599 10.2205 40.4768 7.0418 34.082 7.0418C27.6862 7.0418 23.1776 10.384 23.1776 14.4393C23.1776 18.4936 27.724 21.8412 34.082 21.8412C39.3675 21.8412 43.1001 20.0557 44.4691 17.1514L36.0776 16.7403C35.6707 17.4526 35.042 17.8091 34.2292 17.8091C32.8246 17.8091 32.1589 17.1228 32.1589 15.7261V15.5071H45.0231V15.508ZM47.8713 21.3167H56.9641V15.8369C56.9641 14.1381 58.2952 13.1792 60.5873 13.1792C61.3264 13.1792 62.1771 13.3973 63.138 13.7815V7.06861C62.9152 7.0418 62.6944 7.0418 62.4725 7.0418C60.07 7.0418 58.147 7.86305 56.6687 9.42508V7.47968H47.8713V21.3167ZM74.116 12.4938C74.301 11.4259 75.0403 10.9058 76.1863 10.9058C77.4796 10.9058 78.1093 11.3991 78.2197 12.4938H74.116ZM86.9056 15.508C86.9424 15.2623 86.9424 15.0147 86.9424 14.7681C86.9424 10.2205 82.3593 7.0418 75.9644 7.0418C69.5687 7.0418 65.0591 10.384 65.0591 14.4393C65.0591 18.4936 69.6055 21.8412 75.9644 21.8412C81.25 21.8412 84.9826 20.0557 86.3505 17.1514L77.96 16.7403C77.5532 17.4526 76.9245 17.8091 76.1116 17.8091C74.707 17.8091 74.0414 17.1228 74.0414 15.7261V15.5071H86.9056V15.508ZM87.794 20.33C90.5268 21.3354 93.4534 21.8488 96.4059 21.8412C102.173 21.8412 105.611 19.5079 105.611 16.575C105.611 14.5206 103.873 13.3696 100.326 12.7396C98.44 12.4107 97.4037 12.3562 97.4037 11.753C97.4037 11.3419 97.9227 11.0399 98.7723 11.0399C99.7701 11.0399 101.138 11.4786 102.801 12.3008L105.019 8.13561C102.911 7.42338 100.436 7.04001 97.8843 7.04001C92.4511 7.04001 89.0494 9.2044 89.0494 11.972C89.0494 14.0541 90.676 15.3141 94.0769 15.8905C95.5929 16.1362 96.5533 16.1362 96.5533 16.7948C96.5533 17.2882 96.036 17.5893 95.0766 17.5893C93.9304 17.5893 92.2662 17.096 90.1963 16.055L87.794 20.33ZM107.976 21.3167H117.033V7.47968H107.976V21.3167ZM117.402 3.17775C117.402 1.26002 115.629 0 112.523 0C109.417 0 107.608 1.26002 107.608 3.17775C107.608 5.09547 109.455 6.41179 112.523 6.41179C115.592 6.41179 117.402 5.09637 117.402 3.17775ZM122.356 21.3167H131.412V12.5761H134V7.47968H131.412V2.90429H122.356V7.47968H119.806V12.5761H122.356V21.3167Z" fill="#777777"/>
</svg>
