<svg width="152" height="30" viewBox="0 0 152 30" fill="none" xmlns="http://www.w3.org/2000/svg">
<path fill-rule="evenodd" clip-rule="evenodd" d="M144.873 24.3713L150.555 8.57751H134.861C132.831 8.57751 130.62 10.2109 129.899 12.2081L125.615 23.9626H117.225L121.284 13.2979H125.569L127.598 7.67005H123.404L126.291 0H118.849L116.053 7.67005H111.137L109.107 13.2979H114.024L110.144 23.9626H101.575L107.574 8.03303H100.268L94.359 24.3272H87.5929L85.6999 18.199L96.6143 8.35105H88.8562L80.0623 16.2941H79.3847L85.0686 0.544474H78.2578L69.6401 24.3713H63.3704L69.008 8.57751H53.3578C51.3283 8.57751 49.1184 10.2109 48.3515 12.2081L43.8407 24.7351H37.9773L43.8407 8.53172H30.9869L32.3851 4.62884H19.8011L21.1546 0.907456H0V7.71583H11.9073L3.83396 30H10.5992L17.3199 11.4822H23.1378L16.418 30H23.2288L28.5057 15.3851H34.595L29.3181 30H40.1432L43.6157 26.4135C43.6612 28.1843 44.563 30 46.0961 30H52.3203L56.0641 26.0047C55.9739 27.8663 56.9212 30 58.5445 30H64.7687L69.1437 25.6875L67.6106 30H74.4214L78.4365 18.925H79.2027L82.6304 30H89.8921L93.9974 25.6426C93.8163 27.594 94.8083 29.8627 96.4779 29.8627H105.543L109.739 25.2338C109.377 27.231 110.368 29.8627 112.173 29.8627H121.24L125.164 25.5518C124.848 27.5033 125.84 30 127.598 30H133.823L137.566 26.0047C137.476 27.8663 138.423 30 140.046 30H152V24.3713H144.873ZM56.3801 24.2356H51.013L54.5765 14.3869H59.9435L56.3801 24.2356ZM137.882 24.2356H132.516L136.124 14.3869H141.446L137.882 24.2356Z" fill="#ABABAB"/>
</svg>
