<svg width="150" height="37" viewBox="0 0 150 37" fill="none" xmlns="http://www.w3.org/2000/svg">
<path fill-rule="evenodd" clip-rule="evenodd" d="M115.529 8.46413C113.475 8.46413 112.435 8.81045 111.262 10.1479V4H105.349V20.628H110.854V18.9442C112.126 20.3605 113.656 21 115.775 21C119.618 21 122.291 18.3286 122.291 14.5049C122.291 10.5492 119.438 8.46413 115.529 8.46413ZM113.722 18.4083C111.8 18.4083 110.66 17.0461 110.66 14.6652C110.66 12.0717 111.735 11.0567 113.657 11.0567C115.513 11.0567 116.752 12.2321 116.752 14.5607C116.752 16.9938 115.645 18.4083 113.722 18.4083ZM104.985 15.4145C104.921 13.1957 104.759 12.1001 104.302 11.2427C103.258 9.23827 100.521 8.06112 97.0045 8.06112C91.6609 8.06112 88.6639 10.4136 88.6639 14.6129C88.6639 18.7839 91.5629 20.9761 97.1035 20.9761C101.987 20.9761 104.529 19.5058 104.693 16.6174H99.4474C99.4474 17.7671 98.5687 18.3826 96.9389 18.3826C95.1804 18.3826 94.1704 17.3933 94.1704 15.6298V15.4136H104.985V15.4145ZM96.9703 10.5217C98.5669 10.5217 99.4771 11.4314 99.5751 13.0629H94.2333C94.3655 11.3233 95.2119 10.5217 96.9703 10.5217ZM85.1705 9.21346L82.76 15.6306C82.6296 16.0035 82.4668 16.7538 82.3345 17.527C82.2383 16.7263 81.9766 15.6829 81.7499 15.147L78.8825 9.21346H74.3717L71.8955 15.0664C71.7327 15.4677 71.5043 16.5642 71.3739 17.4739C71.2434 16.3242 71.212 16.0833 70.8522 15.0664L68.5064 9.21346H63L68.6036 20.6289H73.2636L75.9161 14.7228C76.373 13.6253 76.4728 13.3056 76.5682 12.5279C76.6662 13.7591 76.7337 13.9469 77.0566 14.7485L79.3034 20.6289H84.8755L89.7631 9.21346H85.1705ZM139.023 15.4145C138.955 13.1957 138.793 12.1001 138.338 11.2427C137.294 9.23827 134.557 8.06112 131.039 8.06112C125.697 8.06112 122.698 10.4136 122.698 14.6129C122.698 18.7839 125.601 20.9761 131.138 20.9761C136.023 20.9761 138.567 19.5058 138.728 16.6174H133.483C133.483 17.7671 132.604 18.3826 130.974 18.3826C129.216 18.3826 128.205 17.3933 128.205 15.6298V15.4136H139.023V15.4145ZM131.007 10.5217C132.604 10.5217 133.514 11.4314 133.614 13.0629H128.27C128.401 11.3233 129.247 10.5217 131.007 10.5217ZM145.016 11.6182V9.6147H139.509V20.6289H145.016V16.2719C145.016 14.481 145.211 13.9442 146.024 13.3029C146.806 12.6891 147.687 12.5279 150 12.5279V9.02568C147.265 9.186 146.056 9.80248 145.016 11.6182Z" fill="#606060"/>
<path fill-rule="evenodd" clip-rule="evenodd" d="M150 37H65V25H150V37Z" fill="#D1D1D1"/>
<path fill-rule="evenodd" clip-rule="evenodd" d="M101.105 28.4492C98.4601 28.4492 96.3193 30.1927 96.3193 32.3415C96.3193 34.4904 98.461 36.233 101.105 36.233C103.748 36.233 105.891 34.4904 105.891 32.3415C105.891 30.1927 103.747 28.4492 101.105 28.4492ZM101.105 34.1588C100.161 34.1588 99.3982 33.3463 99.3982 32.3424C99.3982 31.3386 100.162 30.527 101.105 30.527C102.051 30.527 102.814 31.3395 102.814 32.3424C102.814 33.3463 102.051 34.1588 101.105 34.1588ZM86.131 28.2378C84.9247 28.2378 84.3125 28.4464 83.6256 29.2544V25.5433H80.1479V35.5835H83.3852V34.5669C84.1307 35.4214 85.0309 35.8094 86.276 35.8094C88.5356 35.8094 90.1075 34.1953 90.1075 31.8852C90.1066 29.4967 88.4312 28.2378 86.131 28.2378ZM85.0705 34.2435C83.9398 34.2435 83.27 33.421 83.27 31.9845C83.27 30.4167 83.8993 29.8055 85.03 29.8055C86.122 29.8055 86.8485 30.5151 86.8485 31.9189C86.8485 33.3882 86.1995 34.2435 85.0705 34.2435ZM96.539 28.5776C94.932 28.6742 94.2235 29.0476 93.6095 30.1444V28.9329H90.3722V35.5844H93.6095V32.9528C93.6095 31.8706 93.7239 31.5472 94.2019 31.1582C94.6628 30.7893 95.1778 30.6919 96.539 30.6919V28.5776ZM111.759 31.8369C111.759 32.8225 111.738 32.9528 111.606 33.2443C111.395 33.6961 111.261 34.0495 110.669 34.0495C109.613 34.0495 109.307 33.6132 109.307 32.0309V28.9329H106.07V32.0309C106.07 33.646 106.109 33.953 106.417 34.5514C106.839 35.3594 107.874 35.8103 109.288 35.8103C110.668 35.8103 111.586 35.3904 112.236 34.4221V35.5844H114.752V28.9329H111.758V31.8369H111.759ZM120.074 26.7667L116.84 27.8835V28.9957H115.039V30.7729H116.84V32.9519C116.84 34.3237 116.934 34.9522 117.183 35.3257C117.566 35.906 118.255 36.1128 119.749 36.1128C120.668 36.1128 121.243 36.0827 121.826 35.9725V34.2763C121.817 34.3556 121.741 34.372 121.492 34.372C120.307 34.372 120.075 34.1606 120.075 33.0794V30.7729H121.826V28.9957H120.075V26.7667H120.074ZM134.234 29.5623C133.603 29.0139 132.683 28.7233 131.552 28.7233C130.329 28.7233 130.185 29.0786 129.324 29.934V28.9319H126.087V35.5835H129.324V32.275C129.361 31.4871 129.331 30.7729 130.56 30.7729C131.65 30.7729 131.745 31.0881 131.763 32.1457V35.5835H135V31.9207C135 30.629 134.826 30.0788 134.234 29.5623ZM122.086 28.0137H125.323V26.027H122.086V28.0137ZM122.086 35.8258H125.323V28.9329H122.086V35.8258ZM54.6723 37H27V9H54.6723V37Z" fill="#606060"/>
<path fill-rule="evenodd" clip-rule="evenodd" d="M1 34L26.4795 0L52 34H1Z" fill="#606060"/>
<path fill-rule="evenodd" clip-rule="evenodd" d="M5 31L26.629 3L48 31H5Z" fill="#D1D1D1"/>
<path fill-rule="evenodd" clip-rule="evenodd" d="M13.4986 31C20.9551 31 27 24.9556 27 17.4995C27 10.0434 20.9561 4 13.4986 4C6.04486 4 0 10.0434 0 17.4995C0 24.9556 6.04394 31 13.4986 31Z" fill="#606060"/>
<path fill-rule="evenodd" clip-rule="evenodd" d="M13.4982 29C19.8505 29 25 23.8514 25 17.5C25 11.1486 19.8505 6 13.4982 6C7.14862 6 2 11.1486 2 17.5C2 23.8514 7.14862 29 13.4982 29Z" fill="white"/>
</svg>
