<svg width="24" height="24" viewBox="0 0 24 24" fill="none" xmlns="http://www.w3.org/2000/svg">
<path fill-rule="evenodd" clip-rule="evenodd" d="M12 0.75C12.3315 0.75 12.6495 0.881696 12.8839 1.11612C13.1183 1.35054 13.25 1.66848 13.25 2V12C13.25 12.3315 13.1183 12.6495 12.8839 12.8839C12.6495 13.1183 12.3315 13.25 12 13.25H2C1.66848 13.25 1.35054 13.1183 1.11612 12.8839C0.881696 12.6495 0.75 12.3315 0.75 12C0.75 11.6685 0.881696 11.3505 1.11612 11.1161C1.35054 10.8817 1.66848 10.75 2 10.75H10.75V2C10.75 1.66848 10.8817 1.35054 11.1161 1.11612C11.3505 0.881696 11.6685 0.75 12 0.75V0.75Z" fill="#333333"/>
<path fill-rule="evenodd" clip-rule="evenodd" d="M10.75 12C10.75 11.6685 10.8817 11.3505 11.1161 11.1161C11.3505 10.8817 11.6685 10.75 12 10.75H22C22.3315 10.75 22.6495 10.8817 22.8839 11.1161C23.1183 11.3505 23.25 11.6685 23.25 12C23.25 12.3315 23.1183 12.6495 22.8839 12.8839C22.6495 13.1183 22.3315 13.25 22 13.25H13.25V22C13.25 22.3315 13.1183 22.6495 12.8839 22.8839C12.6495 23.1183 12.3315 23.25 12 23.25C11.6685 23.25 11.3505 23.1183 11.1161 22.8839C10.8817 22.6495 10.75 22.3315 10.75 22V12Z" fill="#333333"/>
</svg>
