<?xml version="1.0" standalone="no"?>
<!DOCTYPE svg PUBLIC "-//W3C//DTD SVG 20010904//EN"
 "http://www.w3.org/TR/2001/REC-SVG-20010904/DTD/svg10.dtd">
<svg version="1.0" xmlns="http://www.w3.org/2000/svg"
 width="712.000000pt" height="712.000000pt" viewBox="0 0 712.000000 712.000000"
 preserveAspectRatio="xMidYMid meet">
<metadata>
Created by potrace 1.14, written by Peter Selinger 2001-2017
</metadata>
<g transform="translate(0.000000,712.000000) scale(0.100000,-0.100000)"
fill="#000000" stroke="none">
<path d="M3217 7074 c-1 -1 -31 -5 -67 -8 -169 -14 -260 -29 -455 -71 -11 -3
-69 -19 -130 -35 -60 -17 -117 -33 -125 -35 -94 -26 -325 -121 -465 -192 -60
-31 -120 -61 -132 -67 -13 -6 -23 -15 -23 -19 0 -5 -4 -5 -10 -2 -5 3 -10 1
-10 -5 0 -6 -4 -8 -10 -5 -5 3 -10 1 -10 -4 0 -6 -5 -11 -10 -11 -20 0 -391
-255 -420 -289 -3 -3 -34 -30 -70 -60 -78 -66 -315 -303 -385 -385 -28 -32
-55 -64 -60 -70 -26 -28 -199 -263 -208 -283 -6 -13 -14 -23 -19 -23 -4 0 -8
-5 -8 -11 0 -6 -13 -29 -29 -52 -84 -124 -239 -427 -305 -597 -21 -52 -41
-104 -46 -115 -27 -60 -100 -306 -126 -424 -2 -12 -11 -51 -19 -85 -8 -34 -17
-79 -20 -101 -3 -22 -8 -49 -10 -61 -6 -29 -18 -119 -32 -249 -15 -146 -8
-576 12 -720 9 -61 15 -104 21 -142 3 -21 14 -81 25 -133 11 -52 22 -102 24
-110 1 -8 9 -35 16 -60 7 -25 13 -47 14 -50 0 -3 11 -38 23 -77 12 -40 23 -75
23 -78 0 -3 8 -25 19 -50 11 -25 19 -46 19 -48 -2 -16 104 -255 166 -374 56
-105 162 -287 187 -318 4 -5 40 -55 79 -110 40 -55 74 -102 78 -105 3 -3 19
-23 35 -44 85 -114 312 -348 477 -491 114 -99 349 -275 368 -275 5 0 11 -4 13
-8 5 -13 227 -145 343 -204 61 -31 157 -76 215 -100 126 -54 142 -60 155 -64
6 -2 66 -21 135 -44 153 -50 178 -58 210 -64 14 -3 45 -10 70 -16 90 -21 228
-47 295 -55 22 -2 56 -7 75 -10 178 -27 653 -27 852 0 24 4 59 8 78 10 60 7
155 22 155 25 0 1 9 3 20 5 80 12 105 16 140 25 50 13 75 19 100 24 11 3 49
14 85 26 36 12 72 23 80 25 21 5 129 44 167 61 17 8 33 14 36 14 2 0 31 12 63
26 33 14 61 27 64 27 9 3 207 105 266 138 93 51 97 54 108 62 6 4 52 33 101
64 81 51 359 253 411 299 12 11 52 46 89 79 312 274 582 610 753 937 28 54 48
98 44 98 -4 0 -2 4 3 8 10 7 65 139 65 155 0 4 7 21 16 38 8 17 17 38 20 47 2
10 15 62 29 116 13 55 27 118 30 140 4 23 8 55 11 73 4 28 -1 38 -46 82 -28
28 -55 51 -60 51 -5 0 -13 6 -17 13 -7 12 -309 240 -383 290 -14 9 -74 51
-135 92 -266 184 -922 615 -935 615 -4 0 -10 3 -12 8 -1 4 -84 59 -183 122
-99 63 -181 118 -183 122 -2 4 -8 8 -13 8 -5 0 -50 27 -99 60 -49 33 -94 60
-100 60 -5 0 -10 5 -10 10 0 6 -7 10 -15 10 -8 0 -15 4 -15 9 0 5 -8 11 -17
15 -19 6 -54 27 -63 37 -21 23 -233 150 -244 146 -8 -3 -69 -45 -137 -94 -68
-49 -176 -125 -239 -168 -63 -44 -119 -83 -125 -88 -10 -8 -90 -64 -230 -162
-38 -26 -72 -51 -75 -55 -3 -4 -15 -12 -27 -19 -12 -6 -57 -36 -100 -67 -43
-30 -87 -62 -98 -70 -11 -8 -85 -60 -165 -116 -80 -56 -146 -105 -148 -110 -2
-4 -8 -8 -14 -8 -6 0 -27 -12 -47 -27 -20 -16 -49 -37 -66 -49 -16 -11 -64
-44 -105 -72 -41 -29 -83 -58 -93 -64 -11 -7 -31 -23 -45 -35 -15 -13 -30 -23
-34 -23 -4 0 -13 -6 -20 -12 -8 -7 -21 -17 -30 -23 -48 -30 -284 -200 -286
-207 -2 -4 -8 -8 -12 -8 -9 0 -211 -139 -260 -179 -14 -12 -30 -21 -37 -21 -6
0 -13 -4 -15 -8 -1 -5 -25 -24 -53 -44 -256 -177 -391 -274 -393 -280 -2 -4
-8 -8 -13 -8 -6 0 -15 -4 -22 -10 -17 -14 -105 -77 -182 -130 -35 -25 -65 -47
-65 -50 0 -3 35 -6 78 -7 126 -3 627 -21 712 -26 43 -3 57 5 325 183 154 102
282 187 285 190 3 3 61 42 130 87 69 45 132 89 141 98 9 8 18 15 22 15 5 0
255 166 282 187 12 10 124 84 147 98 27 16 433 289 438 295 9 9 69 50 73 50 3
0 51 31 108 70 57 38 111 74 119 80 8 5 47 32 87 60 40 27 77 50 82 50 5 0 11
4 13 9 2 4 25 22 53 39 l50 31 47 -26 c27 -14 48 -30 48 -35 0 -4 5 -8 10 -8
12 0 73 -41 78 -52 2 -5 8 -8 13 -8 5 0 104 -63 220 -140 116 -77 215 -140
220 -140 5 0 9 -4 9 -8 0 -5 10 -14 23 -21 33 -18 49 -28 212 -135 334 -220
411 -271 426 -281 33 -21 85 -55 99 -65 8 -5 99 -65 202 -133 l188 -122 -39
-110 c-86 -245 -194 -428 -390 -660 -65 -76 -236 -241 -326 -314 -88 -71 -338
-244 -379 -262 -23 -10 -58 -31 -66 -39 -24 -25 -474 -220 -508 -220 -7 0 -20
-4 -30 -10 -17 -9 -202 -64 -252 -74 -14 -3 -36 -7 -50 -10 -115 -25 -150 -31
-220 -40 -25 -3 -55 -8 -68 -11 -119 -23 -491 -23 -682 0 -88 11 -252 41 -298
54 -18 5 -35 10 -37 10 -115 11 -527 178 -700 284 -11 7 -39 24 -62 40 -23 15
-46 27 -52 27 -6 0 -11 5 -11 10 0 6 -7 10 -15 10 -8 0 -15 5 -15 10 0 6 -7
10 -15 10 -8 0 -15 4 -15 8 0 5 -10 14 -22 20 -29 13 -201 150 -270 213 -82
76 -207 202 -248 249 -76 89 -90 104 -108 125 -22 25 -102 128 -122 159 -8 12
-32 48 -53 79 -75 112 -190 331 -180 341 4 3 1 6 -5 6 -7 0 -12 6 -12 14 0 7
-11 39 -25 69 -31 71 -77 209 -105 312 -11 44 -23 89 -26 100 -3 11 -7 31 -9
45 -2 14 -8 48 -13 75 -16 78 -27 157 -39 275 -15 150 -7 569 13 674 2 11 6
38 9 61 9 63 43 234 60 300 9 33 18 70 20 81 9 39 86 258 121 342 30 73 128
272 154 312 5 8 32 53 61 100 151 249 354 477 600 676 89 72 319 227 319 216
0 -4 4 -2 8 4 9 14 250 137 268 137 8 0 14 3 14 6 0 6 51 31 73 35 6 2 24 8
38 14 102 42 337 113 449 136 120 25 176 36 213 40 23 3 60 8 82 11 22 3 54 7
71 10 17 2 71 7 120 10 128 8 120 2 120 95 -1 44 1 80 4 80 3 0 5 24 6 53 1
28 5 120 9 202 5 83 9 166 9 185 l1 35 -163 0 c-89 1 -164 0 -165 -1z"/>
<path d="M4279 5442 c-13 -10 -67 -48 -119 -83 -52 -35 -97 -66 -100 -69 -3
-3 -13 -9 -22 -15 -46 -28 -280 -188 -293 -201 -8 -9 -15 -12 -15 -7 0 4 -4 3
-8 -2 -4 -6 -50 -39 -102 -75 -52 -35 -135 -92 -185 -125 -135 -93 -238 -164
-255 -175 -8 -5 -48 -32 -88 -60 -41 -27 -77 -50 -82 -50 -5 0 -10 -4 -12 -8
-3 -8 -123 -92 -130 -92 -2 0 -3 88 -3 195 l1 195 -176 1 c-96 0 -263 1 -370
1 l-195 0 -1 -131 c-1 -72 -4 -137 -7 -145 -3 -8 -3 -17 0 -20 9 -9 10 -55 2
-98 -3 -21 -4 -38 0 -38 5 0 6 -267 1 -355 -1 -11 0 -45 1 -75 3 -67 -7 -110
-25 -110 -8 0 -16 -4 -18 -8 -1 -4 -52 -44 -113 -87 -111 -81 -267 -196 -295
-218 -8 -7 -37 -28 -65 -47 -59 -42 -63 -45 -95 -71 -14 -11 -37 -28 -52 -37
-16 -9 -28 -20 -28 -24 0 -4 -5 -8 -11 -8 -6 0 -16 -6 -24 -12 -7 -7 -45 -35
-84 -63 -38 -27 -70 -53 -70 -57 -1 -4 9 -7 21 -7 13 1 92 -2 176 -5 186 -8
422 -17 517 -20 68 -2 72 -1 150 48 44 28 82 54 83 58 2 5 8 8 13 8 6 0 36 17
67 38 32 21 64 41 72 45 8 4 67 41 130 82 63 41 136 87 163 101 26 15 47 31
47 36 0 4 3 7 8 6 4 -1 45 23 91 52 84 54 173 111 361 228 288 180 487 306
501 318 9 8 19 11 22 7 4 -3 7 -1 7 5 0 7 5 12 10 12 6 0 16 5 23 11 7 5 39
27 72 48 33 20 111 70 173 109 62 40 117 72 122 72 4 0 10 3 12 8 4 8 311 202
321 202 6 0 235 -143 392 -245 28 -18 60 -38 73 -44 13 -7 32 -20 43 -29 11
-9 22 -15 26 -14 3 2 9 0 12 -5 10 -13 120 -83 131 -83 5 0 10 -4 10 -10 0 -5
7 -10 15 -10 8 0 15 -4 15 -10 0 -5 5 -10 10 -10 6 0 42 -20 80 -45 123 -79
201 -129 403 -256 108 -68 284 -179 390 -247 105 -67 203 -128 217 -134 14 -7
27 -15 30 -18 3 -4 68 -46 145 -94 77 -48 189 -119 248 -157 60 -38 111 -69
113 -69 3 0 10 -5 17 -10 16 -13 167 -110 171 -110 3 0 28 -16 57 -35 30 -19
56 -35 60 -35 4 0 7 53 7 118 0 64 1 200 2 300 1 101 0 185 -2 186 -2 1 -21
13 -43 26 -22 13 -42 27 -45 30 -3 3 -36 26 -75 49 -38 24 -71 48 -73 53 -2 4
-8 8 -12 8 -5 0 -120 73 -257 163 -136 90 -282 185 -323 212 -237 154 -346
226 -355 232 -15 12 -542 356 -562 368 -10 6 -20 12 -23 15 -3 3 -70 48 -150
100 -80 52 -146 98 -148 102 -2 4 -8 8 -13 8 -5 0 -50 27 -99 60 -49 33 -94
60 -99 60 -5 0 -11 4 -13 9 -1 4 -48 37 -103 72 -55 35 -101 67 -103 71 -2 5
-10 8 -18 8 -8 0 -14 3 -14 8 0 4 -20 18 -45 32 -25 14 -45 28 -45 32 0 5 -5
8 -10 8 -6 0 -34 16 -63 35 -60 40 -66 41 -98 17z"/>
<path d="M3839 2692 l-36 -3 0 -205 c0 -179 2 -204 16 -205 19 -1 359 -1 382
0 13 1 15 27 16 206 0 113 -3 205 -6 206 -20 2 -342 3 -372 1z"/>
<path d="M4399 2685 c-5 -49 -3 -389 2 -397 5 -8 267 -14 397 -9 9 1 12 49 12
206 0 188 -1 205 -17 206 -111 6 -393 2 -394 -6z"/>
<path d="M3834 2112 l-32 -3 2 -202 1 -202 205 0 205 0 1 203 2 202 -32 1
c-122 3 -326 3 -352 1z"/>
<path d="M4407 2110 c-9 -4 -12 -58 -12 -207 0 -110 3 -199 7 -197 4 2 9 0 13
-5 3 -6 15 -7 29 -1 12 4 29 4 36 0 9 -5 19 -5 27 1 8 7 18 7 30 0 11 -5 25
-6 33 -1 8 5 17 7 20 5 7 -4 36 -5 153 -5 l67 -1 0 206 c0 188 -1 205 -17 206
-104 3 -377 3 -386 -1z"/>
</g>
</svg>
