<svg width="350" height="132" viewBox="0 0 350 132" fill="none" xmlns="http://www.w3.org/2000/svg">
<path d="M31.5586 29V0L62.0586 14.5L31.5586 29Z" fill="#A0366D"/>
<path d="M62.5586 45V16L32.5586 30.5L62.5586 45Z" fill="#B84480"/>
<path d="M97.5586 61V32L128.059 46.5L97.5586 61Z" fill="#A0366D"/>
<path d="M128.559 77V48L98.5586 62.5L128.559 77Z" fill="#B84480"/>
<path d="M64.5586 45V16L95.0586 30.5L64.5586 45Z" fill="#A0366D"/>
<path d="M95.5586 61V32L65.5586 46.5L95.5586 61Z" fill="#B84480"/>
<path d="M0.558594 79V50L31.0586 64.5L0.558594 79Z" fill="#FFDC69"/>
<path d="M31.5586 95V66L1.55859 80.5L31.5586 95Z" fill="#FFC301"/>
<path d="M66.5586 111V82L97.0586 96.5L66.5586 111Z" fill="#FFDC69"/>
<path d="M97.5586 127V98L67.5586 112.5L97.5586 127Z" fill="#FFC301"/>
<path d="M33.5586 95V66L64.0586 80.5L33.5586 95Z" fill="#FFDC69"/>
<path d="M64.5586 111V82L34.5586 96.5L64.5586 111Z" fill="#FFC301"/>
<path d="M61.3017 47.2438L33.0811 63.5015L32.5392 32.0001L62.0391 46.4631L61.3017 47.2438Z" fill="#FFDC69"/>
<path d="M185.079 36.801C190.411 36.801 195.026 37.6896 198.925 39.467C202.881 41.2443 205.92 43.767 208.041 47.035C210.162 50.303 211.223 54.173 211.223 58.645C211.223 63.0596 210.162 66.9296 208.041 70.255C205.92 73.523 202.881 76.0456 198.925 77.823C195.026 79.543 190.411 80.403 185.079 80.403H172.953V97.001H159.021V36.801H185.079ZM184.305 69.051C188.49 69.051 191.672 68.1623 193.851 66.385C196.03 64.5503 197.119 61.9703 197.119 58.645C197.119 55.2623 196.03 52.6823 193.851 50.905C191.672 49.0703 188.49 48.153 184.305 48.153H172.953V69.051H184.305Z" fill="black"/>
<path d="M276.889 36.801V97.001H263.043V48.153H235.867V97.001H222.021V36.801H276.889Z" fill="black"/>
<path d="M315.327 72.749H305.695V97.001H291.849V36.801H305.695V61.139H315.671L331.495 36.801H346.201L326.507 65.869L346.803 97.001H330.979L315.327 72.749Z" fill="black"/>
<path d="M31.4518 63.1261L1.03951 48.5L30.9811 31.599L31.4518 63.1261Z" fill="#FFC301"/>
<path d="M128.539 79L97.5391 64L99.0391 95.5L128.539 79Z" fill="#A0366D"/>
<path d="M97.0391 94.501L95.5391 64.001L67.5391 80.501L97.0391 94.501Z" fill="#B84480"/>
<path d="M124.579 127.001C124.286 127.001 124.039 126.901 123.839 126.701C123.639 126.501 123.539 126.254 123.539 125.961V112.421C123.539 112.114 123.639 111.868 123.839 111.681C124.039 111.481 124.286 111.381 124.579 111.381H128.579C129.579 111.381 130.466 111.601 131.239 112.041C132.012 112.481 132.612 113.094 133.039 113.881C133.479 114.654 133.699 115.548 133.699 116.561C133.699 117.534 133.479 118.401 133.039 119.161C132.612 119.921 132.012 120.514 131.239 120.941C130.466 121.368 129.579 121.581 128.579 121.581H125.619V125.961C125.619 126.254 125.519 126.501 125.319 126.701C125.132 126.901 124.886 127.001 124.579 127.001ZM125.619 119.661H128.579C129.486 119.661 130.232 119.374 130.819 118.801C131.406 118.214 131.699 117.468 131.699 116.561C131.699 115.921 131.566 115.361 131.299 114.881C131.032 114.388 130.666 114.001 130.199 113.721C129.732 113.441 129.192 113.301 128.579 113.301H125.619V119.661ZM137.04 127.001C136.747 127.001 136.5 126.901 136.3 126.701C136.1 126.501 136 126.254 136 125.961V112.421C136 112.114 136.1 111.868 136.3 111.681C136.5 111.481 136.747 111.381 137.04 111.381H146.08C146.387 111.381 146.633 111.474 146.82 111.661C147.007 111.834 147.1 112.068 147.1 112.361C147.1 112.641 147.007 112.868 146.82 113.041C146.633 113.214 146.387 113.301 146.08 113.301H138.08V118.161H143.82C144.127 118.161 144.373 118.254 144.56 118.441C144.747 118.614 144.84 118.841 144.84 119.121C144.84 119.401 144.747 119.634 144.56 119.821C144.373 119.994 144.127 120.081 143.82 120.081H138.08V125.081H146.08C146.387 125.081 146.633 125.168 146.82 125.341C147.007 125.514 147.1 125.741 147.1 126.021C147.1 126.314 147.007 126.554 146.82 126.741C146.633 126.914 146.387 127.001 146.08 127.001H137.04ZM151.044 127.001C150.751 127.001 150.504 126.901 150.304 126.701C150.104 126.501 150.004 126.254 150.004 125.961V112.421C150.004 112.114 150.104 111.868 150.304 111.681C150.504 111.481 150.751 111.381 151.044 111.381C151.444 111.381 151.751 111.568 151.964 111.941L157.904 123.841L163.684 111.941C163.897 111.568 164.204 111.381 164.604 111.381C164.897 111.381 165.144 111.481 165.344 111.681C165.544 111.868 165.644 112.114 165.644 112.421V125.961C165.644 126.254 165.537 126.501 165.324 126.701C165.124 126.901 164.884 127.001 164.604 127.001C164.311 127.001 164.064 126.901 163.864 126.701C163.664 126.501 163.564 126.254 163.564 125.961V116.021L158.724 125.881C158.497 126.228 158.197 126.401 157.824 126.401C157.384 126.401 157.064 126.194 156.864 125.781L152.084 116.201V125.961C152.084 126.254 151.984 126.501 151.784 126.701C151.584 126.901 151.337 127.001 151.044 127.001ZM176.872 127.201C175.699 127.201 174.626 127.008 173.652 126.621C172.679 126.221 171.839 125.668 171.132 124.961C170.439 124.241 169.899 123.394 169.512 122.421C169.126 121.434 168.932 120.354 168.932 119.181C168.932 118.008 169.126 116.934 169.512 115.961C169.899 114.988 170.439 114.148 171.132 113.441C171.839 112.721 172.679 112.168 173.652 111.781C174.626 111.381 175.699 111.181 176.872 111.181C178.046 111.181 179.112 111.381 180.072 111.781C181.046 112.168 181.886 112.721 182.592 113.441C183.299 114.148 183.846 114.988 184.232 115.961C184.619 116.934 184.812 118.008 184.812 119.181C184.812 120.354 184.619 121.434 184.232 122.421C183.846 123.394 183.299 124.241 182.592 124.961C181.886 125.668 181.046 126.221 180.072 126.621C179.112 127.008 178.046 127.201 176.872 127.201ZM176.872 125.321C178.032 125.321 179.059 125.054 179.952 124.521C180.846 123.974 181.546 123.241 182.052 122.321C182.559 121.388 182.812 120.341 182.812 119.181C182.812 118.021 182.559 116.981 182.052 116.061C181.546 115.128 180.846 114.394 179.952 113.861C179.059 113.328 178.032 113.061 176.872 113.061C175.712 113.061 174.686 113.328 173.792 113.861C172.899 114.394 172.199 115.128 171.692 116.061C171.186 116.981 170.932 118.021 170.932 119.181C170.932 120.341 171.186 121.388 171.692 122.321C172.199 123.241 172.899 123.974 173.792 124.521C174.686 125.054 175.712 125.321 176.872 125.321ZM189.11 127.001C188.817 127.001 188.57 126.901 188.37 126.701C188.17 126.501 188.07 126.254 188.07 125.961V112.421C188.07 112.114 188.17 111.868 188.37 111.681C188.57 111.481 188.817 111.381 189.11 111.381C189.417 111.381 189.664 111.481 189.85 111.681C190.05 111.868 190.15 112.114 190.15 112.421V118.161H199.43V112.421C199.43 112.114 199.53 111.868 199.73 111.681C199.93 111.481 200.177 111.381 200.47 111.381C200.777 111.381 201.024 111.481 201.21 111.681C201.397 111.868 201.49 112.114 201.49 112.421V125.961C201.49 126.254 201.397 126.501 201.21 126.701C201.024 126.901 200.777 127.001 200.47 127.001C200.177 127.001 199.93 126.901 199.73 126.701C199.53 126.501 199.43 126.254 199.43 125.961V120.001H190.15V125.961C190.15 126.254 190.05 126.501 189.85 126.701C189.664 126.901 189.417 127.001 189.11 127.001ZM210.112 127.001C209.819 127.001 209.572 126.901 209.372 126.701C209.172 126.501 209.072 126.254 209.072 125.961V113.301H204.752C204.472 113.301 204.239 113.214 204.052 113.041C203.879 112.854 203.792 112.621 203.792 112.341C203.792 112.061 203.879 111.834 204.052 111.661C204.239 111.474 204.472 111.381 204.752 111.381H215.452C215.732 111.381 215.959 111.474 216.132 111.661C216.319 111.834 216.412 112.061 216.412 112.341C216.412 112.621 216.319 112.854 216.132 113.041C215.959 113.214 215.732 113.301 215.452 113.301H211.152V125.961C211.152 126.254 211.052 126.501 210.852 126.701C210.652 126.901 210.406 127.001 210.112 127.001ZM225.614 127.001C225.321 127.001 225.074 126.901 224.874 126.701C224.674 126.501 224.574 126.254 224.574 125.961V112.421C224.574 112.114 224.674 111.868 224.874 111.681C225.074 111.481 225.321 111.381 225.614 111.381H236.254C236.561 111.381 236.808 111.481 236.994 111.681C237.194 111.868 237.294 112.114 237.294 112.421V125.961C237.294 126.254 237.194 126.501 236.994 126.701C236.808 126.901 236.561 127.001 236.254 127.001C235.961 127.001 235.714 126.901 235.514 126.701C235.314 126.501 235.214 126.254 235.214 125.961V113.221H226.654V125.961C226.654 126.254 226.554 126.501 226.354 126.701C226.168 126.901 225.921 127.001 225.614 127.001ZM248.513 127.201C247.34 127.201 246.266 127.008 245.293 126.621C244.32 126.221 243.48 125.668 242.773 124.961C242.08 124.241 241.54 123.394 241.153 122.421C240.766 121.434 240.573 120.354 240.573 119.181C240.573 118.008 240.766 116.934 241.153 115.961C241.54 114.988 242.08 114.148 242.773 113.441C243.48 112.721 244.32 112.168 245.293 111.781C246.266 111.381 247.34 111.181 248.513 111.181C249.686 111.181 250.753 111.381 251.713 111.781C252.686 112.168 253.526 112.721 254.233 113.441C254.94 114.148 255.486 114.988 255.873 115.961C256.26 116.934 256.453 118.008 256.453 119.181C256.453 120.354 256.26 121.434 255.873 122.421C255.486 123.394 254.94 124.241 254.233 124.961C253.526 125.668 252.686 126.221 251.713 126.621C250.753 127.008 249.686 127.201 248.513 127.201ZM248.513 125.321C249.673 125.321 250.7 125.054 251.593 124.521C252.486 123.974 253.186 123.241 253.693 122.321C254.2 121.388 254.453 120.341 254.453 119.181C254.453 118.021 254.2 116.981 253.693 116.061C253.186 115.128 252.486 114.394 251.593 113.861C250.7 113.328 249.673 113.061 248.513 113.061C247.353 113.061 246.326 113.328 245.433 113.861C244.54 114.394 243.84 115.128 243.333 116.061C242.826 116.981 242.573 118.021 242.573 119.181C242.573 120.341 242.826 121.388 243.333 122.321C243.84 123.241 244.54 123.974 245.433 124.521C246.326 125.054 247.353 125.321 248.513 125.321ZM259.251 130.561C258.958 130.561 258.711 130.461 258.511 130.261C258.311 130.061 258.211 129.814 258.211 129.521V126.201C258.211 125.894 258.311 125.648 258.511 125.461C258.711 125.261 258.958 125.161 259.251 125.161H259.851L265.331 112.081C265.531 111.614 265.858 111.381 266.311 111.381C266.791 111.381 267.118 111.614 267.291 112.081L272.771 125.161H273.331C273.638 125.161 273.884 125.261 274.071 125.461C274.271 125.648 274.371 125.894 274.371 126.201V129.521C274.371 129.814 274.271 130.061 274.071 130.261C273.884 130.461 273.638 130.561 273.331 130.561C273.038 130.561 272.791 130.461 272.591 130.261C272.391 130.061 272.291 129.814 272.291 129.521V127.001H260.291V129.521C260.291 129.814 260.191 130.061 259.991 130.261C259.804 130.461 259.558 130.561 259.251 130.561ZM261.971 125.161H270.771L266.331 114.381L261.971 125.161ZM283.778 127.001C283.485 127.001 283.238 126.901 283.038 126.701C282.838 126.501 282.738 126.254 282.738 125.961V112.421C282.738 112.114 282.838 111.868 283.038 111.681C283.238 111.481 283.485 111.381 283.778 111.381C284.085 111.381 284.332 111.481 284.518 111.681C284.718 111.868 284.818 112.114 284.818 112.421V118.161H286.878L292.258 111.721C292.445 111.494 292.685 111.381 292.978 111.381C293.285 111.368 293.532 111.468 293.718 111.681C293.905 111.894 293.992 112.121 293.978 112.361C293.978 112.588 293.885 112.808 293.698 113.021L288.638 118.901L294.218 125.381C294.405 125.594 294.505 125.821 294.518 126.061C294.545 126.288 294.445 126.514 294.218 126.741C294.032 126.928 293.778 127.014 293.458 127.001C293.138 127.001 292.885 126.894 292.698 126.681L286.958 120.001H284.818V125.961C284.818 126.254 284.718 126.501 284.518 126.701C284.332 126.901 284.085 127.001 283.778 127.001ZM296.787 127.001C296.414 127.001 296.127 126.841 295.927 126.521C295.727 126.201 295.707 125.861 295.867 125.501L301.487 112.081C301.687 111.614 302.014 111.381 302.467 111.381C302.947 111.381 303.274 111.614 303.447 112.081L309.087 125.541C309.234 125.914 309.214 126.254 309.027 126.561C308.854 126.854 308.574 127.001 308.187 127.001C307.987 127.001 307.794 126.948 307.607 126.841C307.434 126.721 307.307 126.561 307.227 126.361L302.547 114.821L297.747 126.361C297.654 126.574 297.514 126.734 297.327 126.841C297.154 126.948 296.974 127.001 296.787 127.001ZM312.626 127.001C312.333 127.001 312.086 126.901 311.886 126.701C311.686 126.501 311.586 126.254 311.586 125.961V112.421C311.586 112.114 311.686 111.868 311.886 111.681C312.086 111.481 312.333 111.381 312.626 111.381C312.933 111.381 313.179 111.481 313.366 111.681C313.566 111.868 313.666 112.114 313.666 112.421V118.161H316.926C317.059 116.788 317.453 115.574 318.106 114.521C318.773 113.468 319.646 112.648 320.726 112.061C321.806 111.474 323.033 111.181 324.406 111.181C325.553 111.181 326.593 111.381 327.526 111.781C328.473 112.168 329.293 112.721 329.986 113.441C330.679 114.148 331.213 114.988 331.586 115.961C331.959 116.934 332.146 118.008 332.146 119.181C332.146 120.354 331.959 121.434 331.586 122.421C331.213 123.394 330.679 124.241 329.986 124.961C329.293 125.668 328.473 126.221 327.526 126.621C326.593 127.008 325.553 127.201 324.406 127.201C323.006 127.201 321.759 126.901 320.666 126.301C319.586 125.688 318.713 124.841 318.046 123.761C317.393 122.681 317.013 121.428 316.906 120.001H313.666V125.961C313.666 126.254 313.566 126.501 313.366 126.701C313.179 126.901 312.933 127.001 312.626 127.001ZM324.406 125.321C325.526 125.321 326.513 125.054 327.366 124.521C328.233 123.974 328.913 123.241 329.406 122.321C329.899 121.388 330.146 120.341 330.146 119.181C330.146 118.021 329.899 116.981 329.406 116.061C328.913 115.128 328.233 114.394 327.366 113.861C326.513 113.328 325.526 113.061 324.406 113.061C323.326 113.061 322.366 113.328 321.526 113.861C320.699 114.394 320.046 115.128 319.566 116.061C319.099 116.981 318.866 118.021 318.866 119.181C318.866 120.341 319.099 121.388 319.566 122.321C320.046 123.241 320.699 123.974 321.526 124.521C322.366 125.054 323.326 125.321 324.406 125.321ZM340.634 121.901C338.701 121.901 337.227 121.308 336.214 120.121C335.214 118.921 334.714 117.294 334.714 115.241V112.421C334.714 112.114 334.814 111.868 335.014 111.681C335.214 111.481 335.461 111.381 335.754 111.381C336.061 111.381 336.307 111.481 336.494 111.681C336.694 111.868 336.794 112.114 336.794 112.421V115.241C336.794 116.254 336.914 117.128 337.154 117.861C337.407 118.581 337.821 119.134 338.394 119.521C338.981 119.908 339.767 120.101 340.754 120.101C341.581 120.101 342.307 120.001 342.934 119.801C343.561 119.601 344.047 119.328 344.394 118.981C344.754 118.621 344.934 118.208 344.934 117.741V112.421C344.934 112.114 345.034 111.868 345.234 111.681C345.434 111.481 345.681 111.381 345.974 111.381C346.281 111.381 346.527 111.481 346.714 111.681C346.914 111.868 347.014 112.114 347.014 112.421V125.961C347.014 126.254 346.914 126.501 346.714 126.701C346.527 126.901 346.281 127.001 345.974 127.001C345.681 127.001 345.434 126.901 345.234 126.701C345.034 126.501 344.934 126.254 344.934 125.961V120.281C344.467 120.788 343.861 121.188 343.114 121.481C342.381 121.761 341.554 121.901 340.634 121.901Z" fill="black"/>
</svg>
