<svg version="1.0" xmlns="http://www.w3.org/2000/svg" width="346.667" height="346.667" viewBox="0 0 260 260"><path d="M94.9 83.5V173l.1 16h90v-26.8l-8.7-.4c-11-.6-18.1-3.6-25.7-10.8-7.1-6.7-10.1-13.7-9.3-21.9.6-7.3 2.6-11.3 9-17.8 7.1-7.3 16.6-11.3 27.1-11.3h7.6V71H95l-.1 12.5zM0 130v47.6h40.5c28 0 40.5-.3 40.8-1 .2-.6.3-22 .3-47.6l-.1-46.5H40.8L0 82.4V130z"/><path d="M215.1 100.2c-21.5 3.2-35.5 23.7-27.9 40.8 4.5 10.1 10.3 15.1 21.8 19 8.2 2.8 16 3 24.3.8 7.8-2.1 9.6-3 15.8-8 6.7-5.5 10.3-12.6 10.5-21.3.2-8.7-2-14-8.8-20.8-8.7-8.7-21.8-12.6-35.7-10.5z"/></svg>