<svg width="70" height="76" viewBox="0 0 70 76" fill="none" xmlns="http://www.w3.org/2000/svg">
<g filter="url(#filter0_d)">
<path d="M34.5606 67.7497L34.6254 67.7498C35.3362 67.7509 36.0353 67.5683 36.6548 67.2197L34.5606 67.7497ZM34.5606 67.7497C33.8717 67.74 33.1958 67.5578 32.5948 67.2195L6.3454 52.3826L34.5606 67.7497ZM34.6249 3.49701C34.4741 3.49696 34.326 3.53584 34.1947 3.60989L34.1945 3.61L7.94448 18.4472L7.94425 18.4473C7.80961 18.5236 7.69758 18.6342 7.61955 18.7678C7.54152 18.9015 7.50027 19.0534 7.5 19.2081V19.2086V48.7914V48.7916C7.50012 48.9465 7.54129 49.0986 7.61933 49.2324C7.69737 49.3662 7.80948 49.4769 7.94425 49.5533L7.94449 49.5534L34.1945 64.3903L34.1951 64.3906C34.3264 64.4643 34.4744 64.5031 34.625 64.5031C34.7756 64.5031 34.9236 64.4643 35.0549 64.3906L35.0555 64.3903L61.3055 49.5531L61.3057 49.553C61.4404 49.4767 61.5524 49.3661 61.6305 49.2325C61.7085 49.0988 61.7498 48.9468 61.75 48.7921V48.7917V19.2086V19.2084C61.7499 19.0535 61.7087 18.9014 61.6307 18.7676C61.5526 18.6338 61.4405 18.5231 61.3058 18.4467L61.3055 18.4466L35.0555 3.60969L35.0551 3.60945C34.9238 3.53555 34.7756 3.49682 34.6249 3.49701ZM34.6249 3.49701C34.6248 3.49701 34.6247 3.49702 34.6246 3.49702L34.625 3.74701L34.6252 3.49701C34.6251 3.49701 34.625 3.49701 34.6249 3.49701ZM62.9049 52.3826L36.6552 67.2195L6.3452 52.3825C5.70975 52.0225 5.18107 51.5005 4.81302 50.8697C4.44493 50.2388 4.25066 49.5216 4.25 48.7912L4.25 19.209C4.25068 18.4786 4.44495 17.7615 4.81302 17.1306C5.18111 16.4997 5.70986 15.9777 6.3454 15.6177L32.5946 0.78095C32.5947 0.780865 32.5949 0.780779 32.595 0.780694C33.215 0.432746 33.914 0.25 34.625 0.25C35.336 0.25 36.035 0.432755 36.655 0.780719C36.6552 0.780796 36.6553 0.780873 36.6554 0.78095L62.9046 15.6177C63.5401 15.9777 64.0689 16.4997 64.437 17.1306C64.8051 17.7615 64.9993 18.4787 65 19.2091V48.7912C64.9994 49.5216 64.8052 50.2388 64.4372 50.8697C64.0691 51.5006 63.5404 52.0226 62.9049 52.3826Z" fill="#333333" stroke="#880000" stroke-width="0.5"/>
<g filter="url(#filter1_d)">
<path d="M40.9172 47.0396C40.8771 47.0396 40.837 47.0263 40.797 47.0062L20.1202 35.0717C20.0467 35.0316 20 34.9515 20 34.8713V26.3495C20 26.2694 20.0467 26.1892 20.1135 26.1492L28.9693 21.0334C29.0027 21.0134 29.0427 21 29.0895 21C29.1362 21 29.1696 21.0134 29.203 21.0334L49.8798 32.9679C49.9532 33.008 50 33.0882 50 33.1683V41.6968C50 41.7769 49.9532 41.8571 49.8798 41.8972L41.0374 47.0129C40.9973 47.0329 40.9573 47.0396 40.9172 47.0396ZM33.7711 42.4114L40.6901 46.4052V45.2431L33.7711 41.2493V42.4114ZM41.1509 45.2364V46.3985L49.5459 41.5565V40.3878L41.1509 45.2364ZM33.7711 40.7017L40.6901 44.6955V43.5334L33.7711 39.5396V40.7017ZM41.1509 43.5334V44.6955L49.5459 39.8535V38.6915L41.1509 43.5334ZM33.7711 38.9987L40.6834 42.9924V41.8304L33.7645 37.8366V38.9987H33.7711ZM41.1509 41.8304V42.9924L49.5459 38.1438V36.9817L41.1509 41.8304ZM27.874 39.0053L33.3037 42.1376V34.1567L27.874 31.0245V39.0053ZM33.7711 37.2956L40.6901 41.2894V40.1207L33.7711 36.1269V37.2956ZM41.1509 40.1207V41.2827L49.5459 36.4408V35.2787L41.1509 40.1207ZM33.7711 35.5926L40.6901 39.5864V38.4243L33.7711 34.4305V35.5926ZM41.1509 38.4176V39.5797L49.5459 34.7378V33.5757L41.1509 38.4176ZM20.4809 34.7378L27.4065 38.7382V37.5695L20.4809 33.569V34.7378ZM33.9114 33.9697L40.9172 38.0169L49.3121 33.1683L42.3931 29.1745L33.9114 33.9697ZM20.4809 33.028L27.4065 37.0285V35.8664L20.4809 31.866V33.028ZM20.4809 31.325L27.4065 35.3255V34.1634L20.4809 30.163V31.325ZM28.0744 30.5971L33.4439 33.6959L41.9256 28.9007L36.4893 25.7618L28.0744 30.5971ZM20.4809 29.622L27.4065 33.6224V32.4604L20.4809 28.4599V29.622ZM20.4809 27.919L27.4065 31.9194V30.7573L20.4809 26.7569V27.919ZM20.7146 26.3495L27.6069 30.3299L36.0218 25.4947L29.1095 21.5009L20.7146 26.3495Z" fill="#880000"/>
<path d="M31.7554 31.846C31.6686 31.846 31.5951 31.806 31.5551 31.7325C31.495 31.6323 31.5217 31.5121 31.6018 31.4386L31.7821 31.285L31.6552 31.0914C31.5484 30.9244 31.4883 30.7307 31.4883 30.5304C31.4883 30.1564 31.682 29.8224 32.0025 29.6354C32.0359 29.6154 32.076 29.602 32.1161 29.602C32.2029 29.602 32.2763 29.6488 32.3164 29.7223C32.3498 29.7757 32.3565 29.8425 32.3431 29.9026C32.3298 29.9627 32.2897 30.0161 32.2363 30.0428C32.0626 30.143 31.9558 30.33 31.9558 30.5304C31.9558 30.6105 31.9758 30.7641 32.096 30.8977L32.243 31.0646L34.507 29.7356L34.3534 29.5019C34.2465 29.3349 34.1864 29.1479 34.1864 28.9475C34.1864 28.5735 34.3734 28.2396 34.694 28.0526L34.7007 28.0459C35.2015 27.7521 35.7692 27.5985 36.3503 27.5985C36.7643 27.5985 37.1717 27.6786 37.5524 27.8255L37.6726 27.8723L38.0934 27.6252C38.1267 27.6052 38.1668 27.5918 38.2136 27.5918C38.3004 27.5918 38.3739 27.6319 38.4139 27.7053C38.474 27.8055 38.4473 27.9257 38.3672 27.9992L38.1935 28.1528L38.3204 28.3465C38.4273 28.5134 38.4874 28.7071 38.4874 28.9075C38.4874 29.2815 38.2937 29.6154 37.9731 29.8024L37.6593 29.9827C37.6259 30.0027 37.5858 30.0161 37.5457 30.0161C37.4589 30.0161 37.3854 29.9694 37.3454 29.8959C37.312 29.8425 37.3053 29.7757 37.3253 29.7156C37.3387 29.6555 37.3788 29.602 37.4322 29.5753L37.7461 29.395C37.9197 29.2948 38.0266 29.1078 38.0266 28.9075C38.0266 28.8273 38.0065 28.6737 37.8863 28.5402L37.7394 28.3732L35.4754 29.7022L35.629 29.936C35.7358 30.0962 35.7959 30.2899 35.7959 30.4903C35.7959 30.8643 35.6089 31.1982 35.2884 31.3852L35.2817 31.3919C34.7808 31.6857 34.2131 31.8393 33.6321 31.8393C33.218 31.8393 32.8173 31.7592 32.43 31.6123L32.3097 31.5655L31.889 31.8126C31.8422 31.8327 31.8022 31.846 31.7554 31.846ZM32.637 31.3652L33.6254 31.3719C34.1263 31.3719 34.6138 31.2383 35.0413 30.9912L35.0479 30.9845C35.2216 30.8843 35.3284 30.6973 35.3284 30.497C35.3284 30.4168 35.3084 30.2565 35.1815 30.123L35.0346 29.9694L32.637 31.3652ZM36.3569 28.0593C35.856 28.0593 35.3685 28.1929 34.9478 28.44L34.9344 28.4467C34.7608 28.5468 34.6539 28.7338 34.6539 28.9342C34.6539 29.0744 34.7073 29.208 34.8008 29.3149L34.9478 29.4685L37.3454 28.066L36.3569 28.0593Z" fill="#880000"/>
</g>
</g>
<defs>
<filter id="filter0_d" x="0" y="0" width="69.25" height="76.0001" filterUnits="userSpaceOnUse" color-interpolation-filters="sRGB">
<feFlood flood-opacity="0" result="BackgroundImageFix"/>
<feColorMatrix in="SourceAlpha" type="matrix" values="0 0 0 0 0 0 0 0 0 0 0 0 0 0 0 0 0 0 127 0"/>
<feOffset dy="4"/>
<feGaussianBlur stdDeviation="2"/>
<feColorMatrix type="matrix" values="0 0 0 0 0 0 0 0 0 0 0 0 0 0 0 0 0 0 0.25 0"/>
<feBlend mode="normal" in2="BackgroundImageFix" result="effect1_dropShadow"/>
<feBlend mode="normal" in="SourceGraphic" in2="effect1_dropShadow" result="shape"/>
</filter>
<filter id="filter1_d" x="16" y="21" width="38" height="34.0396" filterUnits="userSpaceOnUse" color-interpolation-filters="sRGB">
<feFlood flood-opacity="0" result="BackgroundImageFix"/>
<feColorMatrix in="SourceAlpha" type="matrix" values="0 0 0 0 0 0 0 0 0 0 0 0 0 0 0 0 0 0 127 0"/>
<feOffset dy="4"/>
<feGaussianBlur stdDeviation="2"/>
<feColorMatrix type="matrix" values="0 0 0 0 0 0 0 0 0 0 0 0 0 0 0 0 0 0 0.25 0"/>
<feBlend mode="normal" in2="BackgroundImageFix" result="effect1_dropShadow"/>
<feBlend mode="normal" in="SourceGraphic" in2="effect1_dropShadow" result="shape"/>
</filter>
</defs>
</svg>
