<svg width="70" height="76" viewBox="0 0 70 76" fill="none" xmlns="http://www.w3.org/2000/svg">
<g filter="url(#filter0_d)">
<path d="M34.625 68.0001C33.8709 68.0012 33.1293 67.8073 32.4722 67.4373L6.22219 52.6001C5.54819 52.2184 4.98744 51.6647 4.59708 50.9957C4.20672 50.3266 4.0007 49.566 4 48.7914V19.2089C4.0007 18.4343 4.20672 17.6737 4.59708 17.0046C4.98744 16.3356 5.54819 15.7819 6.22219 15.4001L32.4722 0.562952C33.1297 0.193856 33.871 0 34.625 0C35.379 0 36.1203 0.193856 36.7778 0.562952L63.0278 15.4001C63.7018 15.7819 64.2626 16.3356 64.6529 17.0046C65.0433 17.6737 65.2493 18.4343 65.25 19.2089V48.7914C65.2494 49.566 65.0434 50.3266 64.6531 50.9956C64.2628 51.6647 63.7021 52.2183 63.0281 52.6001L36.7778 67.4373C36.1207 67.8072 35.3791 68.0009 34.625 67.9998V68.0001ZM34.625 3.74701C34.5173 3.74694 34.4113 3.77471 34.3175 3.82764L8.0675 18.6648C7.97128 18.7194 7.89121 18.7984 7.83544 18.8939C7.77968 18.9894 7.75019 19.098 7.75 19.2086V48.7914C7.75008 48.9021 7.77951 49.0108 7.83529 49.1064C7.89106 49.202 7.97118 49.2812 8.0675 49.3358L34.3175 64.1726C34.4114 64.2254 34.5173 64.2531 34.625 64.2531C34.7327 64.2531 34.8386 64.2254 34.9325 64.1726L61.1825 49.3354C61.2787 49.2809 61.3588 49.2019 61.4146 49.1064C61.4704 49.0109 61.4998 48.9023 61.5 48.7917V19.2086C61.4999 19.0979 61.4705 18.9892 61.4147 18.8935C61.3589 18.7979 61.2788 18.7188 61.1825 18.6642L34.9325 3.82733C34.8386 3.77451 34.7327 3.74684 34.625 3.74701Z" fill="#333333"/>
<path d="M34.5606 67.7497L34.6254 67.7498C35.3362 67.7509 36.0353 67.5683 36.6548 67.2197L34.5606 67.7497ZM34.5606 67.7497C33.8717 67.74 33.1958 67.5578 32.5948 67.2195L6.3454 52.3826L34.5606 67.7497ZM34.6249 3.49701C34.4741 3.49696 34.326 3.53584 34.1947 3.60989L34.1945 3.61L7.94448 18.4472L7.94425 18.4473C7.80961 18.5236 7.69758 18.6342 7.61955 18.7678C7.54152 18.9015 7.50027 19.0534 7.5 19.2081V19.2086V48.7914V48.7916C7.50012 48.9465 7.54129 49.0986 7.61933 49.2324C7.69737 49.3662 7.80948 49.4769 7.94425 49.5533L7.94449 49.5534L34.1945 64.3903L34.1951 64.3906C34.3264 64.4643 34.4744 64.5031 34.625 64.5031C34.7756 64.5031 34.9236 64.4643 35.0549 64.3906L35.0555 64.3903L61.3055 49.5531L61.3057 49.553C61.4404 49.4767 61.5524 49.3661 61.6305 49.2325C61.7085 49.0988 61.7498 48.9468 61.75 48.7921V48.7917V19.2086V19.2084C61.7499 19.0535 61.7087 18.9014 61.6307 18.7676C61.5526 18.6338 61.4405 18.5231 61.3058 18.4467L61.3055 18.4466L35.0555 3.60969L35.0551 3.60945C34.9238 3.53555 34.7756 3.49682 34.6249 3.49701ZM34.6249 3.49701C34.6248 3.49701 34.6247 3.49702 34.6246 3.49702L34.625 3.74701L34.6252 3.49701C34.6251 3.49701 34.625 3.49701 34.6249 3.49701ZM62.9049 52.3826L36.6552 67.2195L6.3452 52.3825C5.70975 52.0225 5.18107 51.5005 4.81302 50.8697C4.44493 50.2388 4.25066 49.5216 4.25 48.7912L4.25 19.209C4.25068 18.4786 4.44495 17.7615 4.81302 17.1306C5.18111 16.4997 5.70986 15.9777 6.3454 15.6177L32.5946 0.78095C32.5947 0.780865 32.5949 0.780779 32.595 0.780694C33.215 0.432746 33.914 0.25 34.625 0.25C35.336 0.25 36.035 0.432755 36.655 0.780719C36.6552 0.780796 36.6553 0.780873 36.6554 0.78095L62.9046 15.6177C63.5401 15.9777 64.0689 16.4997 64.437 17.1306C64.8051 17.7615 64.9993 18.4787 65 19.2091V48.7912C64.9994 49.5216 64.8052 50.2388 64.4372 50.8697C64.0691 51.5006 63.5404 52.0226 62.9049 52.3826Z" stroke="#880000" stroke-width="0.5"/>
</g>
<g clip-path="url(#clip0)" filter="url(#filter1_d)">
<g filter="url(#filter2_d)">
<path d="M32.1508 41.8848C32.0939 41.8848 32.037 41.8634 31.9944 41.8279C31.9162 41.7639 31.8806 41.6573 31.9162 41.5578L32.9967 38.2521C33.0109 38.1952 33.0536 38.1525 33.0962 38.117L33.8925 37.6052C33.9351 37.5767 33.9778 37.5625 34.0275 37.5625C34.0702 37.5625 34.1128 37.5696 34.1484 37.5909C34.2266 37.6336 34.2763 37.7189 34.2763 37.8113V40.5625C34.2763 40.6549 34.2266 40.7331 34.1484 40.7758L32.2716 41.8421C32.2361 41.8706 32.1934 41.8848 32.1508 41.8848ZM32.5844 41.1028L33.7787 40.4274L33.7929 38.2236L33.409 38.5151L32.5844 41.1028Z" fill="#880000"/>
<path d="M36.9402 39.9844C36.8976 39.9844 36.8549 39.9702 36.8123 39.9489C36.7341 39.9062 36.6914 39.8209 36.6914 39.7356V33.501C36.6914 33.4086 36.7412 33.3304 36.8194 33.2877L47.9947 26.8754C48.0303 26.8541 48.0729 26.8398 48.1156 26.8398C48.1582 26.8398 48.2009 26.8541 48.2435 26.8754C48.3217 26.918 48.3644 27.0034 48.3644 27.0887V33.3233C48.3644 33.4157 48.3146 33.4939 48.2364 33.5365L37.0611 39.9489C37.0255 39.9702 36.9829 39.9844 36.9402 39.9844ZM37.189 33.6432V39.3019L47.8667 33.174V27.5152L37.189 33.6432Z" fill="#880000"/>
<path d="M28.9218 49.391C28.8791 49.391 28.8365 49.3768 28.8009 49.3555L20.128 44.3507C20.0498 44.3081 20 44.2227 20 44.1374V41.7844C20 40.2133 20.6682 38.7133 21.8341 37.6611L21.8981 37.6043L23.128 32.5498L23.1919 32.2938C23.2062 32.2299 23.2488 32.173 23.3057 32.1374L26.3839 30.3389V27.5521C26.3839 27.4597 26.4337 27.3815 26.5118 27.3389L40.9573 19.0355C40.9929 19.0142 41.0355 19 41.0782 19C41.1209 19 41.1635 19.0142 41.1991 19.0355L49.872 24.0403C49.9502 24.0829 50 24.1682 50 24.2536V34.263C50 34.3483 49.9502 34.4337 49.872 34.4763L48.7773 35.1019V37.8957C48.7773 37.981 48.7275 38.0664 48.6493 38.109L47.9028 38.5427L47.9242 38.7275C47.9313 38.7844 47.9313 38.8341 47.9384 38.8839C47.9597 39.4313 47.7891 40.0427 47.4692 40.6043C47.1422 41.1659 46.7014 41.6137 46.2109 41.8697C45.9337 42.019 45.6493 42.09 45.3791 42.09C45.1588 42.09 44.9597 42.0403 44.782 41.9408L43.8934 41.4431L43.9218 41.5L43.2962 41.173L36.8412 44.8981L36.8697 45.09C36.8839 45.1682 36.891 45.2536 36.891 45.3318C36.9123 45.8791 36.7417 46.4905 36.4218 47.0521C35.8957 47.9621 35.0782 48.545 34.3318 48.545C34.1114 48.545 33.9052 48.4953 33.7204 48.3886C33.6706 48.3602 32.9171 47.9052 32.4194 47.6066L32.2773 47.5213L29.2915 49.2133L29.0355 49.3555C29.0071 49.3768 28.9645 49.391 28.9218 49.391ZM32.3199 37.519L30.8128 42.6872C30.7986 42.7227 30.7844 42.7583 30.7559 42.7867L30.5853 42.9645C29.6754 43.91 29.1777 45.154 29.1777 46.4621V48.7085L33.1232 46.4692L33.1517 46.3483C33.2299 46.0213 33.3649 45.6943 33.5427 45.3815C33.891 44.7773 34.3744 44.3081 34.9005 44.0664L35.064 43.9882V35.9123L32.3199 37.519ZM20.4976 43.9953L28.673 48.7156V47.3507L27.2014 46.4621C27.1303 46.4194 27.0806 46.3341 27.0806 46.2488V44.436C27.0806 44.3507 27.1303 44.2654 27.2085 44.2227C27.2441 44.2014 27.2867 44.1872 27.3294 44.1872C27.372 44.1872 27.4147 44.2014 27.4573 44.2227L28.8578 45.0332L28.9716 44.7062C29.1919 44.0592 29.519 43.4692 29.9597 42.9431L30.173 42.6872L22.1611 38.0592L22.0047 38.2085C21.4573 38.7488 21.0379 39.41 20.7891 40.128L20.7109 40.3483L21.9692 41.0735C22.0474 41.1161 22.0972 41.2014 22.0972 41.2867V43.0782C22.0972 43.1635 22.0474 43.2488 21.9763 43.2915C21.9408 43.3128 21.8981 43.327 21.8483 43.327C21.8057 43.327 21.763 43.3128 21.7275 43.2915L20.5118 42.609V43.9953H20.4976ZM35.6185 44.3934C35.0711 44.3934 34.3886 44.9052 33.9692 45.6374C33.4289 46.5758 33.4289 47.6422 33.9763 47.9621C34.0829 48.0261 34.2038 48.0545 34.3389 48.0545C34.8863 48.0545 35.5687 47.5427 35.9882 46.8104C36.2654 46.3341 36.4076 45.8081 36.3934 45.3531C36.3791 44.9408 36.2299 44.628 35.981 44.4858C35.8815 44.4218 35.7536 44.3934 35.6185 44.3934ZM27.5782 46.1066L28.6659 46.7607L28.6801 46.2773C28.6872 46.0924 28.7014 45.9076 28.7227 45.7299L28.7512 45.5379L27.5782 44.8626V46.1066ZM35.5545 42.7085V43.8744L35.8033 43.91C35.9597 43.9313 36.1019 43.981 36.237 44.0592C36.3365 44.1161 36.4218 44.1872 36.5071 44.2725L36.6635 44.436L44.1635 40.1066L44.1919 39.9858C44.2701 39.6303 44.4052 39.282 44.5972 38.9479C44.9242 38.3863 45.3649 37.9384 45.8555 37.6825C46.1327 37.5332 46.4171 37.4621 46.6872 37.4621C46.9147 37.4621 47.1137 37.5118 47.2986 37.6185C47.4194 37.6896 47.5261 37.782 47.6185 37.8886L47.7749 38.0735L48.3081 37.7678V35.4076L35.5545 42.7085ZM20.5261 41.2725C20.5118 41.4502 20.4976 41.6209 20.4976 41.7844V42.0332L21.5853 42.6446V41.4218L20.5687 40.8318L20.5261 41.2725ZM22.41 37.6185L30.4218 42.2464L31.1825 39.6303L23.0569 34.9384L22.41 37.6185ZM35.5545 32.6991V42.1327L49.5024 34.1209V24.6872L35.5545 32.6991ZM46.6659 37.9455C46.481 37.9455 46.2749 38.0024 46.0687 38.109C45.6706 38.3223 45.2867 38.7133 45.0095 39.1825C44.7322 39.6588 44.59 40.1848 44.6043 40.6398C44.6185 41.0521 44.7678 41.3649 45.0166 41.5071C45.1232 41.5711 45.2441 41.5995 45.3791 41.5995C45.564 41.5995 45.7701 41.5427 45.9763 41.436C46.3744 41.2227 46.7583 40.8318 47.0355 40.3554C47.3128 39.8791 47.455 39.3531 47.4408 38.8981C47.4265 38.4858 47.2773 38.173 47.0284 38.0308C46.9218 37.981 46.8009 37.9455 46.6659 37.9455ZM23.1848 34.4337L31.3318 39.1327L31.8152 37.4692L23.5972 32.7275L23.1848 34.4337ZM23.9313 32.3436L32.1066 37.064L34.8081 35.4858L26.6327 30.7654L23.9313 32.3436ZM26.8815 30.3389L35.0569 35.0592V32.6991L26.8815 27.9787V30.3389ZM27.1374 27.5521L35.3128 32.2725L49.2536 24.2536L41.0782 19.5332L27.1374 27.5521Z" fill="#880000"/>
</g>
</g>
<defs>
<filter id="filter0_d" x="0" y="0" width="69.25" height="76.0001" filterUnits="userSpaceOnUse" color-interpolation-filters="sRGB">
<feFlood flood-opacity="0" result="BackgroundImageFix"/>
<feColorMatrix in="SourceAlpha" type="matrix" values="0 0 0 0 0 0 0 0 0 0 0 0 0 0 0 0 0 0 127 0"/>
<feOffset dy="4"/>
<feGaussianBlur stdDeviation="2"/>
<feColorMatrix type="matrix" values="0 0 0 0 0 0 0 0 0 0 0 0 0 0 0 0 0 0 0.25 0"/>
<feBlend mode="normal" in2="BackgroundImageFix" result="effect1_dropShadow"/>
<feBlend mode="normal" in="SourceGraphic" in2="effect1_dropShadow" result="shape"/>
</filter>
<filter id="filter1_d" x="16" y="19" width="38" height="38.391" filterUnits="userSpaceOnUse" color-interpolation-filters="sRGB">
<feFlood flood-opacity="0" result="BackgroundImageFix"/>
<feColorMatrix in="SourceAlpha" type="matrix" values="0 0 0 0 0 0 0 0 0 0 0 0 0 0 0 0 0 0 127 0"/>
<feOffset dy="4"/>
<feGaussianBlur stdDeviation="2"/>
<feColorMatrix type="matrix" values="0 0 0 0 0 0 0 0 0 0 0 0 0 0 0 0 0 0 0.25 0"/>
<feBlend mode="normal" in2="BackgroundImageFix" result="effect1_dropShadow"/>
<feBlend mode="normal" in="SourceGraphic" in2="effect1_dropShadow" result="shape"/>
</filter>
<filter id="filter2_d" x="16" y="19" width="38" height="38.391" filterUnits="userSpaceOnUse" color-interpolation-filters="sRGB">
<feFlood flood-opacity="0" result="BackgroundImageFix"/>
<feColorMatrix in="SourceAlpha" type="matrix" values="0 0 0 0 0 0 0 0 0 0 0 0 0 0 0 0 0 0 127 0"/>
<feOffset dy="4"/>
<feGaussianBlur stdDeviation="2"/>
<feColorMatrix type="matrix" values="0 0 0 0 0 0 0 0 0 0 0 0 0 0 0 0 0 0 0.25 0"/>
<feBlend mode="normal" in2="BackgroundImageFix" result="effect1_dropShadow"/>
<feBlend mode="normal" in="SourceGraphic" in2="effect1_dropShadow" result="shape"/>
</filter>
<clipPath id="clip0">
<rect width="30" height="30.391" fill="white" transform="translate(20 19)"/>
</clipPath>
</defs>
</svg>
