<svg width="12" height="16" fill="none" xmlns="http://www.w3.org/2000/svg"><g clip-path="url(#clip0)"><path d="M2.603 1.417a.574.574 0 00-.184.236.83.83 0 00-.068.333V13.56a.83.83 0 00.068.332c.045.1.108.181.184.236a.37.37 0 00.247.072.397.397 0 00.238-.112L9.2 8.301a.62.62 0 00.15-.23.837.837 0 000-.597.62.62 0 00-.15-.23L3.088 1.458a.396.396 0 00-.238-.114.368.368 0 00-.247.073z" fill="#3F72AF"/></g><defs><clipPath id="clip0"><path fill="#fff" transform="rotate(-90 7.744 7.744)" d="M0 0h15.43v11.283H0z"/></clipPath></defs></svg>