<svg width="17" height="20" fill="none" xmlns="http://www.w3.org/2000/svg"><path d="M5.286 14h.01m-.01-11H3.143c-.568 0-1.114.21-1.515.586A1.935 1.935 0 001 5v12c0 .53.226 1.04.628 1.414.401.375.947.586 1.515.586h10.714c.569 0 1.114-.21 1.515-.586.402-.375.628-.884.628-1.414V5c0-.53-.226-1.04-.628-1.414A2.223 2.223 0 0013.857 3H5.286zm0 0c0 .53.225 1.04.627 1.414A2.22 2.22 0 007.43 5h2.14a2.22 2.22 0 001.516-.586c.402-.375.627-.884.627-1.414H5.286zm0 0c0-.53.225-1.04.627-1.414A2.223 2.223 0 017.43 1h2.14c.569 0 1.114.21 1.516.586.402.375.627.884.627 1.414H5.286zM8.5 10h3.214H8.5zm0 4h3.214H8.5zm-3.214-4h.01-.01z" stroke="#FFB401" stroke-width="2" stroke-linecap="round" stroke-linejoin="round"/><mask id="a" fill="#fff"><path fill-rule="evenodd" clip-rule="evenodd" d="M16 13.438h-4a.539.539 0 00-.354.128.412.412 0 00-.146.309v5.25c0 .116.053.227.146.31a.539.539 0 00.354.128h4a.54.54 0 00.354-.129.412.412 0 00.146-.309v-5.25a.412.412 0 00-.146-.31.539.539 0 00-.354-.127zM12 13c-.265 0-.52.092-.707.256a.824.824 0 00-.293.619v5.25c0 .232.105.455.293.619.187.164.442.256.707.256h4c.265 0 .52-.092.707-.256a.824.824 0 00.293-.619v-5.25a.824.824 0 00-.293-.619A1.077 1.077 0 0016 13h-4z"/></mask><path fill-rule="evenodd" clip-rule="evenodd" d="M16 13.438h-4a.539.539 0 00-.354.128.412.412 0 00-.146.309v5.25c0 .116.053.227.146.31a.539.539 0 00.354.128h4a.54.54 0 00.354-.129.412.412 0 00.146-.309v-5.25a.412.412 0 00-.146-.31.539.539 0 00-.354-.127zM12 13c-.265 0-.52.092-.707.256a.824.824 0 00-.293.619v5.25c0 .232.105.455.293.619.187.164.442.256.707.256h4c.265 0 .52-.092.707-.256a.824.824 0 00.293-.619v-5.25a.824.824 0 00-.293-.619A1.077 1.077 0 0016 13h-4z" fill="#FFB401"/><path d="M16 13.438v-.5.5zm-4 0v-.5.5zm-.5.437H11h.5zm0 5.25H11h.5zM12 13v-.5.5zm-1 .875h-.5.5zm0 5.25h-.5.5zm5-6.188h-4v1h4v-1zm-4 0a1.04 1.04 0 00-.683.252l.659.753.003-.001a.064.064 0 01.021-.004v-1zm-.683.252a.911.911 0 00-.317.686h1c0 .04-.019.062-.024.067l-.659-.753zm-.317.686v5.25h1v-5.25h-1zm0 5.25c0 .272.124.517.317.686l.659-.753a.091.091 0 01.024.067h-1zm.317.686c.191.167.438.252.683.252v-1a.064.064 0 01-.021-.004c-.005-.002-.006-.003-.003 0l-.659.752zm.683.252h4v-1h-4v1zm4 0c.245 0 .492-.085.683-.252l-.659-.753-.003.001a.064.064 0 01-.021.003v1zm.683-.252a.911.911 0 00.317-.686h-1c0-.04.019-.062.024-.067l.659.753zm.317-.686v-5.25h-1v5.25h1zm0-5.25a.911.911 0 00-.317-.686l-.659.753a.091.091 0 01-.024-.067h1zm-.317-.686a1.038 1.038 0 00-.683-.252v1c.009 0 .016.002.021.004.005.002.006.003.003 0l.659-.752zM12 12.5c-.378 0-.752.13-1.036.38l.658.753A.578.578 0 0112 13.5v-1zm-1.036.38a1.323 1.323 0 00-.464.995h1c0-.076.034-.165.122-.242l-.658-.753zm-.464.995v5.25h1v-5.25h-1zm0 5.25c0 .388.177.744.464.995l.658-.753a.325.325 0 01-.122-.242h-1zm.464.995c.284.25.658.38 1.036.38v-1a.578.578 0 01-.378-.133l-.658.753zM12 20.5h4v-1h-4v1zm4 0c.378 0 .752-.13 1.036-.38l-.658-.753A.578.578 0 0116 19.5v1zm1.036-.38c.287-.251.464-.607.464-.995h-1a.325.325 0 01-.122.242l.658.753zm.464-.995v-5.25h-1v5.25h1zm0-5.25c0-.388-.177-.744-.464-.995l-.658.753a.325.325 0 01.122.242h1zm-.464-.995A1.576 1.576 0 0016 12.5v1c.153 0 .288.054.378.133l.658-.753zM16 12.5h-4v1h4v-1z" fill="#000" mask="url(#a)"/><mask id="b" fill="#fff"><path d="M12 14.094c0-.058.026-.114.073-.155a.269.269 0 01.177-.064h3.5a.27.27 0 01.177.064.206.206 0 01.073.155v.875a.206.206 0 01-.073.154.269.269 0 01-.177.065h-3.5a.269.269 0 01-.177-.065.206.206 0 01-.073-.154v-.875zm0 1.75c0-.058.026-.114.073-.155a.269.269 0 01.177-.064h.5a.27.27 0 01.177.064.206.206 0 01.073.155v.437a.206.206 0 01-.073.155.269.269 0 01-.177.064h-.5a.269.269 0 01-.177-.064.206.206 0 01-.073-.155v-.437zm0 1.312c0-.058.026-.113.073-.154a.269.269 0 01.177-.064h.5a.27.27 0 01.177.064.206.206 0 01.073.154v.438a.206.206 0 01-.073.154.269.269 0 01-.177.064h-.5a.269.269 0 01-.177-.064.206.206 0 01-.073-.154v-.438zm0 1.313c0-.058.026-.114.073-.155a.269.269 0 01.177-.064h.5a.27.27 0 01.177.064.206.206 0 01.073.155v.437a.206.206 0 01-.073.155.269.269 0 01-.177.064h-.5a.269.269 0 01-.177-.064.206.206 0 01-.073-.155v-.437zm1.5-2.625c0-.058.026-.114.073-.155a.269.269 0 01.177-.064h.5a.27.27 0 01.177.064.206.206 0 01.073.155v.437a.206.206 0 01-.073.155.269.269 0 01-.177.064h-.5a.269.269 0 01-.177-.064.206.206 0 01-.073-.155v-.437zm0 1.312c0-.058.026-.113.073-.154a.269.269 0 01.177-.064h.5a.27.27 0 01.177.064.206.206 0 01.073.154v.438a.206.206 0 01-.073.154.269.269 0 01-.177.064h-.5a.269.269 0 01-.177-.064.206.206 0 01-.073-.154v-.438zm0 1.313c0-.058.026-.114.073-.155a.269.269 0 01.177-.064h.5a.27.27 0 01.177.064.206.206 0 01.073.155v.437a.206.206 0 01-.073.155.269.269 0 01-.177.064h-.5a.269.269 0 01-.177-.064.206.206 0 01-.073-.155v-.437zm1.5-2.625c0-.058.026-.114.073-.155a.269.269 0 01.177-.064h.5a.27.27 0 01.177.064.206.206 0 01.073.155v.437a.206.206 0 01-.073.155.269.269 0 01-.177.064h-.5a.269.269 0 01-.177-.064.206.206 0 01-.073-.155v-.437zm0 1.312c0-.058.026-.113.073-.154a.269.269 0 01.177-.064h.5a.27.27 0 01.177.064.206.206 0 01.073.154v1.75a.206.206 0 01-.073.155.269.269 0 01-.177.064h-.5a.269.269 0 01-.177-.064.206.206 0 01-.073-.155v-1.75z"/></mask><path d="M12 14.094c0-.058.026-.114.073-.155a.269.269 0 01.177-.064h3.5a.27.27 0 01.177.064.206.206 0 01.073.155v.875a.206.206 0 01-.073.154.269.269 0 01-.177.065h-3.5a.269.269 0 01-.177-.065.206.206 0 01-.073-.154v-.875zm0 1.75c0-.058.026-.114.073-.155a.269.269 0 01.177-.064h.5a.27.27 0 01.177.064.206.206 0 01.073.155v.437a.206.206 0 01-.073.155.269.269 0 01-.177.064h-.5a.269.269 0 01-.177-.064.206.206 0 01-.073-.155v-.437zm0 1.312c0-.058.026-.113.073-.154a.269.269 0 01.177-.064h.5a.27.27 0 01.177.064.206.206 0 01.073.154v.438a.206.206 0 01-.073.154.269.269 0 01-.177.064h-.5a.269.269 0 01-.177-.064.206.206 0 01-.073-.154v-.438zm0 1.313c0-.058.026-.114.073-.155a.269.269 0 01.177-.064h.5a.27.27 0 01.177.064.206.206 0 01.073.155v.437a.206.206 0 01-.073.155.269.269 0 01-.177.064h-.5a.269.269 0 01-.177-.064.206.206 0 01-.073-.155v-.437zm1.5-2.625c0-.058.026-.114.073-.155a.269.269 0 01.177-.064h.5a.27.27 0 01.177.064.206.206 0 01.073.155v.437a.206.206 0 01-.073.155.269.269 0 01-.177.064h-.5a.269.269 0 01-.177-.064.206.206 0 01-.073-.155v-.437zm0 1.312c0-.058.026-.113.073-.154a.269.269 0 01.177-.064h.5a.27.27 0 01.177.064.206.206 0 01.073.154v.438a.206.206 0 01-.073.154.269.269 0 01-.177.064h-.5a.269.269 0 01-.177-.064.206.206 0 01-.073-.154v-.438zm0 1.313c0-.058.026-.114.073-.155a.269.269 0 01.177-.064h.5a.27.27 0 01.177.064.206.206 0 01.073.155v.437a.206.206 0 01-.073.155.269.269 0 01-.177.064h-.5a.269.269 0 01-.177-.064.206.206 0 01-.073-.155v-.437zm1.5-2.625c0-.058.026-.114.073-.155a.269.269 0 01.177-.064h.5a.27.27 0 01.177.064.206.206 0 01.073.155v.437a.206.206 0 01-.073.155.269.269 0 01-.177.064h-.5a.269.269 0 01-.177-.064.206.206 0 01-.073-.155v-.437zm0 1.312c0-.058.026-.113.073-.154a.269.269 0 01.177-.064h.5a.27.27 0 01.177.064.206.206 0 01.073.154v1.75a.206.206 0 01-.073.155.269.269 0 01-.177.064h-.5a.269.269 0 01-.177-.064.206.206 0 01-.073-.155v-1.75z" fill="#FFB401" stroke="#000" mask="url(#b)"/></svg>