<svg width="17" height="20" fill="none" xmlns="http://www.w3.org/2000/svg"><path d="M5.286 14h.01m-.01-11H3.143c-.568 0-1.114.21-1.515.586A1.935 1.935 0 001 5v12c0 .53.226 1.04.628 1.414.401.375.947.586 1.515.586h10.714c.569 0 1.114-.21 1.515-.586.402-.375.628-.884.628-1.414V5c0-.53-.226-1.04-.628-1.414A2.223 2.223 0 0013.857 3H5.286zm0 0c0 .53.225 1.04.627 1.414A2.22 2.22 0 007.43 5h2.14a2.22 2.22 0 001.516-.586c.402-.375.627-.884.627-1.414H5.286zm0 0c0-.53.225-1.04.627-1.414A2.223 2.223 0 017.43 1h2.14c.569 0 1.114.21 1.516.586.402.375.627.884.627 1.414H5.286zM8.5 10h3.214H8.5zm0 4h3.214H8.5zm-3.214-4h.01-.01z" stroke="#FFB401" stroke-width="2" stroke-linecap="round" stroke-linejoin="round"/></svg>