<svg width="102" height="40" fill="none" xmlns="http://www.w3.org/2000/svg"><path fill-rule="evenodd" clip-rule="evenodd" d="M85.198 39.859V20.72H73.993v19.14h11.205zm0-20.72H73.993V0h11.205v19.138zm14.407 1.595c1.474 2.09 2.395 4.605 2.395 7.161 0 6.582-5.397 11.964-12 11.964h-3.2V20.72l12.805.014zm-12.806-1.596l11.376.029c-1.02-.947-2.409-1.865-3.755-2.359 2.777-1.61 4.576-4.604 4.576-7.84C98.996 4.069 94.917 0 90 0h-3.2v19.138zm-32.81 20.72H42.812V20.72h11.177v19.14zm0-20.72H42.812V0h11.177v19.138zm1.601 20.72V20.72l12.806.014c1.473 2.09 2.395 4.605 2.395 7.161 0 6.582-5.398 11.964-11.999 11.964H55.59zm0-20.72V0h3.202c4.916 0 9.01 4.068 9.01 8.969 0 3.235-1.814 6.229-4.591 7.84 1.346.493 2.734 1.411 3.755 2.358l-11.376-.029zm-36.38 0H7.282L13.997.001h5.213v19.137zm13.515 0L25.996 0h-5.185v19.138h11.914zm7.282 20.72H30.005l-2.79-7.965H20.81V20.72h12.481l6.715 19.139zM0 39.859h10.002l2.805-7.965h6.404V20.72H6.729L0 39.86z" fill="#B0B0B0"/></svg>