<svg width="134" height="22" fill="none" xmlns="http://www.w3.org/2000/svg"><path fill-rule="evenodd" clip-rule="evenodd" d="M20.368 9.507v-7.26a19.912 19.912 0 00-6.21-.987C5.95 1.26 0 5.616 0 11.562c0 3.425 1.922 6.302 5.47 8.247 2.403 1.316 5.36 2.032 8.577 2.032 2.07 0 4.104-.3 6.21-.936l.296-7.37c-2.107 1.15-3.918 1.808-5.877 1.808-3.105 0-4.99-1.535-4.99-3.781 0-2.384 2.107-3.891 5.175-3.891 1.995 0 3.77.604 5.507 1.836zm11.866 2.987c.185-1.068.924-1.588 2.07-1.588 1.293 0 1.923.493 2.032 1.588h-4.102zm12.79 3.014c.036-.246.036-.493.036-.74 0-4.548-4.583-7.726-10.978-7.726-6.396 0-10.904 3.342-10.904 7.397s4.546 7.402 10.904 7.402c5.285 0 9.018-1.785 10.387-4.69l-8.391-.41c-.407.712-1.036 1.068-1.849 1.068-1.404 0-2.07-.686-2.07-2.083v-.219h12.864v.001zm2.847 5.809h9.093v-5.48c0-1.699 1.331-2.658 3.623-2.658.74 0 1.59.218 2.551.602V7.07c-.223-.027-.444-.027-.666-.027-2.402 0-4.325.821-5.803 2.383V7.48H47.87v13.837zm26.245-8.823c.185-1.068.924-1.588 2.07-1.588 1.294 0 1.923.493 2.034 1.588h-4.104zm12.79 3.014c.036-.246.036-.493.036-.74 0-4.548-4.583-7.726-10.978-7.726S65.06 10.384 65.06 14.439s4.547 7.402 10.905 7.402c5.286 0 9.019-1.785 10.386-4.69l-8.39-.41c-.407.712-1.035 1.068-1.848 1.068-1.405 0-2.07-.686-2.07-2.083v-.219h12.864v.001zm.888 4.822a24.798 24.798 0 008.612 1.511c5.767 0 9.205-2.333 9.205-5.266 0-2.054-1.738-3.205-5.285-3.835-1.886-.33-2.922-.384-2.922-.987 0-.411.519-.713 1.368-.713.998 0 2.366.439 4.029 1.26l2.218-4.164c-2.108-.713-4.583-1.096-7.135-1.096-5.433 0-8.835 2.164-8.835 4.932 0 2.082 1.627 3.342 5.028 3.918 1.516.246 2.476.246 2.476.905 0 .493-.517.794-1.476.794-1.147 0-2.81-.493-4.88-1.534l-2.403 4.275zm20.182.987h9.057V7.48h-9.057v13.837zm9.426-18.14c0-1.917-1.773-3.177-4.879-3.177s-4.915 1.26-4.915 3.178c0 1.917 1.847 3.234 4.915 3.234 3.069 0 4.879-1.316 4.879-3.234zm4.954 18.14h9.056v-8.74H134V7.48h-2.588V2.904h-9.056V7.48h-2.55v5.096h2.55v8.74z" fill="#777"/></svg>