<svg width="152" height="30" fill="none" xmlns="http://www.w3.org/2000/svg"><path fill-rule="evenodd" clip-rule="evenodd" d="M144.873 24.371l5.682-15.793h-15.694c-2.03 0-4.241 1.633-4.962 3.63l-4.284 11.755h-8.39l4.059-10.665h4.285l2.029-5.628h-4.194L126.291 0h-7.442l-2.796 7.67h-4.916l-2.03 5.628h4.917l-3.88 10.665h-8.569l5.999-15.93h-7.306l-5.909 16.294h-6.766L85.7 18.2l10.914-9.848h-7.758l-8.794 7.943h-.677L85.069.544h-6.811L69.64 24.371h-6.27l5.638-15.793h-15.65c-2.03 0-4.24 1.633-5.006 3.63L43.84 24.735h-5.864L43.84 8.532H30.987l1.398-3.903H19.801L21.155.907H0v6.809h11.907L3.834 30h6.765l6.72-18.518h5.819L16.418 30h6.81l5.278-14.615h6.089L29.318 30h10.825l3.473-3.587c.045 1.771.947 3.587 2.48 3.587h6.224l3.744-3.995c-.09 1.861.857 3.995 2.48 3.995h6.225l4.375-4.313L67.61 30h6.81l4.015-11.075h.767L82.63 30h7.262l4.105-4.357c-.18 1.951.811 4.22 2.48 4.22h9.066l4.196-4.63c-.362 1.998.629 4.63 2.434 4.63h9.067l3.924-4.311c-.316 1.951.676 4.448 2.434 4.448h6.225l3.743-3.995c-.09 1.861.857 3.995 2.48 3.995H152v-5.629h-7.127zm-88.493-.135h-5.367l3.564-9.85h5.367l-3.564 9.85zm81.502 0h-5.366l3.608-9.85h5.322l-3.564 9.85z" fill="#ABABAB"/></svg>