<svg width="150" height="37" fill="none" xmlns="http://www.w3.org/2000/svg"><path fill-rule="evenodd" clip-rule="evenodd" d="M115.529 8.464c-2.054 0-3.094.346-4.267 1.684V4h-5.913v16.628h5.505v-1.684c1.272 1.416 2.802 2.056 4.921 2.056 3.843 0 6.516-2.671 6.516-6.495 0-3.956-2.853-6.04-6.762-6.04zm-1.807 9.944c-1.922 0-3.062-1.362-3.062-3.743 0-2.593 1.075-3.608 2.997-3.608 1.856 0 3.095 1.175 3.095 3.504 0 2.433-1.107 3.847-3.03 3.847zm-8.737-2.994c-.064-2.218-.226-3.314-.683-4.171-1.044-2.005-3.781-3.182-7.298-3.182-5.343 0-8.34 2.353-8.34 6.552 0 4.17 2.899 6.363 8.44 6.363 4.883 0 7.425-1.47 7.589-4.359h-5.246c0 1.15-.878 1.766-2.508 1.766-1.759 0-2.769-.99-2.769-2.753v-.216h10.815zm-8.015-4.892c1.597 0 2.507.91 2.605 2.54h-5.342c.132-1.739.979-2.54 2.737-2.54zm-11.8-1.309l-2.41 6.418c-.13.372-.293 1.123-.425 1.896-.097-.8-.358-1.844-.585-2.38l-2.868-5.934h-4.51l-2.477 5.853c-.162.402-.39 1.498-.521 2.408-.13-1.15-.162-1.39-.522-2.408l-2.346-5.853H63l5.604 11.416h4.66l2.652-5.906c.457-1.098.557-1.417.652-2.195.098 1.231.166 1.419.489 2.22l2.246 5.88h5.573l4.887-11.415H85.17zm53.853 6.202c-.068-2.22-.23-3.315-.685-4.172-1.044-2.005-3.781-3.182-7.299-3.182-5.342 0-8.341 2.353-8.341 6.552 0 4.17 2.903 6.363 8.44 6.363 4.885 0 7.429-1.47 7.59-4.359h-5.245c0 1.15-.879 1.766-2.509 1.766-1.758 0-2.769-.99-2.769-2.753v-.216h10.818zm-8.016-4.893c1.597 0 2.507.91 2.607 2.54h-5.344c.131-1.739.977-2.54 2.737-2.54zm14.009 1.096V9.615h-5.507v11.014h5.507v-4.357c0-1.791.195-2.328 1.008-2.97.782-.613 1.663-.774 3.976-.774V9.026c-2.735.16-3.944.776-4.984 2.592z" fill="#606060"/><path fill-rule="evenodd" clip-rule="evenodd" d="M150 37H65V25h85v12z" fill="#D1D1D1"/><path fill-rule="evenodd" clip-rule="evenodd" d="M101.105 28.45c-2.645 0-4.786 1.743-4.786 3.892 0 2.148 2.142 3.891 4.786 3.891 2.643 0 4.786-1.743 4.786-3.891 0-2.15-2.144-3.893-4.786-3.893zm0 5.709c-.944 0-1.707-.813-1.707-1.817 0-1.003.764-1.815 1.707-1.815.946 0 1.709.813 1.709 1.815 0 1.004-.763 1.817-1.709 1.817zm-14.974-5.921c-1.206 0-1.819.208-2.505 1.016v-3.71h-3.478v10.04h3.237v-1.017c.746.854 1.646 1.242 2.891 1.242 2.26 0 3.832-1.614 3.832-3.924-.001-2.388-1.677-3.647-3.977-3.647zm-1.06 6.005c-1.131 0-1.801-.822-1.801-2.259 0-1.567.63-2.179 1.76-2.179 1.092 0 1.819.71 1.819 2.114 0 1.47-.65 2.324-1.779 2.324zm11.468-5.665c-1.607.096-2.316.47-2.93 1.566v-1.211h-3.237v6.651h3.237v-2.631c0-1.082.115-1.406.593-1.795.46-.369.976-.466 2.337-.466v-2.114zm15.22 3.259c0 .985-.021 1.116-.153 1.407-.211.452-.345.806-.937.806-1.056 0-1.362-.437-1.362-2.02v-3.097h-3.237v3.098c0 1.615.039 1.922.347 2.52.422.808 1.457 1.26 2.871 1.26 1.38 0 2.298-.42 2.948-1.389v1.162h2.516v-6.651h-2.994v2.904h.001zm8.315-5.07l-3.234 1.117v1.112h-1.801v1.777h1.801v2.179c0 1.372.094 2 .343 2.374.383.58 1.072.787 2.566.787.919 0 1.494-.03 2.077-.14v-1.697c-.009.08-.085.096-.334.096-1.185 0-1.417-.211-1.417-1.293v-2.306h1.751v-1.777h-1.751v-2.23h-.001zm14.16 2.795c-.631-.548-1.551-.839-2.682-.839-1.223 0-1.367.356-2.228 1.211v-1.002h-3.237v6.652h3.237v-3.309c.037-.788.007-1.502 1.236-1.502 1.09 0 1.185.315 1.203 1.373v3.438H135V31.92c0-1.292-.174-1.842-.766-2.359zm-12.148-1.548h3.237v-1.987h-3.237v1.987zm0 7.812h3.237v-6.893h-3.237v6.893zM54.672 37H27V9h27.672v28z" fill="#606060"/><path fill-rule="evenodd" clip-rule="evenodd" d="M1 34L26.48 0 52 34H1z" fill="#606060"/><path fill-rule="evenodd" clip-rule="evenodd" d="M5 31L26.629 3 48 31H5z" fill="#D1D1D1"/><path fill-rule="evenodd" clip-rule="evenodd" d="M13.499 31C20.955 31 27 24.956 27 17.5 27 10.043 20.956 4 13.499 4 6.045 4 0 10.043 0 17.5 0 24.956 6.044 31 13.499 31z" fill="#606060"/><path fill-rule="evenodd" clip-rule="evenodd" d="M13.498 29C19.851 29 25 23.851 25 17.5S19.85 6 13.498 6C7.148 6 2 11.149 2 17.5S7.149 29 13.498 29z" fill="#fff"/></svg>