<svg width="140" height="75" viewBox="0 0 140 75" fill="none" xmlns="http://www.w3.org/2000/svg">
<g clip-path="url(#clip0)">
<g filter="url(#filter0_d)">
<path d="M58.136 12.6035C61.5523 12.6035 64.4278 13.7462 66.7619 16.0316C69.096 18.317 70.263 21.1234 70.263 24.4506C70.263 27.7779 69.096 30.5842 66.7619 32.8696C64.4278 35.155 61.5523 36.2977 58.136 36.2977H51.8949V47.8928H44.8926V12.6035H58.136ZM58.136 29.7944C59.6242 29.7944 60.8592 29.2903 61.84 28.282C62.8209 27.2401 63.3115 25.963 63.3115 24.4506C63.3115 22.9046 62.8209 21.6275 61.84 20.6192C60.8592 19.611 59.6242 19.1068 58.136 19.1068H51.8949V29.7944H58.136Z" fill="#880000"/>
</g>
<g filter="url(#filter1_d)">
<path d="M100.86 12.6035V47.8928H93.8574V19.2581H81.3245V47.8928H74.3223V12.6035H100.86Z" fill="#757575"/>
</g>
<g filter="url(#filter2_d)">
<path d="M135.566 47.8928H127.498L114.813 31.3572V47.8928H107.811V12.6035H114.813V28.1812L126.991 12.6035H135.058L121.916 29.744L135.566 47.8928Z" fill="#333333"/>
</g>
<g filter="url(#filter3_d)">
<path d="M11.5488 21.3879V13.6113L19.7807 17.4996L11.5488 21.3879Z" fill="#880000"/>
<path d="M19.9153 25.6779V17.9014L11.8184 21.7896L19.9153 25.6779Z" fill="#333333" fill-opacity="0.5"/>
<path d="M29.3633 29.9689V22.1924L37.5952 26.0807L29.3633 29.9689Z" fill="#880000"/>
<path d="M37.7278 34.2599V26.4834L29.6309 30.3717L37.7278 34.2599Z" fill="#333333" fill-opacity="0.5"/>
<path d="M20.4551 25.6779V17.9014L28.687 21.7896L20.4551 25.6779Z" fill="#880000"/>
<path d="M28.8216 29.9689V22.1924L20.7246 26.0807L28.8216 29.9689Z" fill="#333333" fill-opacity="0.5"/>
<path d="M3.18164 34.7961V27.0195L11.4135 30.9078L3.18164 34.7961Z" fill="#333333"/>
<path d="M11.5481 39.0861V31.3096L3.45117 35.1978L11.5481 39.0861Z" fill="#333333"/>
<path d="M20.9941 43.3771V35.6006L29.226 39.4889L20.9941 43.3771Z" fill="#333333"/>
<path d="M29.3626 47.6672V39.8906L21.2656 43.7789L29.3626 47.6672Z" fill="#333333"/>
<path d="M12.0898 39.0861V31.3096L20.3217 35.1978L12.0898 39.0861Z" fill="#333333"/>
<path d="M20.4544 43.3771V35.6006L12.3574 39.4889L20.4544 43.3771Z" fill="#333333"/>
<path d="M19.5774 26.2801L11.9607 30.6397L11.8145 22.1924L19.7764 26.0707L19.5774 26.2801Z" fill="#333333"/>
<path d="M11.5188 30.5392L3.31055 26.6171L11.3917 22.085L11.5188 30.5392Z" fill="#333333"/>
<path d="M37.7243 34.7958L29.3574 30.7734L29.7622 39.2203L37.7243 34.7958Z" fill="#880000"/>
<path d="M29.2222 38.9522L28.8174 30.7734L21.2969 35.0369L29.2222 38.9522Z" fill="#333333" fill-opacity="0.5"/>
</g>
</g>
<g filter="url(#filter4_d)">
<path d="M7.87259 55.2C8.81526 55.2 9.60859 55.5173 10.2526 56.152C10.8966 56.7867 11.2186 57.566 11.2186 58.49C11.2186 59.414 10.8966 60.1933 10.2526 60.828C9.60859 61.4627 8.81526 61.78 7.87259 61.78H6.15059V65H4.21859V55.2H7.87259ZM7.87259 59.974C8.28326 59.974 8.62393 59.834 8.89459 59.554C9.16526 59.2647 9.30059 58.91 9.30059 58.49C9.30059 58.0607 9.16526 57.706 8.89459 57.426C8.62393 57.146 8.28326 57.006 7.87259 57.006H6.15059V59.974H7.87259ZM14.4084 63.152H18.5384V65H12.4764V55.2H18.4684V57.048H14.4084V59.134H18.1184V60.954H14.4084V63.152ZM29.4902 55.2V65H27.5722V58.644L24.8142 63.194H24.5902L21.8322 58.658V65H19.9002V55.2H21.8882L24.7022 59.834L27.5022 55.2H29.4902ZM39.5623 63.726C38.5729 64.706 37.3689 65.196 35.9503 65.196C34.5316 65.196 33.3276 64.706 32.3383 63.726C31.3583 62.7367 30.8682 61.528 30.8682 60.1C30.8682 58.672 31.3583 57.468 32.3383 56.488C33.3276 55.4987 34.5316 55.004 35.9503 55.004C37.3689 55.004 38.5729 55.4987 39.5623 56.488C40.5516 57.468 41.0463 58.672 41.0463 60.1C41.0463 61.528 40.5516 62.7367 39.5623 63.726ZM33.6963 62.41C34.3029 63.0073 35.0543 63.306 35.9503 63.306C36.8463 63.306 37.5976 63.0073 38.2043 62.41C38.8109 61.8033 39.1143 61.0333 39.1143 60.1C39.1143 59.1667 38.8109 58.3967 38.2043 57.79C37.5976 57.1833 36.8463 56.88 35.9503 56.88C35.0543 56.88 34.3029 57.1833 33.6963 57.79C33.0896 58.3967 32.7863 59.1667 32.7863 60.1C32.7863 61.0333 33.0896 61.8033 33.6963 62.41ZM47.9761 55.2H49.8941V65H47.9761V60.94H44.3361V65H42.4041V55.2H44.3361V59.092H47.9761V55.2ZM58.1967 55.2V57.048H55.5507V65H53.6187V57.048H50.9867V55.2H58.1967ZM70.0972 55.2V65H68.1652V57.048H64.7072V65H62.7752V55.2H70.0972ZM80.1677 63.726C79.1784 64.706 77.9744 65.196 76.5557 65.196C75.1371 65.196 73.9331 64.706 72.9437 63.726C71.9637 62.7367 71.4737 61.528 71.4737 60.1C71.4737 58.672 71.9637 57.468 72.9437 56.488C73.9331 55.4987 75.1371 55.004 76.5557 55.004C77.9744 55.004 79.1784 55.4987 80.1677 56.488C81.1571 57.468 81.6517 58.672 81.6517 60.1C81.6517 61.528 81.1571 62.7367 80.1677 63.726ZM74.3017 62.41C74.9084 63.0073 75.6597 63.306 76.5557 63.306C77.4517 63.306 78.2031 63.0073 78.8097 62.41C79.4164 61.8033 79.7197 61.0333 79.7197 60.1C79.7197 59.1667 79.4164 58.3967 78.8097 57.79C78.2031 57.1833 77.4517 56.88 76.5557 56.88C75.6597 56.88 74.9084 57.1833 74.3017 57.79C73.6951 58.3967 73.3917 59.1667 73.3917 60.1C73.3917 61.0333 73.6951 61.8033 74.3017 62.41ZM90.1041 63.152H91.1541V66.876H89.2221V65H83.8041V66.876H81.8721V63.152H82.8241C83.3654 62.396 83.6361 61.29 83.6361 59.834V55.2H90.1041V63.152ZM84.8961 63.152H88.1721V57.006H85.5681V59.862C85.5681 61.2807 85.3441 62.3773 84.8961 63.152ZM103.601 65H101.375L97.8752 60.408V65H95.9432V55.2H97.8752V59.526L101.235 55.2H103.461L99.8352 59.96L103.601 65ZM103.91 65V63.208C104.489 63.292 104.923 63.1753 105.212 62.858C105.501 62.5407 105.646 61.92 105.646 60.996V55.2H112.31V65H110.392V57.048H107.564V60.94C107.564 61.7893 107.461 62.5033 107.256 63.082C107.051 63.6607 106.766 64.09 106.402 64.37C106.047 64.65 105.665 64.8367 105.254 64.93C104.853 65.0233 104.405 65.0467 103.91 65ZM122.443 55.004C123.861 55.004 125.065 55.4987 126.055 56.488C127.044 57.468 127.539 58.672 127.539 60.1C127.539 61.5187 127.044 62.7227 126.055 63.712C125.065 64.7013 123.861 65.196 122.443 65.196C121.173 65.196 120.072 64.79 119.139 63.978C118.215 63.166 117.659 62.1347 117.473 60.884H116.059V65H114.127V55.2H116.059V59.036H117.515C117.757 57.86 118.331 56.894 119.237 56.138C120.151 55.382 121.22 55.004 122.443 55.004ZM120.189 62.41C120.795 63.0073 121.547 63.306 122.443 63.306C123.339 63.306 124.09 63.0073 124.697 62.41C125.303 61.8033 125.607 61.0333 125.607 60.1C125.607 59.1667 125.303 58.3967 124.697 57.79C124.09 57.1833 123.339 56.88 122.443 56.88C121.537 56.88 120.781 57.1787 120.175 57.776C119.577 58.3733 119.279 59.148 119.279 60.1C119.279 61.0333 119.582 61.8033 120.189 62.41ZM133.852 55.2H135.784V65H133.852V61.416C133.255 61.668 132.615 61.794 131.934 61.794C130.945 61.794 130.128 61.5187 129.484 60.968C128.849 60.408 128.532 59.652 128.532 58.7V55.2H130.464V58.448C130.464 58.9147 130.599 59.2833 130.87 59.554C131.15 59.8153 131.519 59.946 131.976 59.946C132.657 59.946 133.283 59.8107 133.852 59.54V55.2Z" fill="#880000"/>
</g>
<defs>
<filter id="filter0_d" x="40.8926" y="12.6035" width="33.3704" height="43.2893" filterUnits="userSpaceOnUse" color-interpolation-filters="sRGB">
<feFlood flood-opacity="0" result="BackgroundImageFix"/>
<feColorMatrix in="SourceAlpha" type="matrix" values="0 0 0 0 0 0 0 0 0 0 0 0 0 0 0 0 0 0 127 0"/>
<feOffset dy="4"/>
<feGaussianBlur stdDeviation="2"/>
<feColorMatrix type="matrix" values="0 0 0 0 0 0 0 0 0 0 0 0 0 0 0 0 0 0 0.25 0"/>
<feBlend mode="normal" in2="BackgroundImageFix" result="effect1_dropShadow"/>
<feBlend mode="normal" in="SourceGraphic" in2="effect1_dropShadow" result="shape"/>
</filter>
<filter id="filter1_d" x="70.3223" y="12.6035" width="34.5374" height="43.2893" filterUnits="userSpaceOnUse" color-interpolation-filters="sRGB">
<feFlood flood-opacity="0" result="BackgroundImageFix"/>
<feColorMatrix in="SourceAlpha" type="matrix" values="0 0 0 0 0 0 0 0 0 0 0 0 0 0 0 0 0 0 127 0"/>
<feOffset dy="4"/>
<feGaussianBlur stdDeviation="2"/>
<feColorMatrix type="matrix" values="0 0 0 0 0 0 0 0 0 0 0 0 0 0 0 0 0 0 0.25 0"/>
<feBlend mode="normal" in2="BackgroundImageFix" result="effect1_dropShadow"/>
<feBlend mode="normal" in="SourceGraphic" in2="effect1_dropShadow" result="shape"/>
</filter>
<filter id="filter2_d" x="103.811" y="12.6035" width="35.7552" height="43.2893" filterUnits="userSpaceOnUse" color-interpolation-filters="sRGB">
<feFlood flood-opacity="0" result="BackgroundImageFix"/>
<feColorMatrix in="SourceAlpha" type="matrix" values="0 0 0 0 0 0 0 0 0 0 0 0 0 0 0 0 0 0 127 0"/>
<feOffset dy="4"/>
<feGaussianBlur stdDeviation="2"/>
<feColorMatrix type="matrix" values="0 0 0 0 0 0 0 0 0 0 0 0 0 0 0 0 0 0 0.25 0"/>
<feBlend mode="normal" in2="BackgroundImageFix" result="effect1_dropShadow"/>
<feBlend mode="normal" in="SourceGraphic" in2="effect1_dropShadow" result="shape"/>
</filter>
<filter id="filter3_d" x="-0.818359" y="13.6113" width="42.5462" height="42.0558" filterUnits="userSpaceOnUse" color-interpolation-filters="sRGB">
<feFlood flood-opacity="0" result="BackgroundImageFix"/>
<feColorMatrix in="SourceAlpha" type="matrix" values="0 0 0 0 0 0 0 0 0 0 0 0 0 0 0 0 0 0 127 0"/>
<feOffset dy="4"/>
<feGaussianBlur stdDeviation="2"/>
<feColorMatrix type="matrix" values="0 0 0 0 0 0 0 0 0 0 0 0 0 0 0 0 0 0 0.25 0"/>
<feBlend mode="normal" in2="BackgroundImageFix" result="effect1_dropShadow"/>
<feBlend mode="normal" in="SourceGraphic" in2="effect1_dropShadow" result="shape"/>
</filter>
<filter id="filter4_d" x="0.21875" y="55.0039" width="139.565" height="19.872" filterUnits="userSpaceOnUse" color-interpolation-filters="sRGB">
<feFlood flood-opacity="0" result="BackgroundImageFix"/>
<feColorMatrix in="SourceAlpha" type="matrix" values="0 0 0 0 0 0 0 0 0 0 0 0 0 0 0 0 0 0 127 0"/>
<feOffset dy="4"/>
<feGaussianBlur stdDeviation="2"/>
<feColorMatrix type="matrix" values="0 0 0 0 0 0 0 0 0 0 0 0 0 0 0 0 0 0 0.25 0"/>
<feBlend mode="normal" in2="BackgroundImageFix" result="effect1_dropShadow"/>
<feBlend mode="normal" in="SourceGraphic" in2="effect1_dropShadow" result="shape"/>
</filter>
<clipPath id="clip0">
<rect width="137" height="61" fill="white" transform="translate(1)"/>
</clipPath>
</defs>
</svg>
