<svg width="22" height="19" viewBox="0 0 22 19" fill="none" xmlns="http://www.w3.org/2000/svg">
<g filter="url(#filter0_d)">
<path d="M17.3333 3.072V8.5C17.3334 9.05342 17.1216 9.58589 16.7416 9.98815C16.3615 10.3904 15.8419 10.632 15.2893 10.6633L15.1667 10.6667H6.16667C5.61324 10.6667 5.08078 10.455 4.67851 10.0749C4.27624 9.69481 4.03467 9.1752 4.00333 8.62267L4 8.5V3.072L10.4347 6.44267C10.5063 6.48016 10.5859 6.49975 10.6667 6.49975C10.7475 6.49975 10.8271 6.48016 10.8987 6.44267L17.3333 3.072ZM6.16667 1.57367e-08H15.1667C15.7037 -6.46765e-05 16.2217 0.19933 16.62 0.559511C17.0184 0.919693 17.2688 1.41499 17.3227 1.94933L10.6667 5.436L4.01067 1.94933C4.06235 1.43621 4.29537 0.958345 4.66783 0.601642C5.0403 0.244939 5.52779 0.0327913 6.04267 0.00333343L6.16667 1.57367e-08H15.1667H6.16667Z" fill="#880000"/>
</g>
<defs>
<filter id="filter0_d" x="0" y="0" width="21.3333" height="18.6667" filterUnits="userSpaceOnUse" color-interpolation-filters="sRGB">
<feFlood flood-opacity="0" result="BackgroundImageFix"/>
<feColorMatrix in="SourceAlpha" type="matrix" values="0 0 0 0 0 0 0 0 0 0 0 0 0 0 0 0 0 0 127 0"/>
<feOffset dy="4"/>
<feGaussianBlur stdDeviation="2"/>
<feColorMatrix type="matrix" values="0 0 0 0 0 0 0 0 0 0 0 0 0 0 0 0 0 0 0.25 0"/>
<feBlend mode="normal" in2="BackgroundImageFix" result="effect1_dropShadow"/>
<feBlend mode="normal" in="SourceGraphic" in2="effect1_dropShadow" result="shape"/>
</filter>
</defs>
</svg>
