<svg width="12" height="16" viewBox="0 0 12 16" fill="none" xmlns="http://www.w3.org/2000/svg">
<g clip-path="url(#clip0)">
<path d="M2.60258 1.41658C2.52662 1.47114 2.46301 1.55303 2.4186 1.65342C2.37419 1.75381 2.35068 1.86887 2.35059 1.9862L2.35059 13.5587C2.35094 13.6758 2.37463 13.7905 2.41911 13.8906C2.4636 13.9907 2.52719 14.0723 2.60304 14.1266C2.6789 14.181 2.76416 14.206 2.84965 14.1991C2.93513 14.1921 3.01762 14.1534 3.08822 14.0871L9.19995 8.3009C9.26259 8.24192 9.31381 8.163 9.34919 8.07094C9.38458 7.97888 9.40306 7.87643 9.40306 7.77243C9.40306 7.66842 9.38458 7.56598 9.34919 7.47392C9.31381 7.38185 9.26259 7.30293 9.19995 7.24395L3.08822 1.45772C3.01776 1.3908 2.93523 1.35158 2.84961 1.34433C2.76398 1.33708 2.67854 1.36206 2.60258 1.41658Z" fill="#3F72AF"/>
</g>
<defs>
<clipPath id="clip0">
<rect width="15.4299" height="11.2832" fill="white" transform="translate(0 15.4873) rotate(-90)"/>
</clipPath>
</defs>
</svg>
