<svg width="10" height="11" viewBox="0 0 10 11" fill="none" xmlns="http://www.w3.org/2000/svg">
<path d="M9.11917 2.51311C9.08381 2.44528 9.03073 2.38848 8.96567 2.34882C8.90062 2.30917 8.82604 2.28817 8.75 2.28809H1.25C1.17411 2.2884 1.09973 2.30956 1.03487 2.34928C0.970014 2.389 0.91713 2.44578 0.881908 2.51352C0.846685 2.58126 0.830456 2.65739 0.834966 2.73373C0.839476 2.81007 0.864555 2.88372 0.907504 2.94677L4.6575 8.40435C4.69573 8.46029 4.74688 8.50603 4.80654 8.53762C4.86621 8.56922 4.9326 8.58573 5 8.58573C5.06741 8.58573 5.1338 8.56922 5.19347 8.53762C5.25313 8.50603 5.30428 8.46029 5.3425 8.40435L9.0925 2.94677C9.13587 2.88385 9.16129 2.81015 9.16599 2.7337C9.1707 2.65724 9.1545 2.58094 9.11917 2.51311Z" fill="#3F72AF"/>
</svg>
