<svg width="232" height="88" fill="none" xmlns="http://www.w3.org/2000/svg"><path fill-rule="evenodd" clip-rule="evenodd" d="M86.249 55.727c-4.351-4.47-24.982-17.109-31.553-21.549L15.24 61.913l10.655.385 28.8-19.329L77.104 57.68l-.178.592c-5.624 18.944-40.966 33.862-61.715 6.72C1.091 46.55 9.26 9.787 43.922 8.071L44.336.02C8.876-1.075-13.65 42.318 9.29 70.882c8.436 10.478 23.65 20.305 44.46 16.131 14.237-2.841 31.08-17.02 32.5-31.286z" fill="#53669D"/><path fill-rule="evenodd" clip-rule="evenodd" d="M47.533 54.839h5.18v5.18h-5.18v-5.18zm7.429 0h5.18v5.18h-5.18v-5.18zm-7.429 7.252h5.18v5.15h-5.18v-5.15zm7.429 0h5.18v5.15h-5.18v-5.15z" fill="#2FA3E0"/><path d="M107.176 13.903c3.049 0 5.328.799 6.808 2.427 1.48 1.628 2.22 3.996 2.22 7.104v5.002c0 3.138-.74 5.506-2.22 7.104-1.48 1.628-3.759 2.427-6.808 2.427h-2.871v14.504h-6.038V13.903h8.909zm-2.871 5.505v13.054h2.871c.947 0 1.687-.237 2.19-.77.533-.503.8-1.45.8-2.871v-5.772c0-1.391-.267-2.338-.8-2.871-.503-.503-1.243-.77-2.19-.77h-2.871zm20.779 10.745h8.317v5.505h-8.317v11.307h10.478v5.506h-16.546V13.903h16.546v5.505h-10.478v10.745zm27.054 11.13l4.114-27.38h8.436V52.47h-5.713V24.825l-4.203 27.646h-5.713l-4.528-27.261v27.26h-5.299V13.903h8.436l4.47 27.38zm22.525 2.308c0 1.391.296 2.398.858 2.96.563.562 1.332.858 2.28.858.947 0 1.716-.296 2.279-.858.562-.562.858-1.569.858-2.96V22.783c0-1.392-.296-2.398-.858-2.96-.563-.563-1.332-.859-2.279-.859-.948 0-1.717.296-2.28.859-.562.562-.858 1.568-.858 2.96V43.59zm-6.068-20.424c0-3.137.799-5.535 2.368-7.192 1.598-1.688 3.878-2.516 6.838-2.516 2.989 0 5.239.829 6.837 2.516 1.569 1.657 2.368 4.055 2.368 7.192v20.04c0 3.137-.799 5.534-2.368 7.192-1.598 1.687-3.848 2.516-6.837 2.516-2.96 0-5.24-.829-6.838-2.516-1.569-1.658-2.368-4.055-2.368-7.193V23.167zm28.386 29.304h-6.068V13.903h6.068v16.516h6.867V13.903h6.187V52.47h-6.187V35.954h-6.867v16.517zm15.688-38.568h18.736v5.505h-6.334v33.063h-6.068V19.408h-6.334v-5.505z" fill="#2B2A29"/><path d="M98.799 77.512V62.386h15.155v15.126h-2.161V64.547H100.96v12.965h-2.161zm17.108-4.322v-6.482c0-.592.119-1.155.326-1.687.237-.504.533-.977.947-1.362a4.49 4.49 0 011.362-.947c.533-.237 1.095-.326 1.687-.326h6.482c.592 0 1.125.089 1.658.326.503.237.977.562 1.361.947.415.385.711.858.948 1.362.236.532.355 1.095.355 1.687v6.482c0 .592-.089 1.154-.326 1.687a4.488 4.488 0 01-.947 1.362c-.385.385-.858.71-1.362.947a4.62 4.62 0 01-1.687.326h-6.482c-.592 0-1.184-.09-1.717-.326a4.241 4.241 0 01-1.361-.918 4.245 4.245 0 01-.918-1.361c-.237-.533-.326-1.095-.326-1.717zm2.161 0c0 .622.207 1.125.622 1.54.414.414.947.62 1.539.62h6.482c.622 0 1.125-.206 1.539-.62.415-.415.622-.918.622-1.54v-6.482c0-.622-.207-1.125-.622-1.54-.414-.414-.917-.621-1.539-.621h-6.482c-.592 0-1.125.207-1.539.622-.415.414-.622.917-.622 1.539v6.482zm13.853 4.322V75.35h2.161v-8.643c0-.592.088-1.125.325-1.658.207-.503.533-.977.918-1.361.384-.385.858-.71 1.361-.948a4.146 4.146 0 011.717-.355h10.833V75.35h2.132v2.16h-19.447zm4.321-2.161h10.804V64.547h-8.643c-.622 0-1.125.207-1.539.622-.415.414-.622.917-.622 1.539v8.643zm24.864 2.16V62.387h2.19v6.482h3.434l6.482-6.482h3.049l-7.578 7.548 7.578 7.578h-3.049l-6.482-6.483h-3.434v6.483h-2.19zm16.25 0V66.709c0-.592.118-1.125.326-1.658a5.22 5.22 0 01.917-1.361c.385-.385.859-.681 1.391-.948a4.113 4.113 0 011.688-.355h10.833v15.126h-2.19V64.547h-8.643c-.592 0-1.125.207-1.54.622-.414.414-.621.917-.621 1.539v10.804h-2.161zm17.316 0V62.387h2.161v6.482h2.16v-2.16c0-.592.119-1.125.326-1.658.237-.503.533-.977.918-1.361.384-.385.858-.71 1.391-.948a4.105 4.105 0 011.687-.355h6.482c.563 0 1.125.089 1.628.326.533.237 1.007.533 1.391.917.415.385.711.859.948 1.362a3.75 3.75 0 01.384 1.717v6.482c0 .592-.118 1.125-.355 1.658a4.258 4.258 0 01-.917 1.361 4.49 4.49 0 01-1.362.947 4.146 4.146 0 01-1.717.356h-6.482c-.563 0-1.125-.09-1.658-.326-.533-.207-.976-.533-1.391-.918a4.065 4.065 0 01-.917-1.39 4.006 4.006 0 01-.356-1.688v-2.16h-2.16v6.482h-2.161zm6.482-4.32c0 .62.207 1.124.622 1.538.414.415.947.622 1.539.622h6.482c.622 0 1.125-.207 1.539-.622.415-.414.652-.917.652-1.539v-6.482c0-.622-.237-1.125-.652-1.54-.414-.414-.917-.621-1.539-.621h-6.482c-.592 0-1.125.207-1.539.622-.415.414-.622.917-.622 1.539v6.482zm14.711-5.418v-5.387h2.161v5.387c0 .592.207 1.096.621 1.54.415.414.948.621 1.54.621h8.672v-7.548h2.161v15.126h-2.161v-5.417h-8.672a4.074 4.074 0 01-1.658-.355c-.533-.207-.977-.533-1.391-.918a4.47 4.47 0 01-.947-1.362 4.609 4.609 0 01-.326-1.687z" fill="#53669D"/><path fill-rule="evenodd" clip-rule="evenodd" d="M15.358 47.705l9.915.385 29.748-18.766 33.3 21.016.088-7.578-34.454-22.584L35.812 32.55v-4.943h-9.294v11.9l-11.16 8.198z" fill="#2FA3E0"/></svg>