<svg xmlns="http://www.w3.org/2000/svg" width="113" height="119" fill="none"><path fill="#F5C200" stroke="#fff" d="M112.5 65c0 29.526-25.05 53.5-56 53.5S.5 94.526.5 65s25.05-53.5 56-53.5 56 23.974 56 53.5z"/><path fill="#333" stroke="#fff" d="M52.667 5.176l2.309 2.309-8.493 8.491-6.494-6.495h0a1.669 1.669 0 010-2.36s0 0 0 0L46.122.99a1.668 1.668 0 012.359 0s0 0 0 0l1.946 1.947-3.862 3.862s0 0 0 0a1.041 1.041 0 000 1.474l.765.766a1.043 1.043 0 001.474 0l3.863-3.862zm17.226 5.962l-7.032-7.03 2.793-2.793a2.785 2.785 0 013.938 0l3.093 3.094s0 0 0 0a2.784 2.784 0 010 3.936l.353.354-.353-.354-2.792 2.793zM40.77 26.197L60.607 6.361l7.031 7.03-19.832 19.833-7.19 1.26h0a.951.951 0 01-1.101-1.1l1.255-7.188zm17.253 1.318l8.493-8.491 2.31 2.31-3.863 3.863a1.043 1.043 0 000 1.473h0l.766.766a1.041 1.041 0 001.474 0l3.863-3.862 1.946 1.946a1.668 1.668 0 010 2.36l-6.133 6.131.354.354-.354-.354a1.668 1.668 0 01-2.36 0l-.353.354.354-.354-6.497-6.496z"/></svg>