<svg xmlns="http://www.w3.org/2000/svg" width="113" height="119" fill="none"><path fill="#F5C200" stroke="#fff" d="M112.5 65c0 29.526-25.05 53.5-56 53.5S.5 94.526.5 65s25.05-53.5 56-53.5 56 23.974 56 53.5z"/><path fill="#333" stroke="#fff" d="M65.722 3.5V4h4.39C72.03 4 73.5 5.394 73.5 7v24.5c0 1.606-1.47 3-3.389 3H42.89c-1.92 0-3.389-1.394-3.389-3V7c0-1.606 1.47-3 3.389-3h4.388V.5h2.889V4h12.666V.5h2.89v3zm-4.746 26.702l.889.42-.184-.965-.854-4.492 3.637-3.19.83-.729-1.095-.143-5.073-.664-2.26-4.118-.438-.798-.438.798-2.26 4.118-5.073.664-1.095.143.83.729 3.64 3.188-.857 4.493-.184.967.889-.421 4.548-2.153 4.548 2.153zm9.135-17.452h.5v-4.5H42.39v4.5h27.72z"/></svg>