<svg width="20" height="17" fill="none" xmlns="http://www.w3.org/2000/svg"><path d="M12.75 3v.25h2.684a1.758 1.758 0 011.5.85l2.709 4.514h0c.07.116.107.25.107.386v3c0 .965-.785 1.75-1.75 1.75h-.267l-.031.214c-.228 1.572-1.57 2.786-3.202 2.786-1.631 0-2.974-1.214-3.202-2.786l-.03-.214H7.732l-.031.214c-.228 1.572-1.57 2.786-3.202 2.786-1.716 0-3.113-1.342-3.228-3.033l-.009-.134-.117-.067A1.743 1.743 0 01.25 12V2C.25 1.035 1.035.25 2 .25h10a.75.75 0 01.75.75v2zM13 4.75h-.25v3.5h4.925l-.227-.379-1.8-3-.072-.121H13zM2.75 13.5c0 .965.785 1.75 1.75 1.75s1.75-.785 1.75-1.75-.785-1.75-1.75-1.75-1.75.785-1.75 1.75zm10 0c0 .965.785 1.75 1.75 1.75s1.75-.785 1.75-1.75-.785-1.75-1.75-1.75-1.75.785-1.75 1.75z" fill="#FFB401" stroke="#000" stroke-width=".5"/></svg>