<svg width="20" height="20" fill="none" xmlns="http://www.w3.org/2000/svg"><path d="M5.833 15.25h.25V13.5H3.917v1.75h1.916zm0-2.5h.25V11H3.917v1.75h1.916zm0-2.5h.25V8.5H3.917v1.75h1.916zm0-2.5h.25V6H3.917v1.75h1.916zm0-2.5h.25V3.5H3.917v1.75h1.916zm10 10h.25V13.5H7.25v1.75h8.583zm0-2.5h.25V11H7.25v1.75h8.583zm0-2.5h.25V8.5H7.25v1.75h8.583zm0-2.5h.25V6H7.25v1.75h8.583zm0-2.5h.25V3.5H7.25v1.75h8.583zM1.667.25h16.666c.396 0 .765.118 1.029.316.262.197.388.446.388.684v17.5c0 .238-.126.487-.388.684-.264.198-.633.316-1.029.316H1.667c-.396 0-.765-.118-1.029-.316-.262-.197-.388-.446-.388-.684V1.25c0-.238.126-.487.388-.684C.902.368 1.271.25 1.667.25z" fill="#FFB401" stroke="#000" stroke-width=".5"/></svg>