<svg width="20" height="24" fill="none" xmlns="http://www.w3.org/2000/svg"><path d="M5.556 11.495v1.19l1.111.792v1.19l1.111 1.585h4.445l1.111-1.585v-1.19l1.111-.792v-1.19H5.556z" fill="#FFE28F"/><path d="M6.667 7.531h2.222v3.964H6.667V7.531zm4.443 0h2.223v3.964h-2.222V7.531zm-3.332 8.721h4.444v1.585H7.778v-1.585z" fill="#F9BB4B"/><path d="M8.89 17.838h2.221v1.585H8.89v-1.585z" fill="#F5C200"/><path d="M8.89 19.423h2.221v3.964H8.89v-3.964z" fill="#FFB401"/><path d="M9.444.396h2.778l-1.667 1.982h2.778L9.444 5.946V3.964H6.666L9.444.396z" fill="#FCF05A"/><path d="M6.11 11.1h-.555a.684.684 0 00-.393.115c-.104.075-.162.175-.162.28v1.19c0 .105.058.205.162.28l.949.677v1.025c0 .061.02.122.058.177l1.053 1.502v1.492c0 .105.058.206.162.28a.685.685 0 00.393.116h.556v5.153c0 .105.058.206.163.28a.685.685 0 00.392.117h2.223a.685.685 0 00.393-.116c.104-.075.162-.176.162-.28v-5.154h.556a.685.685 0 00.393-.116c.104-.074.162-.175.162-.28v-1.492l1.056-1.502a.306.306 0 00.056-.177v-1.025l.948-.677c.104-.075.162-.175.163-.28v-1.19c0-.105-.059-.205-.163-.28a.684.684 0 00-.393-.116h-.556V7.532c0-.106-.058-.206-.162-.28a.684.684 0 00-.393-.117H11.11a.685.685 0 00-.393.116c-.104.075-.163.175-.163.28V11.1h-1.11V7.532c0-.106-.059-.206-.163-.28a.684.684 0 00-.393-.117H6.666a.684.684 0 00-.393.116c-.104.075-.162.175-.162.28V11.1zm4.445 11.89H9.444v-3.17h1.111v3.17zm0-3.963H9.444v-.793h1.111v.793zm1.111-1.586H8.333v-.793h3.333v.793zm0-9.513h1.111v3.171h-1.11V7.928zm-4.444 0h1.11v3.171h-1.11V7.928zm6.667 3.964v.629l-.949.676c-.104.075-.163.175-.163.28v1.096l-.899 1.283H8.121l-.9-1.283v-1.096c0-.105-.058-.206-.162-.28l-.948-.676v-.63h7.778z" fill="#000"/><path d="M8.334 12.684h3.333v.793H8.334v-.793zm0 1.586h3.333v.793H8.334v-.793zM12.706.201a.505.505 0 00-.204-.147.734.734 0 00-.28-.054H9.445a.733.733 0 00-.282.055.503.503 0 00-.204.149L6.181 3.77a.311.311 0 00-.07.198.316.316 0 00.077.196c.05.06.12.109.203.143.084.034.18.052.276.052h2.222v1.586c0 .083.036.163.104.23a.579.579 0 00.272.145.768.768 0 00.424-.02.56.56 0 00.194-.112l3.889-3.567a.345.345 0 00.114-.203.3.3 0 00-.053-.215.484.484 0 00-.205-.162.729.729 0 00-.294-.06h-1.796L12.698.6a.318.318 0 00.08-.2.313.313 0 00-.072-.2zm-.508 2.574L10 4.79v-.826c0-.105-.058-.206-.162-.28a.684.684 0 00-.393-.116H7.61L9.772.793h1.47L10.08 2.174a.317.317 0 00-.079.2.312.312 0 00.072.2.504.504 0 00.203.147.733.733 0 00.28.054h1.642zM0 8.72h2.778v.793H0v-.792zm.778-2.059l.667-.634 2.222 1.19L3 7.85.778 6.66zm0 4.914L3 10.385l.666.634-2.222 1.19-.666-.634zM17.223 8.72H20v.793h-2.777v-.792zm-.892-1.509l2.223-1.19.666.635-2.222 1.189-.667-.634zm.004 3.813l.667-.634 2.222 1.19-.666.633-2.223-1.19z" fill="#000"/></svg>