<svg width="20" height="20" fill="none" xmlns="http://www.w3.org/2000/svg"><path d="M19.167 3.333v15H2.313L0 15.833V3.958c0-.828.348-1.623.968-2.21A3.404 3.404 0 013.305.834h1.321c.526 0 1.03.198 1.402.55.372.351.581.828.581 1.325v.625h12.558z" fill="#FFC431"/><path d="M3.333 13.333h2.5v2.5h-2.5v-2.5z" fill="#FFB401"/><path d="M0 15.417c0-.383.085-.763.252-1.117a2.92 2.92 0 01.716-.946c.307-.27.671-.485 1.072-.632.4-.147.83-.222 1.265-.222h1.321c.526 0 1.03.184 1.402.513.372.328.581.773.581 1.237 0 .464-.209.91-.58 1.237A2.124 2.124 0 014.625 16H2.974v-1.167h1.652a.708.708 0 00.468-.17.551.551 0 00.193-.413.551.551 0 00-.193-.412.708.708 0 00-.468-.171H3.305c-.526 0-1.03.184-1.402.512a1.654 1.654 0 00-.581 1.238c0 .464.209.909.58 1.237.372.328.877.513 1.403.513h15.862v1.166H3.305c-.434 0-.864-.075-1.265-.222a3.365 3.365 0 01-1.072-.632 2.922 2.922 0 01-.716-.946A2.622 2.622 0 010 15.417z" fill="#FFE28F"/><path d="M19.667 3.278H9.333v.61h1.529L9.764 4.896l.472.432 1.569-1.438h1.39l-2.097 1.923.471.432 2.57-2.355h1.39L13.43 5.812l.471.432 2.57-2.355h1.39L16.43 5.2l.471.432 1.903-1.744h.528v.79l-5.235 4.8.471.432 4.764-4.368v1.275l-5.235 4.8.471.431 4.764-4.367v1.275l-5.569 5.105.472.432 5.097-4.673v1.275l-6.804 6.237h-1.39l2.43-2.228-.471-.432-2.903 2.66h-1.39l.43-.395-.47-.432-.903.827H3.667c-.442 0-.866-.16-1.179-.447A1.466 1.466 0 012 15.806c0-.406.176-.794.488-1.08a1.747 1.747 0 011.179-.448H5a.35.35 0 01.236.09.293.293 0 01.097.215.293.293 0 01-.097.216.35.35 0 01-.236.09H3.333a.35.35 0 00-.235.09.293.293 0 00-.098.216v1.222c0 .08.035.159.098.216a.35.35 0 00.235.09H5a2.453 2.453 0 001.65-.628c.437-.4.683-.945.683-1.512V2.973a2.05 2.05 0 00-.684-1.512A2.448 2.448 0 005 .833H3.667a3.847 3.847 0 00-2.592.986C.388 2.449.001 3.303 0 4.194v11.612c.001.89.388 1.745 1.075 2.375a3.85 3.85 0 002.592.986h16a.35.35 0 00.235-.09.293.293 0 00.098-.216V3.583a.293.293 0 00-.098-.216.35.35 0 00-.235-.09zm-.334 14.055h-1.195l1.195-1.095v1.095zm0-5.373v1.275l-2.235 2.049.471.432 1.764-1.617v1.274l-2.138 1.96h-1.39l1.097-1.006-.471-.432-1.57 1.438h-1.39l5.862-5.373zM.667 4.194c0-.729.317-1.428.88-1.943a3.147 3.147 0 012.12-.807H5c.442.001.866.162 1.178.448.312.287.488.675.489 1.08v.644a2.345 2.345 0 00-.763-.476A2.51 2.51 0 005 2.972H4v.611h1c.442 0 .866.162 1.178.448.312.287.488.675.489 1.08v.339a2.345 2.345 0 00-.763-.477A2.51 2.51 0 005 4.806H4v.61h1c.442.001.866.162 1.178.449.312.286.488.674.489 1.08v.338a2.345 2.345 0 00-.763-.477A2.51 2.51 0 005 6.64H4v.611h1c.442 0 .866.162 1.178.448.312.286.488.675.489 1.08v.338a2.345 2.345 0 00-.763-.476A2.51 2.51 0 005 8.472H4v.611h1c.442 0 .866.162 1.178.448.312.287.488.675.489 1.08v.339a2.346 2.346 0 00-.763-.477A2.51 2.51 0 005 10.306H4v.61h1c.442.001.866.162 1.178.449.312.286.488.674.489 1.08v.643a2.346 2.346 0 00-.763-.476A2.51 2.51 0 005 12.444H3.667a3.92 3.92 0 00-1.691.38c-.522.249-.971.61-1.31 1.051v-9.68zm18.666 14.362H3.667c-.796 0-1.559-.29-2.122-.806a2.639 2.639 0 01-.878-1.944c0-.73.316-1.43.878-1.945a3.144 3.144 0 012.122-.805H5c.442 0 .866.16 1.179.447.312.287.488.675.488 1.08 0 .406-.176.794-.488 1.08A1.747 1.747 0 015 16.112H3.667V15.5H5c.265 0 .52-.097.707-.268A.88.88 0 006 14.583a.88.88 0 00-.293-.648A1.048 1.048 0 005 13.667H3.667c-.62 0-1.213.225-1.65.626a2.053 2.053 0 00-.684 1.513c0 .567.246 1.11.684 1.512a2.445 2.445 0 001.65.627h15.666v.61z" fill="#000"/><path d="M2.5 5h.833v.833H2.5V5zm0 1.667h.833V7.5H2.5v-.833zm0 1.666h.833v.834H2.5v-.834zM2.5 10h.833v.833H2.5V10zm7.185-.868l2.977-2.664.468.419-2.977 2.664-.468-.419zm-1.647 1.48l.992-.888.468.419-.993.888-.467-.419zm0-2.072l2.315-2.072.468.419-2.316 2.072-.467-.419zm0-2.072l.992-.888.468.419-.993.888-.467-.419zm.324 5.922l7.278-6.513.468.419-7.278 6.512-.468-.419zm.999 1.183l3.97-3.552.468.419-3.97 3.552-.468-.419zm-1.323 1.183l.661-.592.468.419-.662.592-.467-.419zm1.316.89l3.97-3.553.468.419-3.97 3.552-.468-.418z" fill="#000"/></svg>