<svg width="62" height="62" fill="none" xmlns="http://www.w3.org/2000/svg"><g clip-path="url(#clip0)" fill="#3F72AF"><path d="M60.83 9.423l.816-.816a1.211 1.211 0 00-1.713-1.713l-.816.816-.816-.816a1.211 1.211 0 00-.856-.354h-1.332L49.928.355A1.211 1.211 0 0049.072 0H4.362A4.366 4.366 0 00.001 4.361v22.693a4.366 4.366 0 004.361 4.36h10.55L7.817 38.51a4.332 4.332 0 00-1.277 3.084c0 1.165.454 2.26 1.277 3.084l16.046 16.046A4.333 4.333 0 0026.947 62c1.165 0 2.26-.453 3.084-1.277l12.018-12.018a1.21 1.21 0 10-1.712-1.713L28.318 59.01a1.926 1.926 0 01-1.37.568 1.926 1.926 0 01-1.372-.568L9.53 42.964a1.926 1.926 0 01-.568-1.371c0-.518.202-1.005.568-1.371l31.26-31.26h16.154l.46.46-2.8 2.801a3.61 3.61 0 00-1.565-.355 3.637 3.637 0 00-3.632 3.633 3.637 3.637 0 003.632 3.633 3.637 3.637 0 003.633-3.633 3.6 3.6 0 00-.355-1.565l2.8-2.8.461.46V27.75L48.043 39.286A1.211 1.211 0 0049.755 41l11.89-11.89c.228-.228.355-.536.355-.857V11.095c0-.321-.127-.63-.354-.856l-.816-.816zM21.747 21.728a1.213 1.213 0 01-1.212-1.211 1.213 1.213 0 111.211 1.211zM40.288 6.54c-.32 0-.629.127-.856.355L25.35 20.977a3.637 3.637 0 00-3.603-4.093 3.637 3.637 0 00-3.633 3.633 3.637 3.637 0 004.093 3.603l-4.873 4.873H4.362c-1.07 0-1.94-.87-1.94-1.94V4.362c0-1.07.87-1.94 1.94-1.94H48.57l4.118 4.119h-12.4zM53.04 16.712a1.212 1.212 0 11.735-2.172 1.212 1.212 0 00.226.226 1.212 1.212 0 01-.96 1.946z"/><path d="M40.275 35.823c.322 0 .63-.127.857-.355l2.74-2.74a1.211 1.211 0 00-1.713-1.712L40.275 32.9l-5.993-5.994a1.211 1.211 0 00-1.713 1.713l6.85 6.85c.227.227.535.354.856.354zm9.419-10.629a1.211 1.211 0 00-1.713 0l-1.54 1.54-1.713-1.712 1.54-1.54a1.211 1.211 0 00-1.712-1.713l-1.54 1.54-1.713-1.712 1.54-1.54a1.21 1.21 0 10-1.712-1.713l-2.397 2.397a1.211 1.211 0 000 1.712l6.85 6.85a1.208 1.208 0 001.712 0l2.398-2.397a1.21 1.21 0 000-1.712zM36.3 39.116a1.211 1.211 0 001.1-2.157l-9.076-4.624a1.21 1.21 0 00-1.629 1.628l4.624 9.077a1.21 1.21 0 102.158-1.1l-.371-.729 2.466-2.466.729.371zm-4.35-.174l-1.405-2.758 2.758 1.405-1.353 1.353zm-7.259 9.542a1.21 1.21 0 001.713 1.712l1.712-1.712a3.637 3.637 0 000-5.138 3.637 3.637 0 00-4.92-.199 1.46 1.46 0 00-.128.11l-.09.09a1.203 1.203 0 01-.855.354 1.212 1.212 0 01-.856-2.067l1.712-1.713a1.211 1.211 0 00-1.713-1.712l-1.712 1.712a3.637 3.637 0 000 5.138 3.61 3.61 0 002.569 1.064 3.61 3.61 0 002.566-1.062l.002-.002a1.212 1.212 0 011.713 1.712l-1.713 1.713zM20.748 7.817a1.211 1.211 0 00-1.65.46l-7.81 13.835a1.21 1.21 0 102.109 1.19l7.81-13.835a1.21 1.21 0 00-.459-1.65zm-5.59 3.081a3.637 3.637 0 00-3.633-3.633 3.637 3.637 0 00-3.633 3.633 3.637 3.637 0 003.633 3.633 3.637 3.637 0 003.633-3.633zm-4.845 0a1.213 1.213 0 012.423 0c0 .668-.543 1.211-1.211 1.211a1.213 1.213 0 01-1.212-1.211zm34.732 31.886c-.32 0-.63.13-.856.355a1.22 1.22 0 00-.355.856 1.214 1.214 0 002.067.856 1.22 1.22 0 00.355-.856c0-.318-.13-.63-.355-.856a1.22 1.22 0 00-.856-.355z"/></g><defs><clipPath id="clip0"><path fill="#fff" d="M0 0h62v62H0z"/></clipPath></defs></svg>