<svg width="66" height="66" fill="none" xmlns="http://www.w3.org/2000/svg"><g clip-path="url(#clip0)" fill="#3F72AF"><path d="M65.279 47.51l-6.144-2.237a1.09 1.09 0 00-1.396.654l-.373 1.023-7.117-2.595a1.052 1.052 0 00-.56-.05L34.88 46.922a4.369 4.369 0 00-3.119 2.303l-6.793-2.477a4.315 4.315 0 00-3.33.147 4.368 4.368 0 00-2.474 3.314 4.454 4.454 0 002.974 4.784l22.376 8.144a1.064 1.064 0 00.721.01l6.25-2.11.665.241-.373 1.024a1.09 1.09 0 00.653 1.396l6.145 2.236a1.089 1.089 0 001.396-.65L65.934 48.9a1.09 1.09 0 00-.655-1.39zm-14.13 11.342l-6.25 2.11-22.016-8.015a2.303 2.303 0 01-1.565-2.406 2.182 2.182 0 012.905-1.743l7.07 2.572c.004.201.02.402.05.6a4.377 4.377 0 005.045 3.536l12.268-2.163-.38-2.146-12.261 2.163a2.195 2.195 0 01-2.525-1.76 2.018 2.018 0 01.005-.752.993.993 0 00.019-.109 1.21 1.21 0 01.075-.271 2.19 2.19 0 011.67-1.403l14.52-2.56 6.842 2.49-3.727 10.242-1.024-.371a1.093 1.093 0 00-.721-.014zm7.142 4.665l-4.096-1.491 5.217-14.336 4.096 1.49-5.217 14.337zm-32.698-45.94a8.54 8.54 0 001.894 3.466 2.09 2.09 0 00-.034.264v5.934a3.269 3.269 0 003.27 3.27v10.896c-.004.415.23.796.601.98l2.18 1.09c.307.154.667.154.974 0l2.18-1.09a1.09 1.09 0 00.602-.98V30.51a3.27 3.27 0 003.27-3.269v-5.934a2.219 2.219 0 00-.037-.283 8.445 8.445 0 001.67-2.75 3.98 3.98 0 004.065-1.864 4.302 4.302 0 00-.684-5.31l-8.868-8.867A7.58 7.58 0 0031.283 0H19.825c-.148 0-.293.03-.429.088l-7.416 3.18h-.872V1.09A1.09 1.09 0 0010.018 0H1.301a1.09 1.09 0 00-1.09 1.09v17.435c0 .602.488 1.09 1.09 1.09h8.717a1.09 1.09 0 001.09-1.09v-2.18h.16c.78 2.616 4.283 4.36 7.468 4.36a8.694 8.694 0 006.857-3.127zm-16.664-.143H2.39V2.18h6.538v15.255zm26.152 23.3l-1.09.544-1.09-.544V30.51h2.18v10.223zM38.35 27.24a1.09 1.09 0 01-1.09 1.09h-6.538a1.09 1.09 0 01-1.09-1.09v-4.448a8.574 8.574 0 002.35.937 2.193 2.193 0 10.306-2.19 6.46 6.46 0 01-1.744-.744 8.554 8.554 0 013.447-1.182c1.564.22 3.056.8 4.359 1.693v5.934zm.811-7.984a11.895 11.895 0 00-5.17-1.823 11.875 11.875 0 00-5.162 1.819 6.382 6.382 0 01-1.28-2.908h5.352a4.249 4.249 0 003.807-2.278l3.052 3.05c.122.114.25.22.385.317a6.25 6.25 0 01-.984 1.823zm-1.953-7.773a4.32 4.32 0 00-1.08-2.398 6.54 6.54 0 014.377 5.697l-3.297-3.3zm-13.024 3.771c0 1.65-2.7 3.27-5.448 3.27-2.75 0-5.449-1.62-5.449-3.27a1.09 1.09 0 00-1.09-1.09h-1.089V5.448h1.09c.147 0 .293-.03.43-.088l7.415-3.18h11.235a5.414 5.414 0 013.857 1.594l8.866 8.866a2.11 2.11 0 01.389 2.594 1.96 1.96 0 01-1.682.914h-.051c.033-.296.05-.594.051-.893a8.727 8.727 0 00-8.717-8.717 8.626 8.626 0 00-4.183 1.09h-8.893v2.179h11.986a2.18 2.18 0 010 4.358h-7.627a1.09 1.09 0 00-1.09 1.09z"/></g><defs><clipPath id="clip0"><path fill="#fff" d="M0 0h66v66H0z"/></clipPath></defs></svg>