<svg width="65" height="65" fill="none" xmlns="http://www.w3.org/2000/svg"><path d="M21.328 19.297h-2.031v2.031h2.031v-2.031zm10.156 0h-2.03v2.031h2.03v-2.031zm-2.031 6.093h-2.031a2.031 2.031 0 11-4.063 0h-2.03a4.062 4.062 0 108.124 0z" fill="#3F72AF"/><path d="M58.195 12.188a1.017 1.017 0 00-1.697.457l-1.393 5.2-3.338.683-2.549-2.26 1.39-5.198a1.016 1.016 0 00-1.24-1.244 9.129 9.129 0 00-4.506 14.842l-4.166 15.55a11.402 11.402 0 00-1.819-.757l-8.408-2.63v-3.525a11.164 11.164 0 006.094-9.946v-1.016a3.037 3.037 0 001.427-5.722 2.56 2.56 0 00.161-.263l.102-.21a3.029 3.029 0 00-1.69-4.216v-5.19a3.062 3.062 0 00-2.451-2.985l-6.935-1.395a9.486 9.486 0 00-3.582 0L16.67 3.758a3.061 3.061 0 00-2.45 2.986v5.189a3.027 3.027 0 00-1.693 4.216l.101.203c.048.091.1.18.158.267a3.037 3.037 0 001.434 5.725v1.015a11.172 11.172 0 006.094 9.94v3.533l-8.407 2.63a11.114 11.114 0 00-7.843 10.66v11.831a1.016 1.016 0 001.015 1.016h40.625a1.015 1.015 0 001.016-1.016v-2.031h-2.031v1.016H39.61V57.89h-2.03v3.047H13.202V49.766h-2.031v11.172H6.094V50.12a9.09 9.09 0 016.417-8.72l2.723-.852v6.17a5.085 5.085 0 005.079 5.078h10.156a5.045 5.045 0 003.719-1.647 9.115 9.115 0 002.68 6.348 1.015 1.015 0 001.696-.457l1.394-5.2 3.337-.684 2.55 2.26-1.394 5.2a1.016 1.016 0 001.24 1.246 9.126 9.126 0 004.505-14.842l4.481-16.724a9.126 9.126 0 003.518-15.11zm-18.86 29.637a9.188 9.188 0 00-3.788 3.445v-4.721l2.723.852c.363.119.719.26 1.064.424zm-8.806-2.844l-.784 4.09-2.716-1.625 2.707-2.708.793.243zm-14.99-22.987a1.016 1.016 0 01-1.09-.547l-.102-.203a1.016 1.016 0 01.754-1.459l8.905-1.369a9.11 9.11 0 012.78 0l8.904 1.37a1.016 1.016 0 01.756 1.456l-.102.209a1.015 1.015 0 01-1.09.545l-8.22-1.496a9.11 9.11 0 00-3.268 0l-8.227 1.494zm21.024 4.319V18.28a1.015 1.015 0 110 2.032zM34.53 6.743v4.808l-2.615-.406 1.107-5.539.687.139a1.023 1.023 0 01.821.999zM23.987 4.36a7.388 7.388 0 012.798 0l4.247.853-1.126 5.63-2.816-.434a11.083 11.083 0 00-3.398 0l-2.817.434L19.75 5.21l4.238-.85zm-6.916 1.39l.687-.139 1.107 5.539-2.615.406V6.744a1.022 1.022 0 01.82-.995zm-3.868 13.548a1.015 1.015 0 011.016-1.016v2.032a1.016 1.016 0 01-1.016-1.016zm3.047 4.063v-5.432l7.87-1.43a7.09 7.09 0 012.538 0l7.873 1.43v5.431a9.14 9.14 0 11-18.28 0zm9.14 11.171a11.214 11.214 0 003.048-.427v3.054l-3.047 3.047-3.047-3.047v-3.06c.99.285 2.016.43 3.047.433zm-4.345 4.2l2.707 2.707-2.715 1.625-.784-4.09.792-.242zm9.424 11.035H20.313a3.047 3.047 0 01-3.047-3.047v-6.805l1.035-.324 1.015 5.29a1.016 1.016 0 001.524.679l4.55-2.734 4.556 2.733a1.016 1.016 0 001.523-.68l1.016-5.289 1.03.325v6.805a3.047 3.047 0 01-3.046 3.047zm28.133-29.278a7.13 7.13 0 01-5.027 5.022 1.015 1.015 0 00-.717.718l-4.773 17.81a1.016 1.016 0 00.262.98 7.1 7.1 0 01-1.406 11.14l1.024-3.822a1.016 1.016 0 00-.305-1.022L44.261 48.3a1.015 1.015 0 00-.877-.235l-4.449.914a1.017 1.017 0 00-.777.73l-1.023 3.822a7.098 7.098 0 014.351-10.349 1.015 1.015 0 00.717-.718l4.774-17.812a1.015 1.015 0 00-.262-.98 7.1 7.1 0 011.406-11.138l-1.03 3.818a1.016 1.016 0 00.304 1.021l3.398 3.014a1.016 1.016 0 00.877.235l4.45-.914a1.015 1.015 0 00.777-.732l1.024-3.82a7.101 7.101 0 01.68 5.332z" fill="#3F72AF"/></svg>