<svg width="57" height="57" fill="none" xmlns="http://www.w3.org/2000/svg"><path d="M53.456 27.514a11.416 11.416 0 01-9.52-5.095l-.762-1.145-.763 1.145a11.416 11.416 0 01-9.52 5.095h-3.474V42.22c0 3.554 1.6 6.895 4.275 9.138H14.743V47.69h11.923V31.182H7.406v7.337H1.903V1.834h40.354v16.508h1.834V0H.069v39.816l13.377 13.377h23.065L43.174 57l7.75-4.428a11.948 11.948 0 006.007-10.351V27.514h-3.475zM12.909 50.062L3.2 40.353h9.709v9.709zM9.24 38.519v-5.503h15.591v12.84H14.743V38.52H9.24zm45.856 3.702c0 3.611-1.948 6.967-5.082 8.759l-6.84 3.909-6.84-3.909a10.112 10.112 0 01-5.083-8.76V29.349h1.64c4.018 0 7.775-1.802 10.283-4.877a13.246 13.246 0 0010.282 4.877h1.64V42.22z" fill="#3F72AF"/><path d="M51.428 36.685v5.536a6.435 6.435 0 01-3.235 5.574l.91 1.592a8.272 8.272 0 004.16-7.166v-5.536h-1.835zM5.572 3.669V9.17h33.016v-5.5H5.572zm31.182 3.668H7.406V5.503h29.348v1.834zM50.78 31.45L38.588 43.643l-3.02-3.02-1.296 1.297 4.316 4.317 13.489-13.488-1.297-1.297zm-27.783 3.4H11.075v1.835h11.922V34.85zm0 3.67h-6.42v1.833h6.42V38.52zm0 3.668h-6.42v1.834h6.42v-1.834zM34.92 12.84H5.572v1.834H34.92V12.84zm0 3.668H5.572v1.835H34.92v-1.835zm0 3.669H5.572v1.834H34.92v-1.834zm-11.923 3.668H5.572v1.835h17.425v-1.835zm0 3.669H5.572v1.834h17.425v-1.834zM38.588 12.84h-1.834v1.834h1.834V12.84zm0 3.668h-1.834v1.835h1.834v-1.835zm0 3.669h-1.834v1.834h1.834v-1.834zm-11.922 3.668H24.83v1.835h1.835v-1.835zm0 3.669H24.83v1.834h1.835v-1.834z" fill="#3F72AF"/></svg>