<svg width="80" height="80" viewBox="0 0 80 80" fill="none" xmlns="http://www.w3.org/2000/svg">
<g clip-path="url(#clip0)">
<g filter="url(#filter0_d)">
<path d="M39.625 74.0001C38.8709 74.0012 38.1293 73.8073 37.4722 73.4373L11.2222 58.6001C10.5482 58.2184 9.98744 57.6647 9.59708 56.9957C9.20672 56.3266 9.0007 55.566 9 54.7914V25.2089C9.0007 24.4343 9.20672 23.6737 9.59708 23.0046C9.98744 22.3356 10.5482 21.7819 11.2222 21.4001L37.4722 6.56295C38.1297 6.19386 38.871 6 39.625 6C40.379 6 41.1203 6.19386 41.7778 6.56295L68.0278 21.4001C68.7018 21.7819 69.2626 22.3356 69.6529 23.0046C70.0433 23.6737 70.2493 24.4343 70.25 25.2089V54.7914C70.2494 55.566 70.0434 56.3266 69.6531 56.9956C69.2628 57.6647 68.7021 58.2183 68.0281 58.6001L41.7778 73.4373C41.1207 73.8072 40.3791 74.0009 39.625 73.9998V74.0001ZM39.625 9.74701C39.5173 9.74694 39.4113 9.77471 39.3175 9.82764L13.0675 24.6648C12.9713 24.7194 12.8912 24.7984 12.8354 24.8939C12.7797 24.9894 12.7502 25.098 12.75 25.2086V54.7914C12.7501 54.9021 12.7795 55.0108 12.8353 55.1064C12.8911 55.202 12.9712 55.2812 13.0675 55.3358L39.3175 70.1726C39.4114 70.2254 39.5173 70.2531 39.625 70.2531C39.7327 70.2531 39.8386 70.2254 39.9325 70.1726L66.1825 55.3354C66.2787 55.2809 66.3588 55.2019 66.4146 55.1064C66.4704 55.0109 66.4998 54.9023 66.5 54.7917V25.2086C66.4999 25.0979 66.4705 24.9892 66.4147 24.8935C66.3589 24.7979 66.2788 24.7188 66.1825 24.6642L39.9325 9.82733C39.8386 9.77451 39.7327 9.74684 39.625 9.74701Z" fill="#333333"/>
<path d="M39.5606 73.7497L39.6254 73.7498C40.3362 73.7509 41.0353 73.5683 41.6548 73.2197L39.5606 73.7497ZM39.5606 73.7497C38.8717 73.74 38.1958 73.5578 37.5948 73.2195L11.3454 58.3826L39.5606 73.7497ZM39.6249 9.49701C39.4741 9.49696 39.326 9.53584 39.1947 9.60989L39.1945 9.61L12.9445 24.4472L12.9442 24.4473C12.8096 24.5236 12.6976 24.6342 12.6196 24.7678C12.5415 24.9015 12.5003 25.0534 12.5 25.2081V25.2086V54.7914V54.7916C12.5001 54.9465 12.5413 55.0986 12.6193 55.2324C12.6974 55.3662 12.8095 55.4769 12.9442 55.5533L12.9445 55.5534L39.1945 70.3903L39.1951 70.3906C39.3264 70.4643 39.4744 70.5031 39.625 70.5031C39.7756 70.5031 39.9236 70.4643 40.0549 70.3906L40.0555 70.3903L66.3055 55.5531L66.3057 55.553C66.4404 55.4767 66.5524 55.3661 66.6305 55.2325C66.7085 55.0988 66.7498 54.9468 66.75 54.7921V54.7917V25.2086V25.2084C66.7499 25.0535 66.7087 24.9014 66.6307 24.7676C66.5526 24.6338 66.4405 24.5231 66.3058 24.4467L66.3055 24.4466L40.0555 9.60969L40.0551 9.60945C39.9238 9.53555 39.7756 9.49682 39.6249 9.49701ZM39.6249 9.49701C39.6248 9.49701 39.6247 9.49702 39.6246 9.49702L39.625 9.74701L39.6252 9.49701C39.6251 9.49701 39.625 9.49701 39.6249 9.49701ZM67.9049 58.3826L41.6552 73.2195L11.3452 58.3825C10.7097 58.0225 10.1811 57.5005 9.81302 56.8697C9.44493 56.2388 9.25066 55.5216 9.25 54.7912L9.25 25.209C9.25068 24.4786 9.44495 23.7615 9.81302 23.1306C10.1811 22.4997 10.7099 21.9777 11.3454 21.6177L37.5946 6.78095C37.5947 6.78086 37.5949 6.78078 37.595 6.78069C38.215 6.43275 38.914 6.25 39.625 6.25C40.336 6.25 41.035 6.43276 41.655 6.78072C41.6552 6.7808 41.6553 6.78087 41.6554 6.78095L67.9046 21.6177C68.5401 21.9777 69.0689 22.4997 69.437 23.1306C69.8051 23.7615 69.9993 24.4787 70 25.2091V54.7912C69.9994 55.5216 69.8052 56.2388 69.4372 56.8697C69.0691 57.5006 68.5404 58.0226 67.9049 58.3826Z" stroke="#880000" stroke-width="0.5"/>
</g>
<g clip-path="url(#clip1)" filter="url(#filter1_d)">
<path d="M46.2244 60C46.1739 60 46.1233 59.9831 46.0811 59.9578L31.1517 51.3425C31.059 51.2919 31 51.1907 31 51.0896V21.5258C31 21.4247 31.059 21.3235 31.1517 21.2729L31.1433 21.2813C31.1686 21.2645 31.3456 21.1633 33.2845 20.0421C33.3267 20.0169 33.3772 20 33.4362 20C33.4953 20 33.5374 20.0169 33.588 20.0421L48.509 28.666C48.6017 28.7165 48.6523 28.8177 48.6523 28.9189V58.4742C48.6523 58.5753 48.5933 58.6765 48.5005 58.7271L46.393 59.941C46.334 59.9747 46.2582 60 46.2244 60ZM46.5279 30.3182V59.1907L48.0706 58.3056V29.4247L46.5279 30.3182ZM31.5901 50.9125L45.9294 59.1907V30.3182L42.254 28.1939V29.9726L44.2434 31.1191C44.3361 31.1697 44.3867 31.2708 44.3867 31.372V56.0042C44.3867 56.1054 44.3277 56.2065 44.235 56.2571C44.1928 56.2824 44.1423 56.2993 44.0917 56.2993C44.0411 56.2993 43.9905 56.2824 43.9399 56.2571L33.2761 50.0948C33.1834 50.0443 33.1328 49.9431 33.1328 49.8419V25.2181C33.1328 25.117 33.1918 25.0158 33.2761 24.9652C33.3182 24.9399 33.3688 24.9231 33.4278 24.9231C33.4784 24.9231 33.529 24.9399 33.5711 24.9652L35.2571 25.9431V24.156L31.5817 22.0316V50.9125H31.5901ZM33.7229 49.6818L43.7966 55.4984V31.549L42.254 30.6554V32.6112C42.254 32.7123 42.1949 32.8135 42.1106 32.8641C42.0685 32.8894 42.0179 32.9062 41.9589 32.9062C41.8999 32.9062 41.8577 32.8894 41.8072 32.8641L35.4089 29.1718C35.3161 29.1212 35.2571 29.02 35.2571 28.9189V26.6175L33.7144 25.7239V49.6818H33.7229ZM35.8556 28.7418L41.6639 32.0969V27.8483L35.8556 24.4932V28.7418ZM42.549 27.6797L46.2244 29.804L47.7671 28.9104L44.0917 26.7861L42.549 27.6797ZM36.0242 23.9115L41.9673 27.3425L43.51 26.4489L37.6175 23.0516L36.0242 23.9115ZM31.8851 21.5258L35.4173 23.5659L37.019 22.706L33.4278 20.6322L31.8851 21.5258Z" fill="#880000"/>
<path d="M39.8256 29.2141C39.7751 29.2141 39.7245 29.1972 39.6823 29.1719L37.5496 27.9411C37.4821 27.899 37.4315 27.84 37.4147 27.7641C37.3978 27.6882 37.4062 27.6124 37.44 27.5365C37.4905 27.4438 37.5917 27.3848 37.6929 27.3848C37.7434 27.3848 37.794 27.4016 37.8362 27.4269L39.9689 28.6577C40.1123 28.742 40.1544 28.919 40.0785 29.0623C40.0364 29.155 39.9352 29.2141 39.8256 29.2141Z" fill="#880000"/>
<path d="M41.9579 37.8299C41.9073 37.8299 41.8567 37.813 41.8146 37.7877L35.4163 34.0954C35.273 34.0111 35.2308 33.8341 35.3067 33.6908C35.3573 33.5981 35.4584 33.5391 35.5596 33.5391C35.6102 33.5391 35.6607 33.5559 35.7029 33.5812L42.1012 37.2735C42.1686 37.3157 42.2192 37.3747 42.2361 37.4505C42.2529 37.5264 42.2445 37.6023 42.2108 37.6782C42.1602 37.7793 42.0675 37.8299 41.9579 37.8299Z" fill="#880000"/>
<path d="M41.9579 41.5291C41.9073 41.5291 41.8567 41.5122 41.8146 41.487L35.4163 37.7947C35.273 37.7104 35.2308 37.5333 35.3067 37.39C35.3573 37.2973 35.4584 37.2383 35.5596 37.2383C35.6102 37.2383 35.6607 37.2551 35.7029 37.2804L42.1012 40.9727C42.1686 41.0149 42.2192 41.0739 42.2361 41.1498C42.2529 41.2256 42.2445 41.3015 42.2108 41.3774C42.1602 41.4701 42.0675 41.5291 41.9579 41.5291Z" fill="#880000"/>
<path d="M41.9657 48.9139C41.9151 48.9139 41.8646 48.897 41.8224 48.8717L35.4241 45.1794C35.2808 45.0951 35.2386 44.9181 35.3145 44.7748C35.3651 44.6821 35.4662 44.623 35.5674 44.623C35.618 44.623 35.6686 44.6399 35.7107 44.6652L42.109 48.3575C42.1765 48.3996 42.227 48.4587 42.2439 48.5345C42.2608 48.6104 42.2523 48.6863 42.2186 48.7621C42.168 48.8633 42.0669 48.9139 41.9657 48.9139Z" fill="#880000"/>
<path d="M41.9657 45.2225C41.9151 45.2225 41.8646 45.2056 41.8224 45.1803L35.4241 41.488C35.2808 41.4037 35.2386 41.2267 35.3145 41.0834C35.3651 40.9907 35.4662 40.9316 35.5674 40.9316C35.618 40.9316 35.6686 40.9485 35.7107 40.9738L42.109 44.6661C42.1765 44.7082 42.227 44.7673 42.2439 44.8431C42.2608 44.919 42.2523 44.9949 42.2186 45.0707C42.168 45.1635 42.0669 45.2225 41.9657 45.2225Z" fill="#880000"/>
</g>
</g>
<defs>
<filter id="filter0_d" x="5" y="6" width="69.25" height="76.0001" filterUnits="userSpaceOnUse" color-interpolation-filters="sRGB">
<feFlood flood-opacity="0" result="BackgroundImageFix"/>
<feColorMatrix in="SourceAlpha" type="matrix" values="0 0 0 0 0 0 0 0 0 0 0 0 0 0 0 0 0 0 127 0"/>
<feOffset dy="4"/>
<feGaussianBlur stdDeviation="2"/>
<feColorMatrix type="matrix" values="0 0 0 0 0 0 0 0 0 0 0 0 0 0 0 0 0 0 0.25 0"/>
<feBlend mode="normal" in2="BackgroundImageFix" result="effect1_dropShadow"/>
<feBlend mode="normal" in="SourceGraphic" in2="effect1_dropShadow" result="shape"/>
</filter>
<filter id="filter1_d" x="27" y="20" width="25.6523" height="48" filterUnits="userSpaceOnUse" color-interpolation-filters="sRGB">
<feFlood flood-opacity="0" result="BackgroundImageFix"/>
<feColorMatrix in="SourceAlpha" type="matrix" values="0 0 0 0 0 0 0 0 0 0 0 0 0 0 0 0 0 0 127 0"/>
<feOffset dy="4"/>
<feGaussianBlur stdDeviation="2"/>
<feColorMatrix type="matrix" values="0 0 0 0 0 0 0 0 0 0 0 0 0 0 0 0 0 0 0.25 0"/>
<feBlend mode="normal" in2="BackgroundImageFix" result="effect1_dropShadow"/>
<feBlend mode="normal" in="SourceGraphic" in2="effect1_dropShadow" result="shape"/>
</filter>
<clipPath id="clip0">
<rect width="80" height="80" fill="white"/>
</clipPath>
<clipPath id="clip1">
<rect width="17.6523" height="40" fill="white" transform="translate(31 20)"/>
</clipPath>
</defs>
</svg>
