<svg width="62" height="68" viewBox="0 0 62 68" fill="none" xmlns="http://www.w3.org/2000/svg">
<path d="M30.5606 67.7497L30.6254 67.7498C31.3362 67.7509 32.0353 67.5683 32.6548 67.2197L30.5606 67.7497ZM30.5606 67.7497C29.8717 67.74 29.1958 67.5578 28.5948 67.2195L2.3454 52.3826L30.5606 67.7497ZM30.6249 3.49701C30.4741 3.49696 30.326 3.53584 30.1947 3.60989L30.1945 3.61L3.94448 18.4472L3.94425 18.4473C3.80961 18.5236 3.69758 18.6342 3.61955 18.7678C3.54152 18.9015 3.50027 19.0534 3.5 19.2081V19.2086V48.7914V48.7916C3.50012 48.9465 3.54129 49.0986 3.61933 49.2324C3.69737 49.3662 3.80948 49.4769 3.94425 49.5533L3.94449 49.5534L30.1945 64.3903L30.1951 64.3906C30.3264 64.4643 30.4744 64.5031 30.625 64.5031C30.7756 64.5031 30.9236 64.4643 31.0549 64.3906L31.0555 64.3903L57.3055 49.5531L57.3057 49.553C57.4404 49.4767 57.5524 49.3661 57.6305 49.2325C57.7085 49.0988 57.7498 48.9468 57.75 48.7921V48.7917V19.2086V19.2084C57.7499 19.0535 57.7087 18.9014 57.6307 18.7676C57.5526 18.6338 57.4405 18.5231 57.3058 18.4467L57.3055 18.4466L31.0555 3.60969L31.0551 3.60945C30.9238 3.53555 30.7756 3.49682 30.6249 3.49701ZM30.6249 3.49701C30.6248 3.49701 30.6247 3.49702 30.6246 3.49702L30.625 3.74701L30.6252 3.49701C30.6251 3.49701 30.625 3.49701 30.6249 3.49701ZM58.9049 52.3826L32.6552 67.2195L2.3452 52.3825C1.70975 52.0225 1.18107 51.5005 0.813017 50.8697C0.444927 50.2388 0.250656 49.5216 0.25 48.7912L0.25 19.209C0.250677 18.4786 0.444946 17.7615 0.813017 17.1306C1.18111 16.4997 1.70986 15.9777 2.3454 15.6177L28.5946 0.78095C28.5947 0.780865 28.5949 0.780779 28.595 0.780694C29.215 0.432746 29.914 0.25 30.625 0.25C31.336 0.25 32.035 0.432755 32.655 0.780719C32.6552 0.780796 32.6553 0.780873 32.6554 0.78095L58.9046 15.6177C59.5401 15.9777 60.0689 16.4997 60.437 17.1306C60.8051 17.7615 60.9993 18.4787 61 19.2091V48.7912C60.9994 49.5216 60.8052 50.2388 60.4372 50.8697C60.0691 51.5006 59.5404 52.0226 58.9049 52.3826Z" fill="#333333" stroke="#880000" stroke-width="0.5"/>
</svg>
