<svg width="70" height="76" viewBox="0 0 70 76" fill="none" xmlns="http://www.w3.org/2000/svg">
<g filter="url(#filter0_d)">
<path d="M34.5606 67.7497L34.6254 67.7498C35.3362 67.7509 36.0353 67.5683 36.6548 67.2197L34.5606 67.7497ZM34.5606 67.7497C33.8717 67.74 33.1958 67.5578 32.5948 67.2195L6.3454 52.3826L34.5606 67.7497ZM34.6249 3.49701C34.4741 3.49696 34.326 3.53584 34.1947 3.60989L34.1945 3.61L7.94448 18.4472L7.94425 18.4473C7.80961 18.5236 7.69758 18.6342 7.61955 18.7678C7.54152 18.9015 7.50027 19.0534 7.5 19.2081V19.2086V48.7914V48.7916C7.50012 48.9465 7.54129 49.0986 7.61933 49.2324C7.69737 49.3662 7.80948 49.4769 7.94425 49.5533L7.94449 49.5534L34.1945 64.3903L34.1951 64.3906C34.3264 64.4643 34.4744 64.5031 34.625 64.5031C34.7756 64.5031 34.9236 64.4643 35.0549 64.3906L35.0555 64.3903L61.3055 49.5531L61.3057 49.553C61.4404 49.4767 61.5524 49.3661 61.6305 49.2325C61.7085 49.0988 61.7498 48.9468 61.75 48.7921V48.7917V19.2086V19.2084C61.7499 19.0535 61.7087 18.9014 61.6307 18.7676C61.5526 18.6338 61.4405 18.5231 61.3058 18.4467L61.3055 18.4466L35.0555 3.60969L35.0551 3.60945C34.9238 3.53555 34.7756 3.49682 34.6249 3.49701ZM34.6249 3.49701C34.6248 3.49701 34.6247 3.49702 34.6246 3.49702L34.625 3.74701L34.6252 3.49701C34.6251 3.49701 34.625 3.49701 34.6249 3.49701ZM62.9049 52.3826L36.6552 67.2195L6.3452 52.3825C5.70975 52.0225 5.18107 51.5005 4.81302 50.8697C4.44493 50.2388 4.25066 49.5216 4.25 48.7912L4.25 19.209C4.25068 18.4786 4.44495 17.7615 4.81302 17.1306C5.18111 16.4997 5.70986 15.9777 6.3454 15.6177L32.5946 0.78095C32.5947 0.780865 32.5949 0.780779 32.595 0.780694C33.215 0.432746 33.914 0.25 34.625 0.25C35.336 0.25 36.035 0.432755 36.655 0.780719C36.6552 0.780796 36.6553 0.780873 36.6554 0.78095L62.9046 15.6177C63.5401 15.9777 64.0689 16.4997 64.437 17.1306C64.8051 17.7615 64.9993 18.4787 65 19.2091V48.7912C64.9994 49.5216 64.8052 50.2388 64.4372 50.8697C64.0691 51.5006 63.5404 52.0226 62.9049 52.3826Z" fill="#333333" stroke="#880000" stroke-width="0.5"/>
</g>
<g filter="url(#filter1_d)">
<line x1="20" y1="49.0781" x2="49.5" y2="49.0781" stroke="#880000" stroke-width="0.5"/>
<line x1="19.75" y1="48.7129" x2="19.75" y2="36.2547" stroke="#880000" stroke-width="0.5" stroke-linecap="round"/>
<line x1="49.75" y1="49.3281" x2="49.75" y2="22.0357" stroke="#880000" stroke-width="0.5"/>
<line x1="26.75" y1="34.2539" x2="26.75" y2="48.7539" stroke="#880000" stroke-width="0.5" stroke-linecap="round"/>
<line x1="20.2645" y1="36.4479" x2="26.7231" y2="34.2278" stroke="#880000" stroke-width="0.5" stroke-linecap="round"/>
<line x1="33.75" y1="48.7461" x2="33.75" y2="36.2497" stroke="#880000" stroke-width="0.5" stroke-linecap="round"/>
<line x1="0.25" y1="-0.25" x2="7.0795" y2="-0.25" transform="matrix(-0.945687 -0.32508 -0.32508 0.945687 33.4297 36.7656)" stroke="#880000" stroke-width="0.5" stroke-linecap="round"/>
<rect x="21.7344" y="37.8477" width="1.62455" height="2.59928" fill="#333333"/>
<rect x="23.6836" y="37.8477" width="1.62455" height="2.59928" fill="#333333"/>
<rect x="21.7344" y="44.3457" width="1.62455" height="2.59928" fill="#333333"/>
<rect x="23.6836" y="44.3457" width="1.62455" height="2.59928" fill="#333333"/>
<rect x="21.7344" y="41.0977" width="1.62455" height="2.59928" fill="#333333"/>
<rect x="23.6836" y="41.0977" width="1.62455" height="2.59928" fill="#333333"/>
<rect x="28.3398" y="37.8477" width="1.62455" height="2.59928" fill="#333333"/>
<rect x="30.2891" y="37.8477" width="1.62455" height="2.59928" fill="#333333"/>
<rect x="28.3398" y="44.3457" width="1.62455" height="2.59928" fill="#333333"/>
<rect x="30.2891" y="44.3457" width="1.62455" height="2.59928" fill="#333333"/>
<rect x="28.3398" y="41.0977" width="1.62455" height="2.59928" fill="#333333"/>
<rect x="30.2891" y="41.0977" width="1.62455" height="2.59928" fill="#333333"/>
<line x1="29.8477" y1="34.5664" x2="29.8477" y2="22.2866" stroke="#880000" stroke-width="0.5" stroke-linecap="round"/>
<line x1="29.9316" y1="22.1486" x2="39.8543" y2="18.841" stroke="#880000" stroke-width="0.5" stroke-linecap="round" stroke-linejoin="round"/>
<line x1="39.8129" y1="18.8354" x2="49.8401" y2="21.9507" stroke="#880000" stroke-width="0.5" stroke-linecap="round" stroke-linejoin="round"/>
<line x1="39.5" y1="19.0039" x2="39.5" y2="49.2205" stroke="#880000" stroke-width="0.5"/>
<path d="M42.1484 22.252L44.3145 22.9358V24.1473L42.1484 23.5145V22.252Z" fill="#333333"/>
<path d="M36.1367 22.252L33.9707 22.9553V24.2014L36.1367 23.5505V22.252Z" fill="#333333"/>
<path d="M33.3203 23.1191L31.1542 23.8225V25.0686L33.3203 24.4177V23.1191Z" fill="#333333"/>
<path d="M36.1367 28.75L33.9707 29.4534V30.6995L36.1367 30.0486V28.75Z" fill="#333333"/>
<path d="M33.3203 29.6172L31.1542 30.3206V31.5666L33.3203 30.9158V29.6172Z" fill="#333333"/>
<path d="M36.1367 30.916L33.9707 31.6194V32.8655L36.1367 32.2146V30.916Z" fill="#333333"/>
<path d="M33.3203 31.7832L31.1542 32.4866V33.7327L33.3203 33.0818V31.7832Z" fill="#333333"/>
<path d="M36.1367 26.584L33.9707 27.2874V28.5334L36.1367 27.8826V26.584Z" fill="#333333"/>
<path d="M33.3203 27.4512L31.1542 28.1546V29.4006L33.3203 28.7497V27.4512Z" fill="#333333"/>
<path d="M36.1367 24.418L33.9707 25.1214V26.3674L36.1367 25.7165V24.418Z" fill="#333333"/>
<path d="M33.3203 25.2852L31.1542 25.9886V27.2346L33.3203 26.5837V25.2852Z" fill="#333333"/>
<path d="M45.0195 23.1191L47.1856 23.803V25.0144L45.0195 24.3816V23.1191Z" fill="#333333"/>
<path d="M42.1484 28.75L44.3145 29.4729V30.7536L42.1484 30.0846V28.75Z" fill="#333333"/>
<path d="M45.0195 29.6172L47.1856 30.3401V31.6208L45.0195 30.9518V29.6172Z" fill="#333333"/>
<path d="M42.1484 37.4141L44.3145 38.0979V39.3094L42.1484 38.6766V37.4141Z" fill="#333333"/>
<path d="M45.0195 38.2812L47.1856 38.9651V40.1766L45.0195 39.5438V38.2812Z" fill="#333333"/>
<path d="M42.1484 35.248L44.3145 35.9319V37.1434L42.1484 36.5106V35.248Z" fill="#333333"/>
<path d="M45.0195 36.1152L47.1856 36.7991V38.0105L45.0195 37.3777V36.1152Z" fill="#333333"/>
<path d="M42.1484 33.082L44.3145 33.7659V34.9773L42.1484 34.3445V33.082Z" fill="#333333"/>
<path d="M45.0195 33.9492L47.1856 34.6331V35.8445L45.0195 35.2117V33.9492Z" fill="#333333"/>
<path d="M42.1484 30.916L44.3145 31.5999V32.8113L42.1484 32.1785V30.916Z" fill="#333333"/>
<path d="M45.0195 31.7832L47.1856 32.4671V33.6785L45.0195 33.0457V31.7832Z" fill="#333333"/>
<path d="M42.1484 26.584L44.3145 27.2678V28.4793L42.1484 27.8465V26.584Z" fill="#333333"/>
<path d="M45.0195 27.4512L47.1856 28.135V29.3465L45.0195 28.7137V27.4512Z" fill="#333333"/>
<path d="M42.1484 24.418L44.3145 25.1018V26.3133L42.1484 25.6805V24.418Z" fill="#333333"/>
<path d="M45.0195 25.2852L47.1856 25.969V27.1805L45.0195 26.5477V25.2852Z" fill="#333333"/>
</g>
<defs>
<filter id="filter0_d" x="0" y="0" width="69.25" height="76.0001" filterUnits="userSpaceOnUse" color-interpolation-filters="sRGB">
<feFlood flood-opacity="0" result="BackgroundImageFix"/>
<feColorMatrix in="SourceAlpha" type="matrix" values="0 0 0 0 0 0 0 0 0 0 0 0 0 0 0 0 0 0 127 0"/>
<feOffset dy="4"/>
<feGaussianBlur stdDeviation="2"/>
<feColorMatrix type="matrix" values="0 0 0 0 0 0 0 0 0 0 0 0 0 0 0 0 0 0 0.25 0"/>
<feBlend mode="normal" in2="BackgroundImageFix" result="effect1_dropShadow"/>
<feBlend mode="normal" in="SourceGraphic" in2="effect1_dropShadow" result="shape"/>
</filter>
<filter id="filter1_d" x="15.5" y="18.5859" width="38.5899" height="38.7422" filterUnits="userSpaceOnUse" color-interpolation-filters="sRGB">
<feFlood flood-opacity="0" result="BackgroundImageFix"/>
<feColorMatrix in="SourceAlpha" type="matrix" values="0 0 0 0 0 0 0 0 0 0 0 0 0 0 0 0 0 0 127 0"/>
<feOffset dy="4"/>
<feGaussianBlur stdDeviation="2"/>
<feColorMatrix type="matrix" values="0 0 0 0 0 0 0 0 0 0 0 0 0 0 0 0 0 0 0.25 0"/>
<feBlend mode="normal" in2="BackgroundImageFix" result="effect1_dropShadow"/>
<feBlend mode="normal" in="SourceGraphic" in2="effect1_dropShadow" result="shape"/>
</filter>
</defs>
</svg>
