<svg width="70" height="76" viewBox="0 0 70 76" fill="none" xmlns="http://www.w3.org/2000/svg">
<g filter="url(#filter0_d)">
<path d="M34.5606 67.7497L34.6254 67.7498C35.3362 67.7509 36.0353 67.5683 36.6548 67.2197L34.5606 67.7497ZM34.5606 67.7497C33.8717 67.74 33.1958 67.5578 32.5948 67.2195L6.3454 52.3826L34.5606 67.7497ZM34.6249 3.49701C34.4741 3.49696 34.326 3.53584 34.1947 3.60989L34.1945 3.61L7.94448 18.4472L7.94425 18.4473C7.80961 18.5236 7.69758 18.6342 7.61955 18.7678C7.54152 18.9015 7.50027 19.0534 7.5 19.2081V19.2086V48.7914V48.7916C7.50012 48.9465 7.54129 49.0986 7.61933 49.2324C7.69737 49.3662 7.80948 49.4769 7.94425 49.5533L7.94449 49.5534L34.1945 64.3903L34.1951 64.3906C34.3264 64.4643 34.4744 64.5031 34.625 64.5031C34.7756 64.5031 34.9236 64.4643 35.0549 64.3906L35.0555 64.3903L61.3055 49.5531L61.3057 49.553C61.4404 49.4767 61.5524 49.3661 61.6305 49.2325C61.7085 49.0988 61.7498 48.9468 61.75 48.7921V48.7917V19.2086V19.2084C61.7499 19.0535 61.7087 18.9014 61.6307 18.7676C61.5526 18.6338 61.4405 18.5231 61.3058 18.4467L61.3055 18.4466L35.0555 3.60969L35.0551 3.60945C34.9238 3.53555 34.7756 3.49682 34.6249 3.49701ZM34.6249 3.49701C34.6248 3.49701 34.6247 3.49702 34.6246 3.49702L34.625 3.74701L34.6252 3.49701C34.6251 3.49701 34.625 3.49701 34.6249 3.49701ZM62.9049 52.3826L36.6552 67.2195L6.3452 52.3825C5.70975 52.0225 5.18107 51.5005 4.81302 50.8697C4.44493 50.2388 4.25066 49.5216 4.25 48.7912L4.25 19.209C4.25068 18.4786 4.44495 17.7615 4.81302 17.1306C5.18111 16.4997 5.70986 15.9777 6.3454 15.6177L32.5946 0.78095C32.5947 0.780865 32.5949 0.780779 32.595 0.780694C33.215 0.432746 33.914 0.25 34.625 0.25C35.336 0.25 36.035 0.432755 36.655 0.780719C36.6552 0.780796 36.6553 0.780873 36.6554 0.78095L62.9046 15.6177C63.5401 15.9777 64.0689 16.4997 64.437 17.1306C64.8051 17.7615 64.9993 18.4787 65 19.2091V48.7912C64.9994 49.5216 64.8052 50.2388 64.4372 50.8697C64.0691 51.5006 63.5404 52.0226 62.9049 52.3826Z" fill="#333333" stroke="#880000" stroke-width="0.5"/>
<g clip-path="url(#clip0)" filter="url(#filter1_d)">
<path d="M36.2407 48.0624C34.9057 48.0624 33.4797 47.63 31.9853 46.7729C29.467 45.3317 27.1156 42.8513 25.3482 39.7944C23.5808 36.7375 22.6175 33.4531 22.625 30.5555C22.6326 27.6048 23.6567 25.3974 25.4999 24.3279C26.266 23.8879 27.1307 23.668 28.0713 23.668C29.4063 23.668 30.8324 24.1003 32.3267 24.9575C34.845 26.3987 37.1965 28.8791 38.9639 31.936C40.7312 34.9929 41.6946 38.2773 41.687 41.1749C41.6794 44.1256 40.6554 46.333 38.8121 47.4025C38.0536 47.8424 37.1889 48.0624 36.2407 48.0624ZM28.0713 24.1989C27.2218 24.1989 26.4405 24.3962 25.7654 24.7906C24.0966 25.7539 23.1712 27.802 23.156 30.5555C23.1484 33.362 24.089 36.5479 25.8109 39.5289C27.5328 42.5099 29.8159 44.9145 32.2508 46.3102C33.6617 47.1142 35.0043 47.5238 36.2407 47.5238C37.0903 47.5238 37.8716 47.3266 38.5467 46.9322C40.2154 45.9689 41.1408 43.9208 41.156 41.1673C41.1636 38.3608 40.223 35.1749 38.5012 32.1939C36.7793 29.2128 34.4961 26.8083 32.0612 25.4126C30.6503 24.6086 29.3077 24.1989 28.0713 24.1989Z" fill="#880000"/>
<path d="M37.4006 51.4452C35.7015 51.4452 33.881 50.8915 31.9771 49.7992C28.7609 47.956 25.7419 44.7853 23.4815 40.8713C21.221 36.9572 19.9846 32.755 19.9922 29.0533C20.0074 25.3289 21.2817 22.5224 23.5801 21.1646C23.6256 21.1418 29.2084 17.8801 29.2615 17.8498C30.2248 17.2885 31.3247 17.0078 32.5232 17.0078C34.2223 17.0078 36.0428 17.5615 37.9467 18.6538C41.1629 20.4971 44.1819 23.6677 46.4423 27.5818C48.7103 31.511 49.9695 35.7284 49.9846 39.4528C49.9998 43.2531 48.7255 46.0824 46.3968 47.4326C46.3361 47.4705 40.5864 50.6488 40.5106 50.6867C39.5927 51.1873 38.5384 51.4452 37.4006 51.4452ZM26.91 20.8157C25.8026 20.8157 24.7937 21.0736 23.9063 21.5818C21.7368 22.8333 20.5384 25.4882 20.5232 29.0457C20.508 32.6639 21.7217 36.76 23.9366 40.5982C26.1515 44.4364 29.0946 47.5388 32.235 49.3289C34.0554 50.3757 35.7925 50.8991 37.393 50.8991C38.5004 50.8991 39.5093 50.6412 40.3968 50.133C42.5662 48.8814 43.7647 46.2265 43.7798 42.669C43.795 39.0508 42.5814 34.9547 40.3664 31.1165C38.1515 27.2784 35.2084 24.176 32.0681 22.3858C30.2476 21.3466 28.5106 20.8157 26.91 20.8157ZM32.5384 17.5388C31.4309 17.5388 30.4221 17.7967 29.5346 18.3049L26.197 20.2543L27.2286 20.2998C28.8367 20.3681 30.551 20.9143 32.326 21.9383C35.5422 23.7815 38.5611 26.9522 40.8216 30.8662C43.082 34.7803 44.3184 38.9825 44.3108 42.6842C44.3032 44.7701 43.9088 46.5603 43.1351 47.9939L42.6496 48.9041L46.1389 46.9699C48.3007 45.7183 49.484 43.0483 49.4612 39.4528C49.4461 35.8119 48.2097 31.693 45.9872 27.8473C43.7798 24.0091 40.8367 20.9067 37.6964 19.1089C35.8759 18.0622 34.1389 17.5388 32.5384 17.5388Z" fill="#880000"/>
<path d="M32.1839 36.2138C32.1384 36.2138 32.0929 36.1986 32.0474 36.1758L28.3078 34.014C28.1789 33.9382 28.141 33.7789 28.2092 33.6499C28.2547 33.5665 28.3458 33.5134 28.4368 33.5134C28.4823 33.5134 28.5278 33.5285 28.5657 33.5513L31.9033 35.478V29.66C31.9033 29.5159 32.0247 29.3945 32.1688 29.3945C32.3129 29.3945 32.4343 29.5159 32.4343 29.66V35.9407C32.4343 36.0317 32.3812 36.1227 32.2977 36.1683C32.275 36.1986 32.2295 36.2138 32.1839 36.2138Z" fill="#880000"/>
</g>
</g>
<defs>
<filter id="filter0_d" x="0" y="0" width="69.25" height="76.0001" filterUnits="userSpaceOnUse" color-interpolation-filters="sRGB">
<feFlood flood-opacity="0" result="BackgroundImageFix"/>
<feColorMatrix in="SourceAlpha" type="matrix" values="0 0 0 0 0 0 0 0 0 0 0 0 0 0 0 0 0 0 127 0"/>
<feOffset dy="4"/>
<feGaussianBlur stdDeviation="2"/>
<feColorMatrix type="matrix" values="0 0 0 0 0 0 0 0 0 0 0 0 0 0 0 0 0 0 0.25 0"/>
<feBlend mode="normal" in2="BackgroundImageFix" result="effect1_dropShadow"/>
<feBlend mode="normal" in="SourceGraphic" in2="effect1_dropShadow" result="shape"/>
</filter>
<filter id="filter1_d" x="16" y="17" width="38" height="42.445" filterUnits="userSpaceOnUse" color-interpolation-filters="sRGB">
<feFlood flood-opacity="0" result="BackgroundImageFix"/>
<feColorMatrix in="SourceAlpha" type="matrix" values="0 0 0 0 0 0 0 0 0 0 0 0 0 0 0 0 0 0 127 0"/>
<feOffset dy="4"/>
<feGaussianBlur stdDeviation="2"/>
<feColorMatrix type="matrix" values="0 0 0 0 0 0 0 0 0 0 0 0 0 0 0 0 0 0 0.25 0"/>
<feBlend mode="normal" in2="BackgroundImageFix" result="effect1_dropShadow"/>
<feBlend mode="normal" in="SourceGraphic" in2="effect1_dropShadow" result="shape"/>
</filter>
<clipPath id="clip0">
<rect width="30" height="34.445" fill="white" transform="translate(20 17)"/>
</clipPath>
</defs>
</svg>
