<svg width="26" height="26" viewBox="0 0 26 26" fill="none" xmlns="http://www.w3.org/2000/svg">
<g clip-path="url(#clip0)">
<path d="M0.158691 13.3828L8.28369 21.5078C8.4953 21.7194 8.83807 21.7194 9.04963 21.5078C9.26123 21.2962 9.26123 20.9534 9.04963 20.7419L1.84925 13.5415L25.4583 13.5415C25.7577 13.5415 26 13.2992 26 12.9998C26 12.7004 25.7577 12.4581 25.4583 12.4581L1.84925 12.4581L9.04963 5.2578C9.26123 5.04619 9.26123 4.70342 9.04963 4.49187C8.94385 4.38609 8.80521 4.33318 8.66663 4.33318C8.52805 4.33318 8.38947 4.38609 8.28364 4.49187L0.15864 12.6169C-0.0529137 12.8284 -0.0529137 13.1712 0.158691 13.3828Z" fill="black"/>
</g>
<defs>
<clipPath id="clip0">
<rect width="26" height="26" fill="white" transform="translate(26 26) rotate(-180)"/>
</clipPath>
</defs>
</svg>
