<svg width="26" height="26" viewBox="0 0 26 26" fill="none" xmlns="http://www.w3.org/2000/svg">
<g clip-path="url(#clip0)">
<path d="M25.8413 12.6172L17.7163 4.4922C17.5047 4.28059 17.1619 4.28059 16.9504 4.4922C16.7388 4.70381 16.7388 5.04658 16.9504 5.25813L24.1508 12.4585H0.541684C0.242277 12.4585 0 12.7008 0 13.0002C0 13.2996 0.242277 13.5419 0.541684 13.5419H24.1508L16.9504 20.7422C16.7388 20.9538 16.7388 21.2966 16.9504 21.5081C17.0562 21.6139 17.1948 21.6668 17.3334 21.6668C17.472 21.6668 17.6105 21.6139 17.7164 21.5081L25.8414 13.3831C26.0529 13.1716 26.0529 12.8288 25.8413 12.6172Z" fill="white"/>
</g>
<defs>
<clipPath id="clip0">
<rect width="26" height="26" fill="white"/>
</clipPath>
</defs>
</svg>
