<svg width="20" height="20" fill="none" xmlns="http://www.w3.org/2000/svg"><path d="M15.709 13.84l-.007-.004-6.63-4.615h0l-.065-.045a.33.33 0 00-.097-.044.48.48 0 00-.263 0 .33.33 0 00-.097.044h0l-1.098.764-.142.1-.143-.1L4.82 8.307l-.005-.004h0a.866.866 0 00-.263-.127 1.173 1.173 0 00-.334-.047h0a1.04 1.04 0 00-.59.167c-.14.098-.196.21-.195.307h0c0 .048.013.1.047.154a.54.54 0 00.165.161l.005.004h0l2.338 1.627.295.206-.295.205-5.691 3.96h0a.141.141 0 00-.042.042.042.042 0 00-.005.01.01.01 0 000 .002v.003a.04.04 0 00.005.01.145.145 0 00.042.04h0l6.695 4.66h0a.33.33 0 00.097.045.477.477 0 00.264 0 .33.33 0 00.097-.044h0l.143.205-.143-.206 8.253-5.744.006-.102zm0 0c.02.016.03.03.036.038a.04.04 0 01.004.01v.002s0 0 0 0v.002a.04.04 0 01-.004.01.141.141 0 01-.042.041l.006-.102zm-3.974 1.381h.078l.065-.045 1.549-1.078.294-.205-.294-.205-4.502-3.134-.143-.1-.143.1-6.051 4.212-.654.455h9.801z" fill="#FFB401" stroke="#000" stroke-width=".5"/><mask id="a" fill="#fff"><path d="M15.691 8.244l-1.036-1.453c-.006-.008-.01-.017-.017-.024l-.003-.004a.277.277 0 00-.098-.069.34.34 0 00-.355.055l-.003-.001-.01.014a.235.235 0 00-.038.053l-1.013 1.42a1.135 1.135 0 00-.317.772c0 .17.041.34.121.496.08.157.199.3.347.42.149.12.325.216.52.281a1.932 1.932 0 001.224 0c.194-.065.37-.16.52-.28.148-.12.266-.264.346-.42.08-.158.122-.326.122-.497 0-.274-.109-.542-.31-.763z"/></mask><path d="M15.691 8.244l-1.036-1.453c-.006-.008-.01-.017-.017-.024l-.003-.004a.277.277 0 00-.098-.069.34.34 0 00-.355.055l-.003-.001-.01.014a.235.235 0 00-.038.053l-1.013 1.42a1.135 1.135 0 00-.317.772c0 .17.041.34.121.496.08.157.199.3.347.42.149.12.325.216.52.281a1.932 1.932 0 001.224 0c.194-.065.37-.16.52-.28.148-.12.266-.264.346-.42.08-.158.122-.326.122-.497 0-.274-.109-.542-.31-.763z" fill="#F5C200"/><path d="M14.655 6.79l-.417.276.005.008.005.007.407-.29zm-.017-.023l-.402.297.01.013.01.013.382-.323zm-.003-.004l.402-.298-.23-.31-.36.145.188.463zm0 0l-.374.332.234.264.327-.132-.188-.464zm-.453-.014l-.207.455.308.14.245-.234-.346-.36zm-.003-.001l.207-.455-.376-.172-.239.338.408.289zm-.01.014l.364.343.024-.025.02-.029-.408-.289zm-.038.053l.407.29.02-.028.017-.032-.444-.23zm-1.013 1.42l.367.34.022-.023.018-.026-.407-.29zm-.317.772h.5-.5zm1.6 1.296v-.5.5zM16 9.007h-.5.5zm.097-1.053L15.062 6.5l-.814.581 1.036 1.453.814-.58zm-1.026-1.439l-.004-.005a.534.534 0 00-.048-.066l-.764.646a.372.372 0 01-.021-.028l-.002-.002.002.002.003.004.834-.55zm-.032-.046l-.003-.004-.804.596.003.003.803-.595zm-.592-.17l-.001.001.375.927-.374-.927zm.56.133a.777.777 0 00-.271-.196l-.4.917a.224.224 0 01-.076-.058l.748-.663zm-.271-.196a.84.84 0 00-.309-.069l-.031 1a.16.16 0 01-.06-.014l.4-.917zm-.309-.069a.847.847 0 00-.31.048l.336.942a.153.153 0 01-.057.01l.031-1zm-.31.048a.79.79 0 00-.282.173l.692.722a.21.21 0 01-.074.047l-.337-.942zm.271.08l-.003-.002-.414.91.003.001.414-.91zm-.618.164l-.01.015.816.577.01-.014-.816-.578zm.034-.04a.733.733 0 00-.118.166l.888.46a.267.267 0 01-.042.06l-.728-.686zm-.08.106l-1.014 1.42.814.58 1.013-1.42-.814-.58zm-.974 1.37a1.64 1.64 0 00-.45 1.113h1c0-.141.055-.294.184-.433l-.734-.68zm-.45 1.112c0 .253.061.499.176.724l.89-.455a.586.586 0 01-.066-.268h-1zm.176.724c.115.224.28.42.478.581l.629-.777a.818.818 0 01-.216-.26l-.89.456zm.478.581c.198.16.428.284.674.367l.318-.949a1.167 1.167 0 01-.363-.195l-.63.777zm.674.367c.247.082.509.124.772.124v-1a1.42 1.42 0 01-.454-.073l-.318.948zm.772.124c.262 0 .524-.042.771-.125l-.318-.948a1.43 1.43 0 01-.453.073v1zm.771-.125c.247-.082.477-.205.675-.366l-.63-.777c-.099.08-.221.148-.363.195l.318.948zm.675-.366c.198-.16.362-.357.477-.581l-.89-.455a.815.815 0 01-.216.259l.629.777zm.477-.581c.115-.225.177-.471.177-.724h-1a.585.585 0 01-.067.269l.89.455zm.177-.723c0-.411-.163-.796-.44-1.1l-.74.672c.126.138.18.289.18.427h1z" fill="#000" mask="url(#a)"/><g clip-path="url(#clip0)"><path d="M13.315 4.63c.252-.505.68-.675 1.23-.714l1.204.76a.975.975 0 01-.446.807c-.297.204-.742.328-1.303.328-.651 0-1.08-.197-1.348-.474a1.413 1.413 0 01-.35-.657l.006.003c.09.048.186.095.273.131a.79.79 0 00.282.072c.165 0 .36-.073.452-.257zM18.666.401h.001a.881.881 0 01.487-.152c.177 0 .34.05.45.123.11.074.146.152.146.214 0 .108-.06.235-.173.402-.885 1.251-1.452 1.987-1.912 2.413-.227.21-.419.335-.6.41a1.47 1.47 0 01-.582.105c-.085 0-.17-.01-.257-.024l-.903-.57a.608.608 0 01-.073-.28c0-.133.017-.202.063-.276.055-.087.165-.198.403-.376a30.68 30.68 0 011.278-.872c.442-.292.99-.656 1.672-1.117z" fill="#FFB401" stroke="#000" stroke-width=".5"/></g><defs><clipPath id="clip0"><path fill="#fff" transform="translate(12)" d="M0 0h8v6.061H0z"/></clipPath></defs></svg>