<svg width="20" height="18" fill="none" xmlns="http://www.w3.org/2000/svg"><path d="M10.076 16.13l3.39-2.11.276-.172-.238-.223-5.14-4.809-.395.294 1.987 3.988-3.422 2.13-.194.12.103.205 1.11 2.197H2.778a.309.309 0 01-.306-.313v-6.356a.64.64 0 00.107-.077l.002-.001L10 4.377l7.427 6.633h.001c.034.031.07.055.1.073v6.354a.31.31 0 01-.306.313h-5.989l-1.157-1.62zm7.452-9.645v.111l.083.075 2.037 1.82v.001a.317.317 0 01.023.443s0 0 0 0l-.743.837a.301.301 0 01-.43.024l-.001-.002-7.963-7.11h0a.8.8 0 00-1.068 0h0l-7.962 7.11h0l-.002.002a.3.3 0 01-.43-.023h0L.33 8.935s0 0 0 0a.318.318 0 01.024-.443L9.239.547h0l.002-.001a1.117 1.117 0 011.52.001h0l.001.002 3.516 3.142.416.372V1.688A.31.31 0 0115 1.375h2.222a.31.31 0 01.306.313v4.797z" fill="#F5C200" stroke="#000" stroke-width=".5"/></svg>