<svg width="20" height="20" fill="none" xmlns="http://www.w3.org/2000/svg"><path d="M16.7 10.32H3.3a.517.517 0 000 1.035h13.4a.517.517 0 100-1.035z" fill="#FFE28F"/><path d="M3.485 11.355v1.11a2.947 2.947 0 002.947 2.947h7.135a2.947 2.947 0 002.948-2.948v-1.11H3.485z" fill="#F9BB4B"/><path d="M13.344 4.901h1.753v.86h-1.753V4.9z" fill="#F5C200"/><path d="M12.087.593a2.663 2.663 0 00-2.66 2.66v7.067h1.053V3.253a1.608 1.608 0 013.215 0V4.9h1.052V3.253a2.663 2.663 0 00-2.66-2.66z" fill="#FFB401"/><path d="M10.736 15.412v1.332h1.013a.39.39 0 00.39-.39v-.942h-1.403z" fill="#F5C200"/><path d="M8.638 16.744v1.3a1.362 1.362 0 002.724 0v-1.3H8.638z" fill="#FFC431"/><path d="M9.264 15.412h1.472v1.332H9.264v-1.332z" fill="#FFB401"/><path d="M9.401 7.208H8.024V9.04h1.404V7.209H9.4z" fill="#000"/><path d="M7.86 15.412v.942a.39.39 0 00.391.39h1.012v-1.332H7.86z" fill="#A0EAEA"/><path d="M8.024 7.646v.982H6.656v-.982h1.368zm-4.068 3.192a.517.517 0 01.517-.518H3.3a.517.517 0 000 1.035h1.172a.517.517 0 01-.517-.517z" fill="#FFB401"/><path d="M4.657 12.464v-1.11H3.485v1.11a2.947 2.947 0 002.947 2.948h1.172a2.947 2.947 0 01-2.947-2.948z" fill="#F5C200"/><path d="M9.81 18.045v-1.3H8.638v1.3a1.363 1.363 0 001.948 1.23 1.362 1.362 0 01-.776-1.23zm-.547-1.335a.391.391 0 01-.23-.356v-.942H7.86v.942a.39.39 0 00.391.39h1.012v-.034z" fill="#FFB401"/><path d="M13.17 10.939h-.728a.236.236 0 00-.166.067.228.228 0 000 .326.236.236 0 00.166.068h.728a.236.236 0 00.166-.068.228.228 0 000-.326.236.236 0 00-.166-.067z" fill="#F5C200"/><path d="M16.699 9.922h-5.986V3.204a1.34 1.34 0 01.405-.95 1.386 1.386 0 011.937 0c.257.252.403.593.405.95v1.39h-.117a.237.237 0 00-.165.068.229.229 0 00-.069.163v.844c0 .062.025.12.069.163a.237.237 0 00.165.068h1.754a.236.236 0 00.166-.068.228.228 0 00.069-.163v-.844a.228.228 0 00-.07-.163.236.236 0 00-.165-.068h-.116v-1.39a2.81 2.81 0 00-.22-1.089 2.842 2.842 0 00-.628-.923 2.898 2.898 0 00-.939-.617 2.937 2.937 0 00-3.154.617 2.843 2.843 0 00-.627.923c-.146.345-.22.715-.22 1.089v3.659h-1.17a.236.236 0 00-.165.067.228.228 0 00-.069.163v.2H6.89v-.717a.228.228 0 00-.068-.163.236.236 0 00-.332 0 .228.228 0 00-.068.163V9.41c0 .06.024.12.068.163a.236.236 0 00.332 0 .228.228 0 00.068-.163v-.692h.9v.174c0 .062.024.12.068.163a.236.236 0 00.166.068h1.168v.798H3.3a.758.758 0 00-.522.207.733.733 0 00-.035 1.027c.13.142.313.228.507.241v.863c.001.83.337 1.624.933 2.21a3.213 3.213 0 002.249.918h1.194v.696c0 .163.066.319.183.434a.63.63 0 00.442.18h.152v1.049c0 .416.168.815.468 1.11a1.612 1.612 0 002.257-.001c.3-.294.468-.693.468-1.11v-1.048h.152a.63.63 0 00.442-.18.61.61 0 00.183-.434v-.696h1.194c.844 0 1.652-.33 2.249-.917a3.104 3.104 0 00.933-2.21v-.864a.756.756 0 00.508-.24.731.731 0 00-.035-1.028.758.758 0 00-.523-.207zm-8.91-1.664H6.89v-.505h.9v.505zm7.074-2.82h-1.285v-.383h1.285v.384zM9.66 3.205c0-.633.256-1.239.71-1.686A2.446 2.446 0 0112.086.82c.643 0 1.26.252 1.715.699.455.447.71 1.053.71 1.686v1.39h-.584v-1.39a1.795 1.795 0 00-.542-1.275 1.858 1.858 0 00-1.3-.528c-.486 0-.954.19-1.299.528s-.54.796-.542 1.275v6.718H9.66V3.204zM8.258 8.663v-1.34h.934v1.34h-.934zm-.007 7.574a.158.158 0 01-.11-.045.152.152 0 01-.046-.108v-.696h.934v.85H8.25zm2.876 1.51a1.1 1.1 0 01-.33.784 1.138 1.138 0 01-1.595 0 1.1 1.1 0 01-.33-.784v-1.049h2.255v1.049zm-1.63-1.51v-.849h1.005v.85H9.498zm2.408-.153c0 .04-.017.08-.046.108a.158.158 0 01-.11.045h-.779v-.849h.935v.696zm4.794-5.145h-2.726a.236.236 0 00-.165.067.228.228 0 000 .326.236.236 0 00.165.068h2.307v.86c0 .707-.287 1.385-.795 1.885a2.74 2.74 0 01-1.918.782H6.432a2.74 2.74 0 01-1.917-.782 2.647 2.647 0 01-.796-1.885v-.86h7.945a.237.237 0 00.165-.068.229.229 0 00-.165-.393H3.3a.287.287 0 01-.202-.08.277.277 0 01.202-.476h13.4c.074 0 .145.03.198.082a.276.276 0 010 .391.285.285 0 01-.198.083z" fill="#000"/></svg>