<svg width="150" height="38" viewBox="0 0 150 38" fill="none" xmlns="http://www.w3.org/2000/svg">
<path d="M0 18.2927C0 28.4146 8.17073 36.5854 18.2927 36.5854C28.4146 36.5854 36.5854 28.4146 36.5854 18.2927C36.5854 8.17073 28.4146 0 18.2927 0C8.17073 0 0 8.17073 0 18.2927ZM6.34146 18.2927C6.34146 11.9512 11.2195 6.82927 17.439 6.34146V12.6829C14.7561 13.0488 12.6829 15.3659 12.6829 18.1707C12.6829 21.2195 15.122 23.7805 18.2927 23.7805C21.4634 23.7805 23.9024 21.3415 23.9024 18.1707C23.9024 15.3659 21.8293 13.0488 19.1463 12.6829V6.34146C25.3659 6.70732 30.2439 11.9512 30.2439 18.2927C30.2439 24.878 24.878 30.2439 18.2927 30.2439C11.7073 30.2439 6.34146 24.878 6.34146 18.2927ZM15.8537 3.17073C15.8537 1.82927 16.9512 0.731707 18.2927 0.731707C19.6341 0.731707 20.7317 1.82927 20.7317 3.17073C20.7317 4.5122 19.6341 5.60976 18.2927 5.60976C16.9512 5.60976 15.8537 4.5122 15.8537 3.17073Z" fill="#B74746"/>
<path d="M48.7795 22.3172H43.5356C42.682 22.3172 42.1942 21.8294 42.1942 20.9757V15.7318C42.1942 14.7562 42.682 14.3903 43.5356 14.3903H48.7795C49.6332 14.3903 50.121 14.8781 50.121 15.7318V20.9757C50.121 21.8294 49.6332 22.3172 48.7795 22.3172ZM53.2917 15.4879C53.2917 12.5611 51.8283 11.0977 49.0234 11.0977H43.2917C40.3649 11.0977 39.0234 12.5611 39.0234 15.4879V20.9757C39.0234 23.9025 40.4869 25.366 43.2917 25.366H49.0234C51.8283 25.366 53.2917 23.9025 53.2917 20.9757V15.4879Z" fill="#B74746"/>
<path d="M69.1472 11.0977H54.8789V14.2684H60.4887V25.4879H63.6594V14.2684H69.1472V11.0977Z" fill="#B74746"/>
<path d="M85.1207 15.488C85.1207 12.6831 83.7792 11.2197 81.0963 11.2197H70.7305V14.3905H80.4866C81.4622 14.3905 81.95 14.7563 81.95 15.61C81.95 16.4636 81.4622 16.8295 80.4866 16.8295H76.3402V20.0002H80.4866C81.4622 20.0002 81.95 20.3661 81.95 21.2197C81.95 22.0734 81.4622 22.4392 80.4866 22.4392H70.7305V25.61H80.4866C83.5353 25.61 85.1207 24.3905 85.1207 21.8295C85.1207 20.61 84.8768 19.3905 84.267 18.5368C84.8768 17.3173 85.1207 16.3417 85.1207 15.488Z" fill="#B74746"/>
<path d="M96.4631 22.3172H91.2192C90.3656 22.3172 89.8778 21.8294 89.8778 20.9757V15.7318C89.8778 14.7562 90.3656 14.3903 91.2192 14.3903H96.4631C97.3168 14.3903 97.8046 14.8781 97.8046 15.7318V20.9757C97.8046 21.8294 97.3168 22.3172 96.4631 22.3172ZM100.975 15.4879C100.975 12.5611 99.5119 11.0977 96.707 11.0977H90.9753C88.0485 11.0977 86.707 12.5611 86.707 15.4879V20.9757C86.707 23.9025 88.1704 25.366 90.9753 25.366H96.707C99.5119 25.366 100.975 23.9025 100.975 20.9757V15.4879Z" fill="#B74746"/>
<path d="M113.781 21.0977C113.781 20.244 113.293 19.8781 112.44 19.8781H105.854V22.3172H112.44C113.293 22.3172 113.781 21.8294 113.781 21.0977ZM113.781 15.4879C113.781 14.6342 113.293 14.2684 112.44 14.2684H105.854V16.7074H112.44C113.293 16.7074 113.781 16.3416 113.781 15.4879ZM116.952 21.0977C116.952 24.0245 115.488 25.366 112.684 25.366H102.684V11.0977H112.684C115.488 11.0977 116.952 12.5611 116.952 15.3659C116.952 16.7074 116.586 17.683 116.098 18.1708C116.586 18.9025 116.952 19.8781 116.952 21.0977Z" fill="#B74746"/>
<path d="M132.803 25.4879H129.633V15.4879L121.706 25.4879H118.535V11.0977H121.706V21.0977L129.633 11.0977H132.803V25.4879Z" fill="#B74746"/>
<path d="M143.293 18.2928L149.025 11.0977H145.366L140.854 16.7074H137.561V11.0977H134.391V25.4879H137.561V19.8781H140.854L145.366 25.4879H149.025L143.293 18.2928Z" fill="#B74746"/>
</svg>
