<svg width="100" height="29" viewBox="0 0 100 29" fill="none" xmlns="http://www.w3.org/2000/svg">
<g clip-path="url(#clip0)">
<path d="M34.2064 0H65.2928V27.5904H56.6708V6.86575H42.8215V27.5918H34.2051V0H34.2064ZM91.2599 11.8603V8.73973C91.2599 8.73973 91.2763 8.36301 91.1366 8.05205C91.1179 8.01049 91.0983 7.96938 91.0777 7.92877C90.9223 7.60703 90.6786 7.33619 90.3749 7.14795C90.2493 7.06207 90.1105 6.99729 89.964 6.95616C89.7781 6.89618 89.584 6.86568 89.3886 6.86575H77.401V27.5904H68.7886V0H94.0078L92.3832 5.18082L99.8736 6.19041V15.189L92.1955 13.7945L94.0051 20.5986H77.4023V13.7329H89.3886C90.4215 13.7329 91.2599 12.8945 91.2599 11.8603Z" fill="#FF4E00"/>
<path d="M91.2603 13.7329V20.5986H94.2699C95.7593 20.5983 97.1877 20.0064 98.2409 18.9532C99.2941 17.9 99.8859 16.4717 99.8863 14.9822V13.7329H91.2617H91.2603ZM91.2603 6.86575V0H94.2699C95.7596 0.000363252 97.1881 0.592398 98.2414 1.6459C99.2946 2.69941 99.8863 4.12811 99.8863 5.61781V6.86575H91.2617H91.2603ZM10.4904 20.5986H20.6068C21.0803 20.5966 21.5354 20.4153 21.8805 20.0912C22.2257 19.7672 22.4353 19.3244 22.4671 18.8521H22.4712V17.9781H31.0863V20.7247L26.0918 23.5959L24.9685 27.5904H5.69452L4.80685 24.2822L0 22.0973V6.10274L5.69589 0H25.8247V4.55616L31.0849 5.43014V9.61233H22.4712V8.73973C22.4712 7.70548 21.6329 6.86575 20.5986 6.86575H10.5438V6.86712H10.4863C10.2271 6.86715 9.97078 6.92098 9.73349 7.0252C9.49619 7.12942 9.28311 7.28177 9.10774 7.47259C8.93236 7.66342 8.79851 7.88857 8.71465 8.13381C8.63079 8.37904 8.59875 8.63901 8.62055 8.89726L8.6137 8.90548V18.7301C8.61479 19.2261 8.81256 19.7013 9.16362 20.0516C9.51469 20.4019 9.99037 20.5986 10.4863 20.5986H10.4904Z" fill="#FF4E00"/>
<path d="M8.62603 6.86575V0H5.61781C4.12787 0 2.69896 0.591875 1.64542 1.64542C0.591874 2.69896 0 4.12787 0 5.61781L0 6.86575H8.62603ZM8.62603 20.7247V27.5904H5.61781C4.12787 27.5904 2.69896 26.9985 1.64542 25.945C0.591874 24.8915 0 23.4625 0 21.9726L0 20.7247H8.62603ZM22.4712 20.7247V27.5904H25.4808C26.9705 27.5901 28.3991 26.998 29.4523 25.9445C30.5056 24.891 31.0973 23.4623 31.0973 21.9726V20.7247H22.4712ZM22.4712 6.86575V0H25.4808C26.9705 0.000363252 28.3991 0.592398 29.4523 1.6459C30.5056 2.69941 31.0973 4.12811 31.0973 5.61781V6.86575H22.4712Z" fill="#FF4E00"/>
</g>
<defs>
<clipPath id="clip0">
<rect width="100" height="28.7671" fill="white"/>
</clipPath>
</defs>
</svg>
