<svg width="20" height="20" viewBox="0 0 20 20" fill="none" xmlns="http://www.w3.org/2000/svg">
<path d="M17.734 6.89649L12.775 6.17579L10.5582 1.68165C10.4976 1.5586 10.398 1.45899 10.275 1.39844C9.96638 1.2461 9.59138 1.37305 9.43708 1.68165L7.22028 6.17579L2.2613 6.89649C2.12458 6.91602 1.99958 6.98048 1.90388 7.07813C1.78818 7.19705 1.72442 7.35704 1.72662 7.52294C1.72881 7.68884 1.79679 7.84709 1.91559 7.9629L5.50348 11.4609L4.65583 16.4004C4.63595 16.5153 4.64867 16.6335 4.69253 16.7415C4.7364 16.8496 4.80966 16.9432 4.90401 17.0117C4.99836 17.0802 5.11002 17.1209 5.22634 17.1292C5.34265 17.1375 5.45896 17.113 5.56208 17.0586L9.99763 14.7266L14.4332 17.0586C14.5543 17.1231 14.6949 17.1445 14.8297 17.1211C15.1695 17.0625 15.398 16.7402 15.3394 16.4004L14.4918 11.4609L18.0797 7.9629C18.1773 7.8672 18.2418 7.74219 18.2613 7.60548C18.314 7.26368 18.0758 6.94727 17.734 6.89649Z" fill="#880000"/>
</svg>
