<svg width="100" height="94" viewBox="0 0 100 94" fill="none" xmlns="http://www.w3.org/2000/svg">
<g clip-path="url(#clip0)">
<path fill-rule="evenodd" clip-rule="evenodd" d="M95.9469 93.2349C101.94 94.9549 94.2302 73.585 94.2302 73.585C97.6636 63.3183 101.064 28.2683 98.9302 17.585C96.7969 6.89828 88.7969 7.26828 74.0969 4.34495C59.1336 1.34495 21.5002 -0.371717 13.3336 0.0682831C5.21689 0.491616 -0.749776 6.03495 0.0835574 17.1683C0.940224 28.2683 13.9602 69.6349 20.4169 79.9016C26.8502 90.1683 36.3602 88.375 42.0336 87.6883C49.8136 86.7283 79.1002 79.9016 79.1002 79.9016C76.4802 76.535 89.9536 91.515 95.9436 93.2349H95.9469ZM56.6669 28.635L61.8802 17.555H77.4802L60.4269 50.0283V69.1616H42.5269V50.0283L32.9936 31.875L25.4502 17.555H41.0502L51.4636 39.6383L56.6669 28.635Z" fill="#ED484A"/>
</g>
<defs>
<clipPath id="clip0">
<rect width="100" height="93.3333" fill="white"/>
</clipPath>
</defs>
</svg>
